%TF.GenerationSoftware,KiCad,Pcbnew,10.0.3*%
%TF.CreationDate,2026-06-11T15:40:50-04:00*%
%TF.ProjectId,Cam-connector,43616d2d-636f-46e6-9e65-63746f722e6b,rev?*%
%TF.SameCoordinates,Original*%
%TF.FileFunction,Paste,Top*%
%TF.FilePolarity,Positive*%
%FSLAX46Y46*%
G04 Gerber Fmt 4.6, Leading zero omitted, Abs format (unit mm)*
G04 Created by KiCad (PCBNEW 10.0.3) date 2026-06-11 15:40:50*
%MOMM*%
%LPD*%
G01*
G04 APERTURE LIST*
G04 Aperture macros list*
%AMRoundRect*
0 Rectangle with rounded corners*
0 $1 Rounding radius*
0 $2 $3 $4 $5 $6 $7 $8 $9 X,Y pos of 4 corners*
0 Add a 4 corners polygon primitive as box body*
4,1,4,$2,$3,$4,$5,$6,$7,$8,$9,$2,$3,0*
0 Add four circle primitives for the rounded corners*
1,1,$1+$1,$2,$3*
1,1,$1+$1,$4,$5*
1,1,$1+$1,$6,$7*
1,1,$1+$1,$8,$9*
0 Add four rect primitives between the rounded corners*
20,1,$1+$1,$2,$3,$4,$5,0*
20,1,$1+$1,$4,$5,$6,$7,0*
20,1,$1+$1,$6,$7,$8,$9,0*
20,1,$1+$1,$8,$9,$2,$3,0*%
G04 Aperture macros list end*
%ADD10RoundRect,0.100000X-0.100000X0.637500X-0.100000X-0.637500X0.100000X-0.637500X0.100000X0.637500X0*%
%ADD11R,0.300000X1.100000*%
%ADD12R,1.700000X1.900000*%
%ADD13R,0.500000X0.950000*%
%ADD14RoundRect,0.135000X-0.135000X-0.185000X0.135000X-0.185000X0.135000X0.185000X-0.135000X0.185000X0*%
%ADD15R,2.000000X1.300000*%
%ADD16R,0.300000X1.000000*%
G04 APERTURE END LIST*
D10*
%TO.C,U1*%
X174875000Y-80250000D03*
X174225000Y-80250000D03*
X173575000Y-80250000D03*
X172925000Y-80250000D03*
X172275000Y-80250000D03*
X171625000Y-80250000D03*
X170975000Y-80250000D03*
X170325000Y-80250000D03*
X170325000Y-74525000D03*
X170975000Y-74525000D03*
X171625000Y-74525000D03*
X172275000Y-74525000D03*
X172925000Y-74525000D03*
X173575000Y-74525000D03*
X174225000Y-74525000D03*
X174875000Y-74525000D03*
%TD*%
D11*
%TO.C,J2*%
X147350000Y-67200000D03*
X147850000Y-67200000D03*
X148350000Y-67200000D03*
X148850000Y-67200000D03*
X149350000Y-67200000D03*
X149850000Y-67200000D03*
X150350000Y-67200000D03*
X150850000Y-67200000D03*
X151350000Y-67200000D03*
X151850000Y-67200000D03*
X152350000Y-67200000D03*
X152850000Y-67200000D03*
X153350000Y-67200000D03*
X153850000Y-67200000D03*
X154350000Y-67200000D03*
X154850000Y-67200000D03*
X155350000Y-67200000D03*
X155850000Y-67200000D03*
X156350000Y-67200000D03*
X156850000Y-67200000D03*
X157350000Y-67200000D03*
X157850000Y-67200000D03*
X158350000Y-67200000D03*
X158850000Y-67200000D03*
X159350000Y-67200000D03*
X159850000Y-67200000D03*
X160350000Y-67200000D03*
X160850000Y-67200000D03*
X161350000Y-67200000D03*
X161850000Y-67200000D03*
X162350000Y-67200000D03*
X162850000Y-67200000D03*
X163350000Y-67200000D03*
X163850000Y-67200000D03*
X164350000Y-67200000D03*
X164850000Y-67200000D03*
X165350000Y-67200000D03*
X165850000Y-67200000D03*
X166350000Y-67200000D03*
X166850000Y-67200000D03*
X167350000Y-67200000D03*
X167850000Y-67200000D03*
X168350000Y-67200000D03*
X168850000Y-67200000D03*
X169350000Y-67200000D03*
X169850000Y-67200000D03*
X170350000Y-67200000D03*
X170850000Y-67200000D03*
X171350000Y-67200000D03*
X171850000Y-67200000D03*
D12*
X144950000Y-71150000D03*
D13*
X146525000Y-67125000D03*
X172675000Y-67125000D03*
D12*
X174250000Y-71150000D03*
%TD*%
D14*
%TO.C,R2*%
X165080000Y-76700000D03*
X166100000Y-76700000D03*
%TD*%
%TO.C,R1*%
X168070000Y-77250000D03*
X167050000Y-77250000D03*
%TD*%
D15*
%TO.C,J1*%
X147100018Y-85000001D03*
X171199980Y-85000001D03*
D16*
X149400001Y-87700000D03*
X149900000Y-87700000D03*
X150399999Y-87700000D03*
X150900000Y-87700000D03*
X151399999Y-87700000D03*
X151900001Y-87700000D03*
X152400000Y-87700000D03*
X152899999Y-87700000D03*
X153400000Y-87700000D03*
X153899999Y-87700000D03*
X154400001Y-87700000D03*
X154900000Y-87700000D03*
X155399999Y-87700000D03*
X155900000Y-87700000D03*
X156399999Y-87700000D03*
X156900001Y-87700000D03*
X157400000Y-87700000D03*
X157899999Y-87700000D03*
X158400001Y-87700000D03*
X158899999Y-87700000D03*
X159400001Y-87700000D03*
X159900000Y-87700000D03*
X160399999Y-87700000D03*
X160900001Y-87700000D03*
X161400000Y-87700000D03*
X161900001Y-87700000D03*
X162400000Y-87700000D03*
X162899999Y-87700000D03*
X163400001Y-87700000D03*
X163900000Y-87700000D03*
X164400001Y-87700000D03*
X164900000Y-87700000D03*
X165399999Y-87700000D03*
X165900001Y-87700000D03*
X166400000Y-87700000D03*
X166899999Y-87700000D03*
X167400000Y-87700000D03*
X167899999Y-87700000D03*
X168400001Y-87700000D03*
X168900000Y-87700000D03*
%TD*%
M02*
