M48
; DRILL file KiCad 10.0.3 date 2026-07-01T10:14:13
; FORMAT={-:-/ absolute / metric / decimal}
; #@! TF.CreationDate,2026-07-01T10:14:13-04:00
; #@! TF.GenerationSoftware,Kicad,Pcbnew,10.0.3
; #@! TF.FileFunction,Plated,1,2,PTH
FMAT,2
METRIC
; #@! TA.AperFunction,Plated,PTH,ViaDrill
T1C0.254
; #@! TA.AperFunction,Plated,PTH,ViaDrill
T2C0.300
; #@! TA.AperFunction,Plated,PTH,ComponentDrill
T3C1.000
%
G90
G05
T1
X112.82Y-67.75
X115.66Y-67.87
X117.24Y-64.86
X118.27Y-63.394
X118.44Y-64.84
X118.98Y-63.43
X119.78Y-63.11
X122.206Y-69.397
X122.376Y-68.709
X123.058Y-68.52
X123.535Y-67.983
X124.065Y-67.514
X124.94Y-64.999
X126.013Y-69.688
X126.503Y-69.176
X127.009Y-68.681
X127.446Y-68.124
X128.042Y-67.742
X129.844Y-70.524
X130.26Y-64.76
X130.32Y-73.78
X130.443Y-70.147
X131.083Y-69.783
X131.44Y-76.51
X131.806Y-69.783
X131.97Y-75.955
X132.322Y-69.112
X132.431Y-75.418
X132.96Y-74.92
X133.3Y-64.77
X133.49Y-74.37
X133.64Y-67.879
X134.167Y-73.968
X134.36Y-65.273
X134.406Y-71.156
X134.8Y-73.65
X136.23Y-64.83
T2
X117.25Y-74.25
X132.05Y-62.38
X132.08Y-60.83
T3
X136.285Y-69.29
X138.825Y-69.29
M30
