M48
; DRILL file KiCad 10.0.3 date 2026-06-11T15:40:47
; FORMAT={-:-/ absolute / metric / decimal}
; #@! TF.CreationDate,2026-06-11T15:40:47-04:00
; #@! TF.GenerationSoftware,Kicad,Pcbnew,10.0.3
; #@! TF.FileFunction,Plated,1,2,PTH
FMAT,2
METRIC
; #@! TA.AperFunction,Plated,PTH,ViaDrill
T1C0.250
; #@! TA.AperFunction,Plated,PTH,ViaDrill
T2C0.300
%
G90
G05
T1
X173.2Y-85.0
T2
X147.1Y-83.6
X147.1Y-86.5
X147.35Y-66.05
X147.35Y-68.35
X148.95Y-85.0
X150.8Y-68.6
X150.85Y-65.95
X151.5Y-88.65
X152.85Y-70.55
X154.35Y-65.4
X154.8Y-68.6
X154.85Y-66.05
X157.25Y-85.85
X157.275Y-68.4
X157.275Y-69.15
X157.275Y-69.9
X157.275Y-70.65
X157.275Y-71.4
X157.279Y-85.086
X157.3Y-82.833
X157.305Y-83.587
X157.305Y-84.337
X157.55Y-86.55
X158.0Y-85.85
X158.609Y-85.359
X160.887Y-73.161
X160.897Y-71.561
X160.906Y-72.361
X160.925Y-74.718
X160.943Y-73.959
X162.675Y-77.55
X162.675Y-78.3
X162.675Y-79.05
X162.675Y-79.8
X162.675Y-80.55
X164.1Y-68.65
X164.85Y-68.65
X165.6Y-68.65
X165.85Y-66.0
X166.9Y-86.65
X167.0Y-88.7
X167.9Y-83.85
X167.9Y-84.55
X167.9Y-85.25
X167.9Y-85.95
X168.3Y-68.75
X168.35Y-66.0
X169.0Y-77.3
X171.2Y-86.4
X171.2Y-87.75
X171.2Y-88.45
X171.2Y-89.15
X171.2Y-89.85
X171.25Y-83.65
X171.65Y-73.1
X171.85Y-65.95
X171.85Y-68.35
M30
