%TF.GenerationSoftware,KiCad,Pcbnew,10.0.3*%
%TF.CreationDate,2026-06-11T15:40:50-04:00*%
%TF.ProjectId,Cam-connector,43616d2d-636f-46e6-9e65-63746f722e6b,rev?*%
%TF.SameCoordinates,Original*%
%TF.FileFunction,Copper,L1,Top*%
%TF.FilePolarity,Positive*%
%FSLAX46Y46*%
G04 Gerber Fmt 4.6, Leading zero omitted, Abs format (unit mm)*
G04 Created by KiCad (PCBNEW 10.0.3) date 2026-06-11 15:40:50*
%MOMM*%
%LPD*%
G01*
G04 APERTURE LIST*
G04 Aperture macros list*
%AMRoundRect*
0 Rectangle with rounded corners*
0 $1 Rounding radius*
0 $2 $3 $4 $5 $6 $7 $8 $9 X,Y pos of 4 corners*
0 Add a 4 corners polygon primitive as box body*
4,1,4,$2,$3,$4,$5,$6,$7,$8,$9,$2,$3,0*
0 Add four circle primitives for the rounded corners*
1,1,$1+$1,$2,$3*
1,1,$1+$1,$4,$5*
1,1,$1+$1,$6,$7*
1,1,$1+$1,$8,$9*
0 Add four rect primitives between the rounded corners*
20,1,$1+$1,$2,$3,$4,$5,0*
20,1,$1+$1,$4,$5,$6,$7,0*
20,1,$1+$1,$6,$7,$8,$9,0*
20,1,$1+$1,$8,$9,$2,$3,0*%
%AMFreePoly0*
4,1,6,1.000000,0.000000,0.500000,-0.750000,-0.500000,-0.750000,-0.500000,0.750000,0.500000,0.750000,1.000000,0.000000,1.000000,0.000000,$1*%
%AMFreePoly1*
4,1,6,0.500000,-0.750000,-0.650000,-0.750000,-0.150000,0.000000,-0.650000,0.750000,0.500000,0.750000,0.500000,-0.750000,0.500000,-0.750000,$1*%
G04 Aperture macros list end*
%TA.AperFunction,SMDPad,CuDef*%
%ADD10RoundRect,0.100000X-0.100000X0.637500X-0.100000X-0.637500X0.100000X-0.637500X0.100000X0.637500X0*%
%TD*%
%TA.AperFunction,SMDPad,CuDef*%
%ADD11R,0.300000X1.100000*%
%TD*%
%TA.AperFunction,SMDPad,CuDef*%
%ADD12R,1.700000X1.900000*%
%TD*%
%TA.AperFunction,SMDPad,CuDef*%
%ADD13R,0.500000X0.950000*%
%TD*%
%TA.AperFunction,SMDPad,CuDef*%
%ADD14RoundRect,0.135000X-0.135000X-0.185000X0.135000X-0.185000X0.135000X0.185000X-0.135000X0.185000X0*%
%TD*%
%TA.AperFunction,SMDPad,CuDef*%
%ADD15R,2.000000X1.300000*%
%TD*%
%TA.AperFunction,SMDPad,CuDef*%
%ADD16R,0.300000X1.000000*%
%TD*%
%TA.AperFunction,SMDPad,CuDef*%
%ADD17FreePoly0,180.000000*%
%TD*%
%TA.AperFunction,SMDPad,CuDef*%
%ADD18FreePoly1,180.000000*%
%TD*%
%TA.AperFunction,SMDPad,CuDef*%
%ADD19FreePoly0,0.000000*%
%TD*%
%TA.AperFunction,SMDPad,CuDef*%
%ADD20FreePoly1,0.000000*%
%TD*%
%TA.AperFunction,ViaPad*%
%ADD21C,0.550000*%
%TD*%
%TA.AperFunction,ViaPad*%
%ADD22C,0.700000*%
%TD*%
%TA.AperFunction,ViaPad*%
%ADD23C,0.600000*%
%TD*%
%TA.AperFunction,Conductor*%
%ADD24C,0.300000*%
%TD*%
%TA.AperFunction,Conductor*%
%ADD25C,0.100000*%
%TD*%
G04 APERTURE END LIST*
D10*
%TO.P,U1,16,AUX_16*%
%TO.N,unconnected-(U1-AUX-Pad16)*%
X174875000Y-80250000D03*
%TO.P,U1,15,NC_15*%
%TO.N,unconnected-(U1-NC-Pad15)*%
X174225000Y-80250000D03*
%TO.P,U1,14,A0_14*%
%TO.N,Net-(JP2-A)*%
X173575000Y-80250000D03*
%TO.P,U1,13,A1_13*%
%TO.N,Net-(JP1-A)*%
X172925000Y-80250000D03*
%TO.P,U1,12,SCL_12*%
%TO.N,/LCD_SCL*%
X172275000Y-80250000D03*
%TO.P,U1,11,SDA_11*%
%TO.N,/LCD_SDA*%
X171625000Y-80250000D03*
%TO.P,U1,10,~{PENIRQ}_10*%
%TO.N,/LCD_INT*%
X170975000Y-80250000D03*
%TO.P,U1,9,NC_9*%
%TO.N,unconnected-(U1-NC-Pad9)*%
X170325000Y-80250000D03*
%TO.P,U1,8,NC_8*%
%TO.N,unconnected-(U1-NC-Pad8)*%
X170325000Y-74525000D03*
%TO.P,U1,7,NC_7*%
%TO.N,unconnected-(U1-NC-Pad7)*%
X170975000Y-74525000D03*
%TO.P,U1,6,GND_6*%
%TO.N,GND*%
X171625000Y-74525000D03*
%TO.P,U1,5,Y-_5*%
%TO.N,/YD*%
X172275000Y-74525000D03*
%TO.P,U1,4,X-_4*%
%TO.N,/XL*%
X172925000Y-74525000D03*
%TO.P,U1,3,Y+_3*%
%TO.N,/YU*%
X173575000Y-74525000D03*
%TO.P,U1,2,X+_2*%
%TO.N,/XR*%
X174225000Y-74525000D03*
%TO.P,U1,1,VDD/REF_1*%
%TO.N,SYS_3V3*%
X174875000Y-74525000D03*
%TD*%
D11*
%TO.P,J2,1,1_1*%
%TO.N,GND*%
X147350000Y-67200000D03*
%TO.P,J2,2,2_2*%
%TO.N,SYS_3V3*%
X147850000Y-67200000D03*
%TO.P,J2,3,3_3*%
X148350000Y-67200000D03*
%TO.P,J2,4,4_4*%
X148850000Y-67200000D03*
%TO.P,J2,5,5_5*%
X149350000Y-67200000D03*
%TO.P,J2,6,6_6*%
X149850000Y-67200000D03*
%TO.P,J2,7,7_7*%
%TO.N,GND*%
X150350000Y-67200000D03*
%TO.P,J2,8,8_8*%
X150850000Y-67200000D03*
%TO.P,J2,9,9_9*%
X151350000Y-67200000D03*
%TO.P,J2,10,10_10*%
%TO.N,/LCD_RST*%
X151850000Y-67200000D03*
%TO.P,J2,11,11_11*%
%TO.N,/LCD_VSYNC*%
X152350000Y-67200000D03*
%TO.P,J2,12,12_12*%
%TO.N,/HSYNC*%
X152850000Y-67200000D03*
%TO.P,J2,13,13_13*%
%TO.N,/DOTCLK*%
X153350000Y-67200000D03*
%TO.P,J2,14,14_14*%
%TO.N,/DE*%
X153850000Y-67200000D03*
%TO.P,J2,15,15_15*%
%TO.N,GND*%
X154350000Y-67200000D03*
%TO.P,J2,16,16_16*%
X154850000Y-67200000D03*
%TO.P,J2,17,17_17*%
%TO.N,/DB15*%
X155350000Y-67200000D03*
%TO.P,J2,18,18_18*%
%TO.N,/DB14*%
X155850000Y-67200000D03*
%TO.P,J2,19,19_19*%
%TO.N,/DB13*%
X156350000Y-67200000D03*
%TO.P,J2,20,20_20*%
%TO.N,/DB12*%
X156850000Y-67200000D03*
%TO.P,J2,21,21_21*%
%TO.N,/DB11*%
X157350000Y-67200000D03*
%TO.P,J2,22,22_22*%
%TO.N,/DB10*%
X157850000Y-67200000D03*
%TO.P,J2,23,23_23*%
%TO.N,/DB9*%
X158350000Y-67200000D03*
%TO.P,J2,24,24_24*%
%TO.N,/DB8*%
X158850000Y-67200000D03*
%TO.P,J2,25,25_25*%
%TO.N,/DB7*%
X159350000Y-67200000D03*
%TO.P,J2,26,26_26*%
%TO.N,/DB6*%
X159850000Y-67200000D03*
%TO.P,J2,27,27_27*%
%TO.N,/DB5*%
X160350000Y-67200000D03*
%TO.P,J2,28,28_28*%
%TO.N,/DB4*%
X160850000Y-67200000D03*
%TO.P,J2,29,29_29*%
%TO.N,/DB3*%
X161350000Y-67200000D03*
%TO.P,J2,30,30_30*%
%TO.N,/DB2*%
X161850000Y-67200000D03*
%TO.P,J2,31,31_31*%
%TO.N,/DB1*%
X162350000Y-67200000D03*
%TO.P,J2,32,32_32*%
%TO.N,/DB0*%
X162850000Y-67200000D03*
%TO.P,J2,33,33_33*%
%TO.N,/SDO*%
X163350000Y-67200000D03*
%TO.P,J2,34,34_34*%
%TO.N,/SDI*%
X163850000Y-67200000D03*
%TO.P,J2,35,35_35*%
%TO.N,/LCD_B0*%
X164350000Y-67200000D03*
%TO.P,J2,36,36_36*%
%TO.N,/LCD_B1*%
X164850000Y-67200000D03*
%TO.P,J2,37,37_37*%
%TO.N,/LCD_B2*%
X165350000Y-67200000D03*
%TO.P,J2,38,38_38*%
%TO.N,GND*%
X165850000Y-67200000D03*
%TO.P,J2,39,39_39*%
%TO.N,/TE*%
X166350000Y-67200000D03*
%TO.P,J2,40,40_40*%
%TO.N,SYS_3V3*%
X166850000Y-67200000D03*
%TO.P,J2,41,41_41*%
X167350000Y-67200000D03*
%TO.P,J2,42,42_42*%
X167850000Y-67200000D03*
%TO.P,J2,43,43_43*%
%TO.N,GND*%
X168350000Y-67200000D03*
%TO.P,J2,44,44_44*%
%TO.N,/XR*%
X168850000Y-67200000D03*
%TO.P,J2,45,45_45*%
%TO.N,/YD*%
X169350000Y-67200000D03*
%TO.P,J2,46,46_46*%
%TO.N,/XL*%
X169850000Y-67200000D03*
%TO.P,J2,47,47_47*%
%TO.N,/YU*%
X170350000Y-67200000D03*
%TO.P,J2,48,48_48*%
%TO.N,SYS_3V3*%
X170850000Y-67200000D03*
%TO.P,J2,49,49_49*%
X171350000Y-67200000D03*
%TO.P,J2,50,50_50*%
%TO.N,GND*%
X171850000Y-67200000D03*
D12*
%TO.P,J2,SH1*%
%TO.N,N/C*%
X144950000Y-71150000D03*
D13*
%TO.P,J2,SH2*%
X146525000Y-67125000D03*
%TO.P,J2,SH3*%
X172675000Y-67125000D03*
D12*
%TO.P,J2,SH4*%
X174250000Y-71150000D03*
%TD*%
D14*
%TO.P,R2,1*%
%TO.N,Net-(JP2-A)*%
X165080000Y-76700000D03*
%TO.P,R2,2*%
%TO.N,GND*%
X166100000Y-76700000D03*
%TD*%
%TO.P,R1,2*%
%TO.N,GND*%
X168070000Y-77250000D03*
%TO.P,R1,1*%
%TO.N,Net-(JP1-A)*%
X167050000Y-77250000D03*
%TD*%
D15*
%TO.P,J1,P2,P2_P2*%
%TO.N,GND*%
X147100018Y-85000001D03*
%TO.P,J1,P1,P1_P1*%
X171199980Y-85000001D03*
D16*
%TO.P,J1,40,40_40*%
%TO.N,/LCD_SCL*%
X149400001Y-87700000D03*
%TO.P,J1,39,39_39*%
%TO.N,/LDC_SDA*%
X149900000Y-87700000D03*
%TO.P,J1,38,38_38*%
%TO.N,/LCD_INT*%
X150399999Y-87700000D03*
%TO.P,J1,37,37_37*%
%TO.N,/LCD_RST*%
X150900000Y-87700000D03*
%TO.P,J1,36,36_36*%
%TO.N,GND*%
X151399999Y-87700000D03*
%TO.P,J1,35,35_35*%
%TO.N,/LCD_BL*%
X151900001Y-87700000D03*
%TO.P,J1,34,34_34*%
%TO.N,/LCD_R57*%
X152400000Y-87700000D03*
%TO.P,J1,33,33_33*%
%TO.N,/DE*%
X152899999Y-87700000D03*
%TO.P,J1,32,32_32*%
%TO.N,/LCD_VSYNC*%
X153400000Y-87700000D03*
%TO.P,J1,31,31_31*%
%TO.N,/HSYNC*%
X153899999Y-87700000D03*
%TO.P,J1,30,30_30*%
%TO.N,/DOTCLK*%
X154400001Y-87700000D03*
%TO.P,J1,29,29_29*%
%TO.N,/DB4*%
X154900000Y-87700000D03*
%TO.P,J1,28,28_28*%
%TO.N,/DB3*%
X155399999Y-87700000D03*
%TO.P,J1,27,27_27*%
%TO.N,/DB2*%
X155900000Y-87700000D03*
%TO.P,J1,26,26_26*%
%TO.N,/DB1*%
X156399999Y-87700000D03*
%TO.P,J1,25,25_25*%
%TO.N,/DB0*%
X156900001Y-87700000D03*
%TO.P,J1,24,24_24*%
%TO.N,/LCD_B2*%
X157400000Y-87700000D03*
%TO.P,J1,23,23_23*%
%TO.N,/LCD_B1*%
X157899999Y-87700000D03*
%TO.P,J1,22,22_22*%
%TO.N,/LCD_B0*%
X158400001Y-87700000D03*
%TO.P,J1,21,21_21*%
%TO.N,/DB10*%
X158899999Y-87700000D03*
%TO.P,J1,20,20_20*%
%TO.N,/DB9*%
X159400001Y-87700000D03*
%TO.P,J1,19,19_19*%
%TO.N,/DB8*%
X159900000Y-87700000D03*
%TO.P,J1,18,18_18*%
%TO.N,/DB7*%
X160399999Y-87700000D03*
%TO.P,J1,17,17_17*%
%TO.N,/DB6*%
X160900001Y-87700000D03*
%TO.P,J1,16,16_16*%
%TO.N,/DB5*%
X161400000Y-87700000D03*
%TO.P,J1,15,15_15*%
%TO.N,/LCD_G1*%
X161900001Y-87700000D03*
%TO.P,J1,14,14_14*%
%TO.N,/LCD_G0*%
X162400000Y-87700000D03*
%TO.P,J1,13,13_13*%
%TO.N,/DB15*%
X162899999Y-87700000D03*
%TO.P,J1,12,12_12*%
%TO.N,/DB14*%
X163400001Y-87700000D03*
%TO.P,J1,11,11_11*%
%TO.N,/DB13*%
X163900000Y-87700000D03*
%TO.P,J1,10,10_10*%
%TO.N,/DB12*%
X164400001Y-87700000D03*
%TO.P,J1,9,9_9*%
%TO.N,/DB11*%
X164900000Y-87700000D03*
%TO.P,J1,8,8_8*%
%TO.N,/LCD_R2*%
X165399999Y-87700000D03*
%TO.P,J1,7,7_7*%
%TO.N,/LCD_R1*%
X165900001Y-87700000D03*
%TO.P,J1,6,6_6*%
%TO.N,/LCD_R0*%
X166400000Y-87700000D03*
%TO.P,J1,5,5_5*%
%TO.N,GND*%
X166899999Y-87700000D03*
%TO.P,J1,4,4_4*%
%TO.N,SYS_3V3*%
X167400000Y-87700000D03*
%TO.P,J1,3,3_3*%
X167899999Y-87700000D03*
%TO.P,J1,2,2_2*%
%TO.N,SYS_5V*%
X168400001Y-87700000D03*
%TO.P,J1,1,1_1*%
X168900000Y-87700000D03*
%TD*%
D17*
%TO.P,JP1,1,A_1*%
%TO.N,Net-(JP1-A)*%
X167000000Y-79050000D03*
D18*
%TO.P,JP1,2,B_2*%
%TO.N,SYS_3V3*%
X165550000Y-79050000D03*
%TD*%
D19*
%TO.P,JP2,1,A_1*%
%TO.N,Net-(JP2-A)*%
X165620000Y-74920000D03*
D20*
%TO.P,JP2,2,B_2*%
%TO.N,SYS_3V3*%
X167070000Y-74920000D03*
%TD*%
D21*
%TO.N,/DB15*%
X157275000Y-71400000D03*
%TO.N,/DB14*%
X157275000Y-70650000D03*
%TO.N,/DB13*%
X157275000Y-69900000D03*
%TO.N,/DB12*%
X157275000Y-69150000D03*
%TO.N,/DB11*%
X157275000Y-68400000D03*
%TO.N,/DB13*%
X160886776Y-73160799D03*
%TO.N,/DB14*%
X160942554Y-73958854D03*
%TO.N,/DB11*%
X160896814Y-71561065D03*
%TO.N,/DB12*%
X160905635Y-72361018D03*
%TO.N,/DB4*%
X162675000Y-77550000D03*
%TO.N,/DB0*%
X157249997Y-85850000D03*
%TO.N,/DB1*%
X157279002Y-85086071D03*
%TO.N,/DB2*%
X157305173Y-84336526D03*
%TO.N,/DB3*%
X157304854Y-83586524D03*
X162675000Y-78300000D03*
%TO.N,/DB0*%
X162675000Y-80550000D03*
%TO.N,/DB4*%
X157300000Y-82832744D03*
%TO.N,/DB1*%
X162675000Y-79800000D03*
%TO.N,/DB2*%
X162675000Y-79050000D03*
%TO.N,/LCD_B0*%
X158608732Y-85358732D03*
%TO.N,/LCD_B1*%
X158000000Y-85850000D03*
%TO.N,/LCD_B2*%
X157550000Y-86550000D03*
%TO.N,/DB15*%
X160925000Y-74717865D03*
%TO.N,/LCD_B2*%
X165600000Y-68650000D03*
%TO.N,/LCD_B1*%
X164850000Y-68650000D03*
%TO.N,/LCD_B0*%
X164100000Y-68650000D03*
%TO.N,/DE*%
X152850000Y-70550000D03*
X154800000Y-68600000D03*
%TO.N,GND*%
X147100000Y-83600000D03*
X148950000Y-85000000D03*
X147100000Y-86500000D03*
X171200000Y-86400000D03*
D22*
X171250000Y-83650000D03*
D23*
X173200000Y-85000000D03*
D21*
X169000000Y-77300000D03*
X171650000Y-73100000D03*
X171850000Y-68350000D03*
X171850000Y-65950000D03*
X147350000Y-68350000D03*
X147350000Y-66050000D03*
X150850000Y-65950000D03*
X150800000Y-68600000D03*
X154850000Y-66050000D03*
X154350000Y-65400000D03*
X151500000Y-88650000D03*
X168350000Y-66000000D03*
X168300000Y-68750000D03*
X165850000Y-66000000D03*
X166900000Y-86650000D03*
X167000000Y-88700000D03*
%TO.N,SYS_3V3*%
X167900000Y-85250000D03*
X167900000Y-84550000D03*
X167900000Y-83850000D03*
X171200000Y-89850000D03*
X171200000Y-88450000D03*
X171200000Y-89150000D03*
X171200000Y-87750000D03*
X167900000Y-85950000D03*
%TD*%
%TO.N,GND*%
D24*
X171625000Y-74525000D02*
X171625000Y-73125000D01*
X171625000Y-73125000D02*
X171650000Y-73100000D01*
X173200000Y-85000000D02*
X171199980Y-85000001D01*
X171200000Y-86400000D02*
X171200000Y-85000021D01*
X171200000Y-85000021D02*
X171199980Y-85000001D01*
%TO.N,SYS_3V3*%
X167899999Y-87700000D02*
X167400000Y-87700000D01*
%TO.N,/LCD_INT*%
D25*
X167217463Y-89225000D02*
X166782537Y-89225000D01*
X166757537Y-89200000D02*
X151250000Y-89200000D01*
X151250000Y-89200000D02*
X150399999Y-88349999D01*
X167242463Y-89200000D02*
X167217463Y-89225000D01*
X169500000Y-89000000D02*
X169300000Y-89200000D01*
X150399999Y-88349999D02*
X150399999Y-87700000D01*
X166782537Y-89225000D02*
X166757537Y-89200000D01*
X169500000Y-84125717D02*
X169500000Y-89000000D01*
%TO.N,GND*%
X166900000Y-86650000D02*
X166900000Y-88600000D01*
%TO.N,/LCD_INT*%
X169300000Y-89200000D02*
X167242463Y-89200000D01*
X170975000Y-82650717D02*
X169500000Y-84125717D01*
X170975000Y-80250000D02*
X170975000Y-82650717D01*
%TO.N,GND*%
X166900000Y-88600000D02*
X167000000Y-88700000D01*
%TO.N,/LCD_B1*%
X158075000Y-86767463D02*
X158075000Y-85925000D01*
X157899999Y-87700000D02*
X157899999Y-86942464D01*
X157899999Y-86942464D02*
X158075000Y-86767463D01*
%TO.N,/LCD_B2*%
X157400000Y-86700000D02*
X157550000Y-86550000D01*
X157400000Y-87700000D02*
X157400000Y-86700000D01*
%TO.N,/LCD_B1*%
X158075000Y-85925000D02*
X158000000Y-85850000D01*
%TO.N,/DB4*%
X154900000Y-85232744D02*
X157300000Y-82832744D01*
%TO.N,/DB1*%
X156399999Y-85957535D02*
X157271463Y-85086071D01*
%TO.N,/DB4*%
X154900000Y-87700000D02*
X154900000Y-85232744D01*
%TO.N,/DB3*%
X155399999Y-87700000D02*
X155399999Y-85491379D01*
%TO.N,/DB2*%
X155900000Y-87700000D02*
X155900000Y-85722611D01*
X155900000Y-85722611D02*
X157286085Y-84336526D01*
%TO.N,/DB0*%
X156900001Y-87700000D02*
X156900001Y-86199996D01*
X156900001Y-86199996D02*
X157249997Y-85850000D01*
%TO.N,/DB1*%
X157271463Y-85086071D02*
X157279002Y-85086071D01*
X156399999Y-87700000D02*
X156399999Y-85957535D01*
%TO.N,/DB3*%
X155399999Y-85491379D02*
X157304854Y-83586524D01*
%TO.N,/DB2*%
X157286085Y-84336526D02*
X157305173Y-84336526D01*
%TO.N,/DB11*%
X162100000Y-83864897D02*
X164900000Y-86664897D01*
%TO.N,/DB15*%
X160925000Y-75075000D02*
X160800000Y-75200000D01*
%TO.N,/DB9*%
X159433732Y-85700459D02*
X159400001Y-85734190D01*
%TO.N,/DB11*%
X162400000Y-75335768D02*
X162100000Y-75635768D01*
%TO.N,/DB15*%
X160800000Y-83178680D02*
X160900001Y-83278681D01*
%TO.N,/DB12*%
X162100000Y-73560850D02*
X161124949Y-72585799D01*
%TO.N,/DB7*%
X159350000Y-67200000D02*
X159350000Y-84084745D01*
%TO.N,/DB14*%
X161200001Y-84237690D02*
X161200001Y-83154417D01*
%TO.N,/DB12*%
X164400001Y-86589162D02*
X161800001Y-83989162D01*
%TO.N,/DB6*%
X159850000Y-67200000D02*
X159850000Y-84160481D01*
%TO.N,/DB9*%
X158350000Y-83933273D02*
X159433732Y-85017005D01*
%TO.N,/DB12*%
X161750000Y-82855888D02*
X161750000Y-75561504D01*
%TO.N,/DB10*%
X157850000Y-83857537D02*
X159133732Y-85141269D01*
%TO.N,/DB15*%
X160925000Y-74717865D02*
X160925000Y-75075000D01*
%TO.N,/DB13*%
X161800000Y-74074023D02*
X161800000Y-75087240D01*
%TO.N,/DB10*%
X159133732Y-85141269D02*
X159133732Y-85576195D01*
%TO.N,/DB12*%
X161800001Y-82905889D02*
X161750000Y-82855888D01*
X161800001Y-83989162D02*
X161800001Y-82905889D01*
%TO.N,/DB14*%
X161500000Y-74516300D02*
X160942554Y-73958854D01*
%TO.N,/DB12*%
X161750000Y-75561504D02*
X162100000Y-75211504D01*
X164400001Y-87700000D02*
X164400001Y-86589162D01*
%TO.N,/DB6*%
X159850000Y-84160481D02*
X160900001Y-85210482D01*
%TO.N,/DB13*%
X163900000Y-86513425D02*
X163900000Y-87700000D01*
%TO.N,/DB11*%
X162100000Y-75635768D02*
X162100000Y-83864897D01*
%TO.N,/DB6*%
X160900001Y-85210482D02*
X160900001Y-87700000D01*
%TO.N,/DB13*%
X161500001Y-83030153D02*
X161500001Y-84113426D01*
%TO.N,/DB12*%
X162100000Y-75211504D02*
X162100000Y-73560850D01*
%TO.N,/DB13*%
X161800000Y-75087240D02*
X161400000Y-75487240D01*
%TO.N,/DB12*%
X161124949Y-72585799D02*
X160885799Y-72585799D01*
%TO.N,/DB8*%
X158850000Y-84009009D02*
X159900000Y-85059009D01*
%TO.N,/DB15*%
X160900001Y-84361954D02*
X162899999Y-86361952D01*
%TO.N,/DB10*%
X157850000Y-67200000D02*
X157850000Y-83857537D01*
%TO.N,/DB14*%
X161100000Y-75356038D02*
X161500000Y-74956038D01*
X161500000Y-74956038D02*
X161500000Y-74516300D01*
X163400001Y-86437690D02*
X161200001Y-84237690D01*
%TO.N,/DB15*%
X162899999Y-86361952D02*
X162899999Y-87700000D01*
X160900001Y-83278681D02*
X160900001Y-84361954D01*
%TO.N,/DB12*%
X160885799Y-72585799D02*
X160800000Y-72500000D01*
%TO.N,/DB8*%
X159900000Y-85059009D02*
X159900000Y-87700000D01*
%TO.N,/DB10*%
X158899999Y-85809928D02*
X158899999Y-87700000D01*
%TO.N,/DB5*%
X161400000Y-85286217D02*
X161400000Y-87700000D01*
X160350000Y-84236217D02*
X161400000Y-85286217D01*
%TO.N,/DB7*%
X160399999Y-85134744D02*
X160399999Y-87700000D01*
%TO.N,/DB11*%
X160896814Y-71561065D02*
X162400000Y-73064251D01*
X162400000Y-73064251D02*
X162400000Y-75335768D01*
%TO.N,/DB7*%
X159350000Y-84084745D02*
X160399999Y-85134744D01*
%TO.N,/DB9*%
X159433732Y-85017005D02*
X159433732Y-85700459D01*
%TO.N,/DB13*%
X161500001Y-84113426D02*
X163900000Y-86513425D01*
%TO.N,/DB10*%
X159133732Y-85576195D02*
X158899999Y-85809928D01*
%TO.N,/DB15*%
X160800000Y-75200000D02*
X160800000Y-83178680D01*
%TO.N,/DB13*%
X161400000Y-75487240D02*
X161400000Y-82930152D01*
%TO.N,/LCD_B0*%
X158608732Y-85641268D02*
X158608732Y-85358732D01*
X158525000Y-85725000D02*
X158608732Y-85641268D01*
X158400001Y-87074999D02*
X158525000Y-86950000D01*
%TO.N,/DB9*%
X159400001Y-85734190D02*
X159400001Y-87700000D01*
%TO.N,/LCD_B0*%
X158400001Y-87700000D02*
X158400001Y-87074999D01*
%TO.N,/DB13*%
X160886776Y-73160799D02*
X161800000Y-74074023D01*
%TO.N,/DB8*%
X158850000Y-67200000D02*
X158850000Y-84009009D01*
%TO.N,/DB14*%
X161200001Y-83154417D02*
X161100000Y-83054416D01*
X163400001Y-87700000D02*
X163400001Y-86437690D01*
%TO.N,/DB9*%
X158350000Y-67200000D02*
X158350000Y-83933273D01*
%TO.N,/DB13*%
X161400000Y-82930152D02*
X161500001Y-83030153D01*
%TO.N,/DB5*%
X160350000Y-67200000D02*
X160350000Y-84236217D01*
%TO.N,/LCD_B0*%
X158525000Y-86950000D02*
X158525000Y-85725000D01*
%TO.N,/DB11*%
X164900000Y-86664897D02*
X164900000Y-87700000D01*
%TO.N,/DB14*%
X161100000Y-83054416D02*
X161100000Y-75356038D01*
%TO.N,GND*%
X168350000Y-68700000D02*
X168300000Y-68750000D01*
X168350000Y-66000000D02*
X168350000Y-68700000D01*
X151399999Y-88549999D02*
X151500000Y-88650000D01*
X151399999Y-87700000D02*
X151399999Y-88549999D01*
%TO.N,/DB11*%
X157350000Y-68325000D02*
X157275000Y-68400000D01*
%TO.N,/DB13*%
X157175000Y-69725000D02*
X157275000Y-69825000D01*
%TO.N,/DB12*%
X156700000Y-68161827D02*
X156700000Y-68638173D01*
%TO.N,/DB14*%
X157275000Y-70575000D02*
X157275000Y-70650000D01*
X157036827Y-70475000D02*
X157175000Y-70475000D01*
%TO.N,/DB13*%
X157036827Y-69725000D02*
X157175000Y-69725000D01*
%TO.N,/DB12*%
X156850000Y-67200000D02*
X156850000Y-68011827D01*
%TO.N,/DB11*%
X157350000Y-67200000D02*
X157350000Y-68325000D01*
%TO.N,/DB15*%
X157175000Y-71225000D02*
X157275000Y-71325000D01*
%TO.N,/DB13*%
X156350000Y-69038173D02*
X157036827Y-69725000D01*
%TO.N,/DB14*%
X155850000Y-69288173D02*
X157036827Y-70475000D01*
%TO.N,/DB13*%
X156350000Y-67200000D02*
X156350000Y-69038173D01*
X157275000Y-69825000D02*
X157275000Y-69900000D01*
%TO.N,/DB14*%
X157175000Y-70475000D02*
X157275000Y-70575000D01*
%TO.N,/DB12*%
X157036827Y-68975000D02*
X157175000Y-68975000D01*
X156850000Y-68011827D02*
X156700000Y-68161827D01*
X157175000Y-68975000D02*
X157275000Y-69075000D01*
%TO.N,/DB15*%
X157275000Y-71325000D02*
X157275000Y-71400000D01*
X155350000Y-69538173D02*
X157036827Y-71225000D01*
X157036827Y-71225000D02*
X157175000Y-71225000D01*
%TO.N,/DB12*%
X157275000Y-69075000D02*
X157275000Y-69150000D01*
X156700000Y-68638173D02*
X157036827Y-68975000D01*
%TO.N,/DB15*%
X155350000Y-67200000D02*
X155350000Y-69538173D01*
%TO.N,/DB14*%
X155850000Y-67200000D02*
X155850000Y-69288173D01*
%TO.N,/DB11*%
X160800000Y-71750000D02*
X160836018Y-71786018D01*
%TO.N,/DB13*%
X160800000Y-73250000D02*
X160933854Y-73383854D01*
%TO.N,/YD*%
X172275000Y-74525000D02*
X172275000Y-72747792D01*
%TO.N,/YU*%
X170350000Y-69974264D02*
X173575000Y-73199264D01*
%TO.N,/XL*%
X172925000Y-72973528D02*
X172925000Y-74525000D01*
%TO.N,/YD*%
X172275000Y-72747792D02*
X169350000Y-69822792D01*
%TO.N,/XL*%
X169850000Y-67200000D02*
X169850000Y-69898528D01*
%TO.N,/YD*%
X169350000Y-69822792D02*
X169350000Y-67200000D01*
%TO.N,/YU*%
X170350000Y-67200000D02*
X170350000Y-69974264D01*
%TO.N,/XL*%
X169850000Y-69898528D02*
X172925000Y-72973528D01*
%TO.N,/YU*%
X173575000Y-73199264D02*
X173575000Y-74525000D01*
%TO.N,/XR*%
X168850000Y-74285246D02*
X168850000Y-67200000D01*
X173487499Y-76000000D02*
X170564754Y-76000000D01*
X170564754Y-76000000D02*
X168850000Y-74285246D01*
X174225000Y-75262499D02*
X173487499Y-76000000D01*
X174225000Y-74525000D02*
X174225000Y-75262499D01*
%TO.N,/LCD_SCL*%
X150600000Y-89550000D02*
X149400001Y-88350001D01*
X169950000Y-89000000D02*
X169400000Y-89550000D01*
X172275000Y-80250000D02*
X172275000Y-81774981D01*
X149400001Y-88350001D02*
X149400001Y-87700000D01*
X172275000Y-81774981D02*
X169950000Y-84099981D01*
X169950000Y-84099981D02*
X169950000Y-89000000D01*
%TO.N,/LCD_RST*%
X150900000Y-87049999D02*
X151850000Y-86099999D01*
X151850000Y-86099999D02*
X151850000Y-67200000D01*
X150900000Y-87700000D02*
X150900000Y-87049999D01*
%TO.N,/LCD_VSYNC*%
X152350000Y-67900000D02*
X153400000Y-68950000D01*
X153400000Y-68950000D02*
X153400000Y-87700000D01*
X152350000Y-67200000D02*
X152350000Y-67900000D01*
%TO.N,/DOTCLK*%
X153350000Y-67900000D02*
X153350000Y-67200000D01*
X154400001Y-68950001D02*
X153350000Y-67900000D01*
%TO.N,/HSYNC*%
X153899999Y-68899999D02*
X153899999Y-87700000D01*
%TO.N,/DOTCLK*%
X154400001Y-87700000D02*
X154400001Y-68950001D01*
%TO.N,/HSYNC*%
X152850000Y-67200000D02*
X152850000Y-67850000D01*
X152850000Y-67850000D02*
X153899999Y-68899999D01*
%TO.N,/DB1*%
X163950000Y-71024264D02*
X163950000Y-78525000D01*
%TO.N,/DB0*%
X164350000Y-78875000D02*
X164350000Y-71000000D01*
%TO.N,/DB1*%
X163950000Y-78525000D02*
X162675000Y-79800000D01*
X162350000Y-69424264D02*
X163950000Y-71024264D01*
%TO.N,/DB2*%
X163650000Y-71148528D02*
X161850000Y-69348528D01*
X163650000Y-78075000D02*
X163650000Y-71148528D01*
%TO.N,/DB3*%
X163350000Y-77625000D02*
X162675000Y-78300000D01*
%TO.N,/DB2*%
X161850000Y-69348528D02*
X161850000Y-67200000D01*
%TO.N,/DB4*%
X163050000Y-71397056D02*
X160850000Y-69197056D01*
X162675000Y-77550000D02*
X163050000Y-77175000D01*
%TO.N,/DB3*%
X161350000Y-67200000D02*
X161350000Y-69272792D01*
%TO.N,/DB4*%
X163050000Y-77175000D02*
X163050000Y-71397056D01*
%TO.N,/DB0*%
X162675000Y-80550000D02*
X164350000Y-78875000D01*
%TO.N,/DB1*%
X162350000Y-67200000D02*
X162350000Y-69424264D01*
%TO.N,/DB2*%
X162675000Y-79050000D02*
X163650000Y-78075000D01*
%TO.N,/DB3*%
X161350000Y-69272792D02*
X163350000Y-71272792D01*
X163350000Y-71272792D02*
X163350000Y-77625000D01*
%TO.N,/DB4*%
X160850000Y-69197056D02*
X160850000Y-67200000D01*
%TO.N,/DB0*%
X162850000Y-67200000D02*
X162850000Y-69500000D01*
X164350000Y-71000000D02*
X162850000Y-69500000D01*
%TO.N,/LCD_SCL*%
X169400000Y-89550000D02*
X150600000Y-89550000D01*
%TO.N,/DB14*%
X160949803Y-74149803D02*
X160800000Y-74000000D01*
%TO.N,SYS_3V3*%
D24*
X147850000Y-67200000D02*
X149850000Y-67200000D01*
%TO.N,/DE*%
D25*
X152899999Y-70599999D02*
X152899999Y-87700000D01*
X152850000Y-70550000D02*
X152899999Y-70599999D01*
X154550000Y-68600000D02*
X154800000Y-68600000D01*
X153850000Y-67900000D02*
X154550000Y-68600000D01*
X153850000Y-67200000D02*
X153850000Y-67900000D01*
%TO.N,SYS_3V3*%
X170850000Y-67200000D02*
X171350000Y-67200000D01*
%TO.N,GND*%
D24*
X147100000Y-83600000D02*
X147100000Y-86500000D01*
X148950000Y-85000000D02*
X147100018Y-85000001D01*
%TO.N,Net-(JP2-A)*%
X165900000Y-75200000D02*
X165620000Y-74920000D01*
%TO.N,Net-(JP1-A)*%
X172925000Y-79512501D02*
X172925000Y-80250000D01*
X172462499Y-79050000D02*
X172925000Y-79512501D01*
X167000000Y-79050000D02*
X172462499Y-79050000D01*
X167050000Y-79000000D02*
X167000000Y-79050000D01*
X167050000Y-77250000D02*
X167050000Y-79000000D01*
%TO.N,Net-(JP2-A)*%
X165080000Y-75460000D02*
X165620000Y-74920000D01*
X165080000Y-76700000D02*
X165080000Y-75460000D01*
X173575000Y-79450000D02*
X173575000Y-80250000D01*
X172673000Y-78548000D02*
X173575000Y-79450000D01*
X172148830Y-78548000D02*
X172673000Y-78548000D01*
X169630830Y-76030000D02*
X172148830Y-78548000D01*
X165975000Y-76030000D02*
X169630830Y-76030000D01*
X165620000Y-75675000D02*
X165975000Y-76030000D01*
X165620000Y-74920000D02*
X165620000Y-75675000D01*
%TO.N,/LCD_B0*%
D25*
X164350000Y-68400000D02*
X164100000Y-68650000D01*
X164350000Y-67200000D02*
X164350000Y-68400000D01*
%TO.N,/LCD_B1*%
X164850000Y-68650000D02*
X164850000Y-67200000D01*
%TO.N,/LCD_B2*%
X165350000Y-68400000D02*
X165600000Y-68650000D01*
X165350000Y-67200000D02*
X165350000Y-68400000D01*
%TO.N,GND*%
X147350000Y-68350000D02*
X147350000Y-66050000D01*
X150850000Y-68550000D02*
X150800000Y-68600000D01*
X150850000Y-65950000D02*
X150850000Y-68550000D01*
D24*
X150350000Y-67200000D02*
X151350000Y-67200000D01*
D25*
X154850000Y-66050000D02*
X154850000Y-67200000D01*
X154350000Y-65400000D02*
X154350000Y-67200000D01*
X171850000Y-68350000D02*
X171850000Y-65950000D01*
X165850000Y-66000000D02*
X165850000Y-67200000D01*
D24*
X167400000Y-76580000D02*
X168070000Y-77250000D01*
X166220000Y-76580000D02*
X167400000Y-76580000D01*
X166100000Y-76700000D02*
X166220000Y-76580000D01*
X168120000Y-77300000D02*
X168070000Y-77250000D01*
X169000000Y-77300000D02*
X168120000Y-77300000D01*
%TO.N,SYS_5V*%
X168400001Y-87700000D02*
X168900000Y-87700000D01*
%TO.N,GND*%
X171250000Y-84949981D02*
X171199980Y-85000001D01*
X171250000Y-83650000D02*
X171250000Y-84949981D01*
%TD*%
%TA.AperFunction,Conductor*%
%TO.N,SYS_3V3*%
G36*
X153924007Y-64870185D02*
G01*
X153969762Y-64922989D01*
X153979706Y-64992147D01*
X153950681Y-65055703D01*
X153944649Y-65062181D01*
X153929496Y-65077333D01*
X153929492Y-65077338D01*
X153860313Y-65197161D01*
X153860312Y-65197164D01*
X153824500Y-65330817D01*
X153824500Y-65469183D01*
X153840661Y-65529495D01*
X153860312Y-65602835D01*
X153860313Y-65602838D01*
X153929492Y-65722661D01*
X153929496Y-65722666D01*
X154013181Y-65806351D01*
X154046666Y-65867674D01*
X154049500Y-65894032D01*
X154049500Y-66275500D01*
X154029815Y-66342539D01*
X153977011Y-66388294D01*
X153925500Y-66399500D01*
X153675326Y-66399500D01*
X153624190Y-66409671D01*
X153575810Y-66409671D01*
X153524674Y-66399500D01*
X153175326Y-66399500D01*
X153124190Y-66409671D01*
X153075810Y-66409671D01*
X153024674Y-66399500D01*
X152675326Y-66399500D01*
X152624190Y-66409671D01*
X152575810Y-66409671D01*
X152524674Y-66399500D01*
X152175326Y-66399500D01*
X152124190Y-66409671D01*
X152075810Y-66409671D01*
X152024674Y-66399500D01*
X151675326Y-66399500D01*
X151624190Y-66409671D01*
X151591737Y-66411777D01*
X151583692Y-66411239D01*
X151524674Y-66399500D01*
X151407920Y-66399500D01*
X151403788Y-66399224D01*
X151374722Y-66388539D01*
X151345012Y-66379815D01*
X151342217Y-66376589D01*
X151338209Y-66375116D01*
X151319532Y-66350409D01*
X151299257Y-66327011D01*
X151298649Y-66322785D01*
X151296075Y-66319380D01*
X151293720Y-66288505D01*
X151289313Y-66257853D01*
X151291009Y-66252952D01*
X151290762Y-66249713D01*
X151294573Y-66242653D01*
X151304664Y-66213500D01*
X151324030Y-66179956D01*
X151339688Y-66152836D01*
X151375500Y-66019183D01*
X151375500Y-65880817D01*
X151339688Y-65747164D01*
X151271752Y-65629495D01*
X151270507Y-65627338D01*
X151270503Y-65627333D01*
X151172666Y-65529496D01*
X151172661Y-65529492D01*
X151052838Y-65460313D01*
X151052837Y-65460312D01*
X151052836Y-65460312D01*
X150919183Y-65424500D01*
X150780817Y-65424500D01*
X150647164Y-65460312D01*
X150647161Y-65460313D01*
X150527338Y-65529492D01*
X150527333Y-65529496D01*
X150429496Y-65627333D01*
X150429492Y-65627338D01*
X150360313Y-65747161D01*
X150360312Y-65747164D01*
X150324500Y-65880817D01*
X150324500Y-66019184D01*
X150327207Y-66029287D01*
X150325542Y-66099137D01*
X150286377Y-66156998D01*
X150222148Y-66184500D01*
X150164097Y-66177558D01*
X150107376Y-66156402D01*
X150107372Y-66156401D01*
X150047844Y-66150000D01*
X150000000Y-66150000D01*
X150000000Y-66460817D01*
X149980315Y-66527856D01*
X149979103Y-66529706D01*
X149964033Y-66552259D01*
X149949500Y-66625323D01*
X149949500Y-67774678D01*
X149964032Y-67847735D01*
X149964033Y-67847739D01*
X149964034Y-67847740D01*
X149979102Y-67870292D01*
X149999980Y-67936967D01*
X150000000Y-67939181D01*
X150000000Y-68250000D01*
X150047828Y-68250000D01*
X150047844Y-68249999D01*
X150107372Y-68243598D01*
X150107380Y-68243596D01*
X150155807Y-68225534D01*
X150225499Y-68220549D01*
X150286822Y-68254033D01*
X150320308Y-68315356D01*
X150315324Y-68385047D01*
X150313200Y-68389561D01*
X150313423Y-68389654D01*
X150310313Y-68397162D01*
X150310312Y-68397164D01*
X150274500Y-68530817D01*
X150274500Y-68669183D01*
X150301649Y-68770503D01*
X150310312Y-68802835D01*
X150310313Y-68802838D01*
X150379492Y-68922661D01*
X150379494Y-68922664D01*
X150379495Y-68922665D01*
X150477335Y-69020505D01*
X150477336Y-69020506D01*
X150477338Y-69020507D01*
X150537249Y-69055096D01*
X150597164Y-69089688D01*
X150730817Y-69125500D01*
X150730819Y-69125500D01*
X150869181Y-69125500D01*
X150869183Y-69125500D01*
X151002836Y-69089688D01*
X151122665Y-69020505D01*
X151220505Y-68922665D01*
X151289688Y-68802836D01*
X151305725Y-68742981D01*
X151342090Y-68683322D01*
X151404937Y-68652793D01*
X151474312Y-68661088D01*
X151528190Y-68705573D01*
X151549465Y-68772125D01*
X151549500Y-68775076D01*
X151549500Y-85924166D01*
X151529815Y-85991205D01*
X151513181Y-86011847D01*
X150659541Y-86865486D01*
X150659537Y-86865491D01*
X150646831Y-86887500D01*
X150596264Y-86935716D01*
X150539444Y-86949500D01*
X150225324Y-86949500D01*
X150174187Y-86959671D01*
X150125807Y-86959670D01*
X150074678Y-86949500D01*
X150074674Y-86949500D01*
X149725326Y-86949500D01*
X149725325Y-86949500D01*
X149674188Y-86959671D01*
X149625808Y-86959670D01*
X149574679Y-86949500D01*
X149574675Y-86949500D01*
X149225327Y-86949500D01*
X149225324Y-86949500D01*
X149152265Y-86964032D01*
X149152261Y-86964033D01*
X149069400Y-87019399D01*
X149014034Y-87102260D01*
X149014033Y-87102264D01*
X148999501Y-87175321D01*
X148999501Y-88224678D01*
X149014033Y-88297735D01*
X149014034Y-88297739D01*
X149014035Y-88297740D01*
X149069400Y-88380601D01*
X149069401Y-88380601D01*
X149069402Y-88380603D01*
X149078036Y-88389237D01*
X149076045Y-88391227D01*
X149109141Y-88430829D01*
X149115218Y-88448221D01*
X149116513Y-88453050D01*
X149119979Y-88465988D01*
X149119981Y-88465992D01*
X149126351Y-88477025D01*
X149148558Y-88515489D01*
X149159541Y-88534512D01*
X150359540Y-89734511D01*
X150415489Y-89790460D01*
X150415491Y-89790461D01*
X150415495Y-89790464D01*
X150484004Y-89830017D01*
X150484011Y-89830021D01*
X150560438Y-89850500D01*
X150560440Y-89850500D01*
X169439560Y-89850500D01*
X169439562Y-89850500D01*
X169515989Y-89830021D01*
X169584511Y-89790460D01*
X169640460Y-89734511D01*
X170190460Y-89184511D01*
X170216338Y-89139688D01*
X170230021Y-89115989D01*
X170250500Y-89039562D01*
X170250500Y-86024501D01*
X170270185Y-85957462D01*
X170322989Y-85911707D01*
X170374500Y-85900501D01*
X170666816Y-85900501D01*
X170733855Y-85920186D01*
X170779610Y-85972990D01*
X170789554Y-86042148D01*
X170774203Y-86086501D01*
X170710313Y-86197161D01*
X170710312Y-86197164D01*
X170674500Y-86330817D01*
X170674500Y-86469183D01*
X170701295Y-86569182D01*
X170710312Y-86602835D01*
X170710313Y-86602838D01*
X170779492Y-86722661D01*
X170779494Y-86722664D01*
X170779495Y-86722665D01*
X170877335Y-86820505D01*
X170877336Y-86820506D01*
X170877338Y-86820507D01*
X170895092Y-86830757D01*
X170997164Y-86889688D01*
X171130817Y-86925500D01*
X171130819Y-86925500D01*
X171269181Y-86925500D01*
X171269183Y-86925500D01*
X171402836Y-86889688D01*
X171522665Y-86820505D01*
X171620505Y-86722665D01*
X171689688Y-86602836D01*
X171725500Y-86469183D01*
X171725500Y-86330817D01*
X171689688Y-86197164D01*
X171625797Y-86086501D01*
X171609324Y-86018601D01*
X171632177Y-85952574D01*
X171687098Y-85909383D01*
X171733184Y-85900501D01*
X172224656Y-85900501D01*
X172224657Y-85900500D01*
X172297720Y-85885967D01*
X172380581Y-85830602D01*
X172435946Y-85747741D01*
X172450480Y-85674675D01*
X172450480Y-85524500D01*
X172453030Y-85515814D01*
X172451742Y-85506853D01*
X172462720Y-85482812D01*
X172470165Y-85457461D01*
X172477005Y-85451533D01*
X172480767Y-85443297D01*
X172503001Y-85429007D01*
X172522969Y-85411706D01*
X172533483Y-85409418D01*
X172539545Y-85405523D01*
X172574480Y-85400500D01*
X172770614Y-85400500D01*
X172837653Y-85420185D01*
X172858295Y-85436819D01*
X172861985Y-85440509D01*
X172861986Y-85440510D01*
X172861988Y-85440511D01*
X172987511Y-85512982D01*
X172987512Y-85512982D01*
X172987515Y-85512984D01*
X173127525Y-85550500D01*
X173127528Y-85550500D01*
X173272472Y-85550500D01*
X173272475Y-85550500D01*
X173412485Y-85512984D01*
X173538015Y-85440509D01*
X173640509Y-85338015D01*
X173712984Y-85212485D01*
X173750500Y-85072475D01*
X173750500Y-84927525D01*
X173712984Y-84787515D01*
X173709926Y-84782219D01*
X173640511Y-84661988D01*
X173640506Y-84661982D01*
X173538017Y-84559493D01*
X173538011Y-84559488D01*
X173412488Y-84487017D01*
X173412489Y-84487017D01*
X173377232Y-84477570D01*
X173272475Y-84449500D01*
X173127525Y-84449500D01*
X173022768Y-84477570D01*
X172987511Y-84487017D01*
X172861989Y-84559488D01*
X172861983Y-84559492D01*
X172858295Y-84563181D01*
X172831367Y-84577884D01*
X172805549Y-84594477D01*
X172799348Y-84595368D01*
X172796972Y-84596666D01*
X172770614Y-84599500D01*
X172574480Y-84599500D01*
X172507441Y-84579815D01*
X172461686Y-84527011D01*
X172450480Y-84475500D01*
X172450480Y-84325324D01*
X172450479Y-84325322D01*
X172435947Y-84252265D01*
X172435946Y-84252261D01*
X172380581Y-84169400D01*
X172297720Y-84114035D01*
X172297719Y-84114034D01*
X172297715Y-84114033D01*
X172224657Y-84099501D01*
X172224654Y-84099501D01*
X171898652Y-84099501D01*
X171831613Y-84079816D01*
X171785858Y-84027012D01*
X171775914Y-83957854D01*
X171791265Y-83913501D01*
X171809577Y-83881784D01*
X171850500Y-83729057D01*
X171850500Y-83570943D01*
X171809577Y-83418216D01*
X171797421Y-83397161D01*
X171730524Y-83281290D01*
X171730518Y-83281282D01*
X171618715Y-83169479D01*
X171592096Y-83154111D01*
X171560074Y-83135623D01*
X171511860Y-83085058D01*
X171498636Y-83016451D01*
X171524604Y-82951586D01*
X171534385Y-82940565D01*
X172515460Y-81959492D01*
X172555022Y-81890969D01*
X172575500Y-81814543D01*
X172575500Y-81735419D01*
X172575500Y-81349869D01*
X172595185Y-81282830D01*
X172647989Y-81237075D01*
X172717147Y-81227131D01*
X172717379Y-81227165D01*
X172723605Y-81228072D01*
X172723607Y-81228073D01*
X172791740Y-81238000D01*
X172791741Y-81238000D01*
X173058261Y-81238000D01*
X173080971Y-81234691D01*
X173126393Y-81228073D01*
X173195541Y-81194268D01*
X173264413Y-81182510D01*
X173304458Y-81194268D01*
X173373607Y-81228073D01*
X173407673Y-81233036D01*
X173441739Y-81238000D01*
X173441740Y-81238000D01*
X173708261Y-81238000D01*
X173730971Y-81234691D01*
X173776393Y-81228073D01*
X173845541Y-81194268D01*
X173914413Y-81182510D01*
X173954458Y-81194268D01*
X174023607Y-81228073D01*
X174057673Y-81233036D01*
X174091739Y-81238000D01*
X174091740Y-81238000D01*
X174358261Y-81238000D01*
X174380971Y-81234691D01*
X174426393Y-81228073D01*
X174495541Y-81194268D01*
X174564413Y-81182510D01*
X174604458Y-81194268D01*
X174673607Y-81228073D01*
X174707673Y-81233036D01*
X174741739Y-81238000D01*
X174741740Y-81238000D01*
X175008261Y-81238000D01*
X175030971Y-81234691D01*
X175076393Y-81228073D01*
X175181483Y-81176698D01*
X175264198Y-81093983D01*
X175315573Y-80988893D01*
X175325500Y-80920760D01*
X175325500Y-79579240D01*
X175324809Y-79574500D01*
X175315573Y-79511108D01*
X175315573Y-79511107D01*
X175264198Y-79406017D01*
X175264196Y-79406015D01*
X175264196Y-79406014D01*
X175181485Y-79323303D01*
X175076391Y-79271926D01*
X175008261Y-79262000D01*
X175008260Y-79262000D01*
X174741740Y-79262000D01*
X174741739Y-79262000D01*
X174673607Y-79271926D01*
X174673606Y-79271926D01*
X174604459Y-79305730D01*
X174535586Y-79317488D01*
X174495541Y-79305730D01*
X174426393Y-79271926D01*
X174358261Y-79262000D01*
X174358260Y-79262000D01*
X174091740Y-79262000D01*
X174035127Y-79270248D01*
X174024766Y-79271758D01*
X173955589Y-79261944D01*
X173915636Y-79233011D01*
X173906355Y-79222924D01*
X173895480Y-79204087D01*
X173820913Y-79129520D01*
X173820910Y-79129518D01*
X172918913Y-78227520D01*
X172873250Y-78201156D01*
X172827589Y-78174793D01*
X172776657Y-78161146D01*
X172725727Y-78147500D01*
X172725726Y-78147500D01*
X172366084Y-78147500D01*
X172299045Y-78127815D01*
X172278403Y-78111181D01*
X170679403Y-76512181D01*
X170645918Y-76450858D01*
X170650902Y-76381166D01*
X170692774Y-76325233D01*
X170758238Y-76300816D01*
X170767084Y-76300500D01*
X173527059Y-76300500D01*
X173527061Y-76300500D01*
X173603488Y-76280021D01*
X173672010Y-76240460D01*
X173727959Y-76184511D01*
X174256020Y-75656448D01*
X174317339Y-75622966D01*
X174387030Y-75627950D01*
X174419183Y-75645756D01*
X174472410Y-75686598D01*
X174472412Y-75686600D01*
X174618366Y-75747055D01*
X174618372Y-75747057D01*
X174674998Y-75754511D01*
X174675000Y-75754510D01*
X175075000Y-75754510D01*
X175075001Y-75754511D01*
X175131627Y-75747057D01*
X175131633Y-75747055D01*
X175277585Y-75686600D01*
X175402924Y-75590424D01*
X175499100Y-75465086D01*
X175559554Y-75319134D01*
X175559555Y-75319130D01*
X175574999Y-75201830D01*
X175575000Y-75201816D01*
X175575000Y-74725000D01*
X175075000Y-74725000D01*
X175075000Y-75754510D01*
X174675000Y-75754510D01*
X174675000Y-75207145D01*
X174675325Y-75198179D01*
X174675500Y-75195765D01*
X174675500Y-74325000D01*
X175075000Y-74325000D01*
X175574999Y-74325000D01*
X175574999Y-73848175D01*
X175559557Y-73730871D01*
X175559555Y-73730866D01*
X175499100Y-73584914D01*
X175402924Y-73459575D01*
X175277586Y-73363399D01*
X175131631Y-73302944D01*
X175075000Y-73295487D01*
X175075000Y-74325000D01*
X174675500Y-74325000D01*
X174675500Y-73854237D01*
X174675325Y-73851824D01*
X174675000Y-73842857D01*
X174675000Y-73295487D01*
X174618368Y-73302944D01*
X174472413Y-73363399D01*
X174347075Y-73459575D01*
X174324891Y-73488487D01*
X174324571Y-73488720D01*
X174324427Y-73489087D01*
X174296402Y-73509288D01*
X174268463Y-73529689D01*
X174267961Y-73529790D01*
X174267748Y-73529944D01*
X174264154Y-73530558D01*
X174233131Y-73536823D01*
X174229818Y-73537000D01*
X174091740Y-73537000D01*
X174023607Y-73546927D01*
X174021100Y-73548152D01*
X174006116Y-73548953D01*
X173977412Y-73542165D01*
X173948200Y-73538021D01*
X173943790Y-73534214D01*
X173938122Y-73532874D01*
X173917642Y-73511642D01*
X173895311Y-73492365D01*
X173893659Y-73486778D01*
X173889615Y-73482586D01*
X173883864Y-73453651D01*
X173875500Y-73425363D01*
X173875500Y-73159703D01*
X173875500Y-73159702D01*
X173865193Y-73121237D01*
X173855022Y-73083276D01*
X173815460Y-73014753D01*
X173362888Y-72562181D01*
X173329403Y-72500858D01*
X173334387Y-72431166D01*
X173376259Y-72375233D01*
X173441723Y-72350816D01*
X173450569Y-72350500D01*
X175124676Y-72350500D01*
X175124677Y-72350499D01*
X175197740Y-72335966D01*
X175280601Y-72280601D01*
X175335966Y-72197740D01*
X175350500Y-72124674D01*
X175350500Y-70175326D01*
X175350500Y-70175323D01*
X175350499Y-70175321D01*
X175335967Y-70102264D01*
X175335966Y-70102260D01*
X175307938Y-70060313D01*
X175280601Y-70019399D01*
X175197740Y-69964034D01*
X175197739Y-69964033D01*
X175197735Y-69964032D01*
X175124677Y-69949500D01*
X175124674Y-69949500D01*
X173375326Y-69949500D01*
X173375323Y-69949500D01*
X173302264Y-69964032D01*
X173302260Y-69964033D01*
X173219399Y-70019399D01*
X173164033Y-70102260D01*
X173164032Y-70102264D01*
X173149500Y-70175321D01*
X173149500Y-72049431D01*
X173129815Y-72116470D01*
X173077011Y-72162225D01*
X173007853Y-72172169D01*
X172944297Y-72143144D01*
X172937819Y-72137112D01*
X170686819Y-69886112D01*
X170653334Y-69824789D01*
X170650500Y-69798431D01*
X170650500Y-68350862D01*
X170670185Y-68283823D01*
X170686819Y-68263181D01*
X170700000Y-68250000D01*
X170700000Y-67939181D01*
X170719685Y-67872142D01*
X170720856Y-67870352D01*
X170735966Y-67847740D01*
X170750500Y-67774674D01*
X170750500Y-66625326D01*
X170750500Y-66625323D01*
X170735966Y-66552259D01*
X170720897Y-66529706D01*
X170700020Y-66463028D01*
X170700000Y-66460817D01*
X170700000Y-66150000D01*
X171000000Y-66150000D01*
X171000000Y-68250000D01*
X171047821Y-68250000D01*
X171047831Y-68249999D01*
X171086742Y-68245815D01*
X171106034Y-68245251D01*
X171206534Y-68250147D01*
X171236806Y-68260660D01*
X171267539Y-68269685D01*
X171269583Y-68272044D01*
X171272536Y-68273070D01*
X171292321Y-68298285D01*
X171313294Y-68322489D01*
X171314053Y-68325982D01*
X171315667Y-68328038D01*
X171316560Y-68337505D01*
X171324500Y-68374000D01*
X171324500Y-68419183D01*
X171358926Y-68547661D01*
X171360312Y-68552835D01*
X171360313Y-68552838D01*
X171429492Y-68672661D01*
X171429494Y-68672664D01*
X171429495Y-68672665D01*
X171527335Y-68770505D01*
X171527336Y-68770506D01*
X171527338Y-68770507D01*
X171535252Y-68775076D01*
X171647164Y-68839688D01*
X171780817Y-68875500D01*
X171780819Y-68875500D01*
X171919181Y-68875500D01*
X171919183Y-68875500D01*
X172052836Y-68839688D01*
X172172665Y-68770505D01*
X172270505Y-68672665D01*
X172339688Y-68552836D01*
X172375500Y-68419183D01*
X172375500Y-68280817D01*
X172339688Y-68147164D01*
X172275129Y-68035345D01*
X172258657Y-67967446D01*
X172281510Y-67901419D01*
X172336431Y-67858228D01*
X172394671Y-67849943D01*
X172400326Y-67850500D01*
X172949676Y-67850500D01*
X172949677Y-67850499D01*
X173022740Y-67835966D01*
X173105601Y-67780601D01*
X173160966Y-67697740D01*
X173175500Y-67624674D01*
X173175500Y-66625326D01*
X173175500Y-66625323D01*
X173175499Y-66625321D01*
X173160967Y-66552264D01*
X173160966Y-66552260D01*
X173137500Y-66517140D01*
X173105601Y-66469399D01*
X173022740Y-66414034D01*
X173022739Y-66414033D01*
X173022735Y-66414032D01*
X172949677Y-66399500D01*
X172949674Y-66399500D01*
X172412051Y-66399500D01*
X172345012Y-66379815D01*
X172299257Y-66327011D01*
X172289313Y-66257853D01*
X172304664Y-66213500D01*
X172324030Y-66179956D01*
X172339688Y-66152836D01*
X172375500Y-66019183D01*
X172375500Y-65880817D01*
X172339688Y-65747164D01*
X172271752Y-65629495D01*
X172270507Y-65627338D01*
X172270503Y-65627333D01*
X172172666Y-65529496D01*
X172172661Y-65529492D01*
X172052838Y-65460313D01*
X172052837Y-65460312D01*
X172052836Y-65460312D01*
X171919183Y-65424500D01*
X171780817Y-65424500D01*
X171647164Y-65460312D01*
X171647161Y-65460313D01*
X171527338Y-65529492D01*
X171527333Y-65529496D01*
X171429496Y-65627333D01*
X171429492Y-65627338D01*
X171360313Y-65747161D01*
X171360312Y-65747164D01*
X171324500Y-65880817D01*
X171324500Y-66026000D01*
X171322808Y-66031761D01*
X171323951Y-66037658D01*
X171313076Y-66064902D01*
X171304815Y-66093039D01*
X171300277Y-66096970D01*
X171298051Y-66102549D01*
X171274172Y-66119590D01*
X171252011Y-66138794D01*
X171244813Y-66140544D01*
X171241179Y-66143138D01*
X171218214Y-66147011D01*
X171206530Y-66149853D01*
X171106030Y-66154746D01*
X171103699Y-66154183D01*
X171086748Y-66154183D01*
X171047835Y-66150000D01*
X171000000Y-66150000D01*
X170700000Y-66150000D01*
X170652155Y-66150000D01*
X170592627Y-66156401D01*
X170592620Y-66156403D01*
X170457913Y-66206645D01*
X170457906Y-66206649D01*
X170342814Y-66292808D01*
X170342809Y-66292813D01*
X170300141Y-66349811D01*
X170274667Y-66368880D01*
X170250234Y-66389252D01*
X170246385Y-66390050D01*
X170244207Y-66391682D01*
X170216187Y-66398551D01*
X170208561Y-66399500D01*
X170175326Y-66399500D01*
X170119791Y-66410546D01*
X170115313Y-66411104D01*
X170106533Y-66409671D01*
X170075810Y-66409671D01*
X170024674Y-66399500D01*
X169675326Y-66399500D01*
X169624190Y-66409671D01*
X169575810Y-66409671D01*
X169524674Y-66399500D01*
X169175326Y-66399500D01*
X169124190Y-66409671D01*
X169090246Y-66411669D01*
X169082960Y-66411094D01*
X169024674Y-66399500D01*
X168936030Y-66399500D01*
X168931164Y-66399116D01*
X168902893Y-66388334D01*
X168873879Y-66379815D01*
X168870584Y-66376013D01*
X168865880Y-66374219D01*
X168847924Y-66349861D01*
X168828124Y-66327011D01*
X168827407Y-66322030D01*
X168824421Y-66317979D01*
X168822484Y-66287792D01*
X168818180Y-66257853D01*
X168820191Y-66252040D01*
X168819949Y-66248253D01*
X168824069Y-66240837D01*
X168833531Y-66213500D01*
X168839688Y-66202836D01*
X168875500Y-66069183D01*
X168875500Y-65930817D01*
X168839688Y-65797164D01*
X168770505Y-65677335D01*
X168672665Y-65579495D01*
X168672664Y-65579494D01*
X168672661Y-65579492D01*
X168552838Y-65510313D01*
X168552837Y-65510312D01*
X168552836Y-65510312D01*
X168419183Y-65474500D01*
X168280817Y-65474500D01*
X168147164Y-65510312D01*
X168147161Y-65510313D01*
X168027338Y-65579492D01*
X168027333Y-65579496D01*
X167929496Y-65677333D01*
X167929492Y-65677338D01*
X167860313Y-65797161D01*
X167860312Y-65797164D01*
X167824500Y-65930817D01*
X167824500Y-66026000D01*
X167822808Y-66031761D01*
X167823951Y-66037658D01*
X167813076Y-66064902D01*
X167804815Y-66093039D01*
X167800277Y-66096970D01*
X167798051Y-66102549D01*
X167774172Y-66119590D01*
X167752011Y-66138794D01*
X167744813Y-66140544D01*
X167741179Y-66143138D01*
X167718214Y-66147011D01*
X167706530Y-66149853D01*
X167606030Y-66154746D01*
X167603699Y-66154183D01*
X167586748Y-66154183D01*
X167547835Y-66150000D01*
X167500000Y-66150000D01*
X167500000Y-67050000D01*
X167726000Y-67050000D01*
X167734685Y-67052550D01*
X167743647Y-67051262D01*
X167767687Y-67062240D01*
X167793039Y-67069685D01*
X167798966Y-67076525D01*
X167807203Y-67080287D01*
X167821492Y-67102521D01*
X167838794Y-67122489D01*
X167841081Y-67133003D01*
X167844977Y-67139065D01*
X167850000Y-67174000D01*
X167850000Y-67207194D01*
X167892539Y-67219685D01*
X167938294Y-67272489D01*
X167949500Y-67324000D01*
X167949500Y-67774678D01*
X167964032Y-67847735D01*
X167964033Y-67847739D01*
X167964034Y-67847740D01*
X167979102Y-67870292D01*
X167999980Y-67936967D01*
X168000000Y-67939181D01*
X168000000Y-68255468D01*
X167980315Y-68322507D01*
X167963681Y-68343149D01*
X167879496Y-68427333D01*
X167879492Y-68427338D01*
X167810313Y-68547161D01*
X167810312Y-68547164D01*
X167774500Y-68680817D01*
X167774500Y-68819183D01*
X167783518Y-68852836D01*
X167810312Y-68952835D01*
X167810313Y-68952838D01*
X167879492Y-69072661D01*
X167879494Y-69072664D01*
X167879495Y-69072665D01*
X167977335Y-69170505D01*
X167977336Y-69170506D01*
X167977338Y-69170507D01*
X167998043Y-69182461D01*
X168097164Y-69239688D01*
X168230817Y-69275500D01*
X168230819Y-69275500D01*
X168369181Y-69275500D01*
X168369183Y-69275500D01*
X168393407Y-69269009D01*
X168463254Y-69270670D01*
X168521117Y-69309831D01*
X168548623Y-69374059D01*
X168549500Y-69388783D01*
X168549500Y-74324808D01*
X168569979Y-74401235D01*
X168579290Y-74417361D01*
X168579291Y-74417365D01*
X168579292Y-74417365D01*
X168609539Y-74469755D01*
X168609541Y-74469758D01*
X169557602Y-75417819D01*
X169591087Y-75479142D01*
X169586103Y-75548834D01*
X169544231Y-75604767D01*
X169478767Y-75629184D01*
X169469921Y-75629500D01*
X166685769Y-75629500D01*
X166618730Y-75609815D01*
X166572975Y-75557011D01*
X166563031Y-75487853D01*
X166582595Y-75436717D01*
X166602224Y-75407273D01*
X166832589Y-75061726D01*
X166870538Y-74970108D01*
X166870643Y-74870417D01*
X166832589Y-74778274D01*
X166332589Y-74028274D01*
X166300666Y-73989334D01*
X166217776Y-73933949D01*
X166217775Y-73933948D01*
X166217774Y-73933948D01*
X166217771Y-73933947D01*
X166120003Y-73914500D01*
X166120000Y-73914500D01*
X165120000Y-73914500D01*
X165119997Y-73914500D01*
X165022228Y-73933947D01*
X165022221Y-73933950D01*
X164939334Y-73989333D01*
X164877602Y-74081723D01*
X164823990Y-74126528D01*
X164754665Y-74135235D01*
X164691638Y-74105081D01*
X164654918Y-74045638D01*
X164650500Y-74012832D01*
X164650500Y-70960439D01*
X164643991Y-70936146D01*
X164630021Y-70884011D01*
X164623471Y-70872666D01*
X164590464Y-70815495D01*
X164590458Y-70815487D01*
X163186819Y-69411848D01*
X163153334Y-69350525D01*
X163150500Y-69324167D01*
X163150500Y-68124500D01*
X163170185Y-68057461D01*
X163222989Y-68011706D01*
X163274500Y-68000500D01*
X163524674Y-68000500D01*
X163575812Y-67990327D01*
X163577727Y-67990247D01*
X163578635Y-67989799D01*
X163586288Y-67989887D01*
X163613913Y-67988728D01*
X163619076Y-67989310D01*
X163675326Y-68000500D01*
X163718170Y-68000500D01*
X163725104Y-68001283D01*
X163751138Y-68012229D01*
X163778230Y-68020185D01*
X163782914Y-68025591D01*
X163789511Y-68028365D01*
X163805495Y-68051651D01*
X163823985Y-68072989D01*
X163825003Y-68080069D01*
X163829053Y-68085969D01*
X163829910Y-68114198D01*
X163833929Y-68142147D01*
X163830956Y-68148655D01*
X163831174Y-68155807D01*
X163816635Y-68180015D01*
X163804904Y-68205703D01*
X163797572Y-68211756D01*
X163795201Y-68215705D01*
X163789202Y-68218667D01*
X163783126Y-68223684D01*
X163783786Y-68224545D01*
X163777333Y-68229496D01*
X163679496Y-68327333D01*
X163679492Y-68327338D01*
X163610313Y-68447161D01*
X163610312Y-68447164D01*
X163574500Y-68580817D01*
X163574500Y-68719183D01*
X163606789Y-68839686D01*
X163610312Y-68852835D01*
X163610313Y-68852838D01*
X163679492Y-68972661D01*
X163679494Y-68972664D01*
X163679495Y-68972665D01*
X163777335Y-69070505D01*
X163777336Y-69070506D01*
X163777338Y-69070507D01*
X163810559Y-69089687D01*
X163897164Y-69139688D01*
X164030817Y-69175500D01*
X164030819Y-69175500D01*
X164169181Y-69175500D01*
X164169183Y-69175500D01*
X164302836Y-69139688D01*
X164413000Y-69076084D01*
X164480900Y-69059612D01*
X164536999Y-69076084D01*
X164647164Y-69139688D01*
X164780817Y-69175500D01*
X164780819Y-69175500D01*
X164919181Y-69175500D01*
X164919183Y-69175500D01*
X165052836Y-69139688D01*
X165163000Y-69076084D01*
X165230900Y-69059612D01*
X165286999Y-69076084D01*
X165397164Y-69139688D01*
X165530817Y-69175500D01*
X165530819Y-69175500D01*
X165669181Y-69175500D01*
X165669183Y-69175500D01*
X165802836Y-69139688D01*
X165922665Y-69070505D01*
X166020505Y-68972665D01*
X166089688Y-68852836D01*
X166125500Y-68719183D01*
X166125500Y-68580817D01*
X166089688Y-68447164D01*
X166040719Y-68362346D01*
X166020507Y-68327338D01*
X166020503Y-68327333D01*
X165922666Y-68229496D01*
X165916214Y-68224545D01*
X165917816Y-68222457D01*
X165905364Y-68209397D01*
X165882506Y-68188342D01*
X165881457Y-68184322D01*
X165878591Y-68181316D01*
X165872712Y-68150807D01*
X165864866Y-68120736D01*
X165866156Y-68116787D01*
X165865371Y-68112708D01*
X165876922Y-68083856D01*
X165886577Y-68054325D01*
X165889796Y-68051701D01*
X165891341Y-68047845D01*
X165916655Y-68029819D01*
X165940745Y-68010194D01*
X165945590Y-68009216D01*
X165948257Y-68007318D01*
X165974896Y-68001283D01*
X165981830Y-68000500D01*
X166024674Y-68000500D01*
X166080923Y-67989310D01*
X166086087Y-67988728D01*
X166095235Y-67990328D01*
X166124189Y-67990328D01*
X166175326Y-68000500D01*
X166200874Y-68000500D01*
X166267913Y-68020185D01*
X166300141Y-68050189D01*
X166342809Y-68107186D01*
X166342814Y-68107191D01*
X166457906Y-68193350D01*
X166457913Y-68193354D01*
X166592620Y-68243596D01*
X166592627Y-68243598D01*
X166652155Y-68249999D01*
X166652172Y-68250000D01*
X166700000Y-68250000D01*
X167000000Y-68250000D01*
X167047821Y-68250000D01*
X167047831Y-68249999D01*
X167086742Y-68245815D01*
X167113258Y-68245815D01*
X167152168Y-68249999D01*
X167152179Y-68250000D01*
X167200000Y-68250000D01*
X167500000Y-68250000D01*
X167547821Y-68250000D01*
X167547831Y-68249999D01*
X167586742Y-68245815D01*
X167613258Y-68245815D01*
X167652168Y-68249999D01*
X167652179Y-68250000D01*
X167700000Y-68250000D01*
X167700000Y-67350000D01*
X167500000Y-67350000D01*
X167500000Y-68250000D01*
X167200000Y-68250000D01*
X167200000Y-67350000D01*
X167000000Y-67350000D01*
X167000000Y-68250000D01*
X166700000Y-68250000D01*
X166700000Y-67939181D01*
X166719685Y-67872142D01*
X166720856Y-67870352D01*
X166735966Y-67847740D01*
X166750500Y-67774674D01*
X166750500Y-67050000D01*
X167000000Y-67050000D01*
X167200000Y-67050000D01*
X167200000Y-66150000D01*
X167152164Y-66150000D01*
X167113252Y-66154183D01*
X167086748Y-66154183D01*
X167047835Y-66150000D01*
X167000000Y-66150000D01*
X167000000Y-67050000D01*
X166750500Y-67050000D01*
X166750500Y-66625326D01*
X166750500Y-66625323D01*
X166735966Y-66552259D01*
X166720897Y-66529706D01*
X166700020Y-66463028D01*
X166700000Y-66460817D01*
X166700000Y-66150000D01*
X166652155Y-66150000D01*
X166592627Y-66156401D01*
X166592616Y-66156404D01*
X166542832Y-66174972D01*
X166473140Y-66179956D01*
X166411818Y-66146470D01*
X166378333Y-66085146D01*
X166375500Y-66058790D01*
X166375500Y-65930819D01*
X166375500Y-65930817D01*
X166339688Y-65797164D01*
X166270505Y-65677335D01*
X166172665Y-65579495D01*
X166172664Y-65579494D01*
X166172661Y-65579492D01*
X166052838Y-65510313D01*
X166052837Y-65510312D01*
X166052836Y-65510312D01*
X165919183Y-65474500D01*
X165780817Y-65474500D01*
X165647164Y-65510312D01*
X165647161Y-65510313D01*
X165527338Y-65579492D01*
X165527333Y-65579496D01*
X165429496Y-65677333D01*
X165429492Y-65677338D01*
X165360313Y-65797161D01*
X165360312Y-65797164D01*
X165324500Y-65930817D01*
X165324500Y-66069183D01*
X165360312Y-66202836D01*
X165366469Y-66213500D01*
X165366719Y-66214530D01*
X165367475Y-66215275D01*
X165374935Y-66248397D01*
X165382942Y-66281399D01*
X165382594Y-66282401D01*
X165382828Y-66283437D01*
X165371209Y-66315300D01*
X165360090Y-66347426D01*
X165359255Y-66348082D01*
X165358892Y-66349079D01*
X165331861Y-66369625D01*
X165305169Y-66390617D01*
X165303834Y-66390929D01*
X165303268Y-66391360D01*
X165297265Y-66392465D01*
X165268836Y-66399116D01*
X165263970Y-66399500D01*
X165175326Y-66399500D01*
X165117039Y-66411094D01*
X165109754Y-66411669D01*
X165100233Y-66409671D01*
X165075810Y-66409671D01*
X165024674Y-66399500D01*
X164675326Y-66399500D01*
X164624190Y-66409671D01*
X164575810Y-66409671D01*
X164524674Y-66399500D01*
X164175326Y-66399500D01*
X164124190Y-66409671D01*
X164075810Y-66409671D01*
X164024674Y-66399500D01*
X163675326Y-66399500D01*
X163624190Y-66409671D01*
X163575810Y-66409671D01*
X163524674Y-66399500D01*
X163175326Y-66399500D01*
X163124190Y-66409671D01*
X163075810Y-66409671D01*
X163024674Y-66399500D01*
X162675326Y-66399500D01*
X162624190Y-66409671D01*
X162575810Y-66409671D01*
X162524674Y-66399500D01*
X162175326Y-66399500D01*
X162124190Y-66409671D01*
X162075810Y-66409671D01*
X162024674Y-66399500D01*
X161675326Y-66399500D01*
X161624190Y-66409671D01*
X161575810Y-66409671D01*
X161524674Y-66399500D01*
X161175326Y-66399500D01*
X161124190Y-66409671D01*
X161075810Y-66409671D01*
X161024674Y-66399500D01*
X160675326Y-66399500D01*
X160624190Y-66409671D01*
X160575810Y-66409671D01*
X160524674Y-66399500D01*
X160175326Y-66399500D01*
X160124190Y-66409671D01*
X160075810Y-66409671D01*
X160024674Y-66399500D01*
X159675326Y-66399500D01*
X159624190Y-66409671D01*
X159575810Y-66409671D01*
X159524674Y-66399500D01*
X159175326Y-66399500D01*
X159124190Y-66409671D01*
X159075810Y-66409671D01*
X159024674Y-66399500D01*
X158675326Y-66399500D01*
X158624190Y-66409671D01*
X158575810Y-66409671D01*
X158524674Y-66399500D01*
X158175326Y-66399500D01*
X158124190Y-66409671D01*
X158075810Y-66409671D01*
X158024674Y-66399500D01*
X157675326Y-66399500D01*
X157624190Y-66409671D01*
X157575810Y-66409671D01*
X157524674Y-66399500D01*
X157175326Y-66399500D01*
X157124190Y-66409671D01*
X157075810Y-66409671D01*
X157024674Y-66399500D01*
X156675326Y-66399500D01*
X156624190Y-66409671D01*
X156575810Y-66409671D01*
X156524674Y-66399500D01*
X156175326Y-66399500D01*
X156124190Y-66409671D01*
X156075810Y-66409671D01*
X156024674Y-66399500D01*
X155675326Y-66399500D01*
X155624190Y-66409671D01*
X155624066Y-66409677D01*
X155624014Y-66409705D01*
X155623552Y-66409704D01*
X155588768Y-66411543D01*
X155582225Y-66410947D01*
X155524674Y-66399500D01*
X155456364Y-66399500D01*
X155450757Y-66398990D01*
X155423286Y-66388135D01*
X155394950Y-66379815D01*
X155391160Y-66375441D01*
X155385776Y-66373314D01*
X155368532Y-66349327D01*
X155349195Y-66327011D01*
X155348371Y-66321282D01*
X155344992Y-66316582D01*
X155343453Y-66287083D01*
X155339251Y-66257853D01*
X155341386Y-66247439D01*
X155341354Y-66246808D01*
X155341607Y-66246364D01*
X155342214Y-66243407D01*
X155375500Y-66119183D01*
X155375500Y-65980817D01*
X155339688Y-65847164D01*
X155281953Y-65747164D01*
X155270507Y-65727338D01*
X155270503Y-65727333D01*
X155172666Y-65629496D01*
X155172661Y-65629492D01*
X155052838Y-65560313D01*
X155052837Y-65560312D01*
X154967406Y-65537421D01*
X154907745Y-65501055D01*
X154877217Y-65438208D01*
X154875500Y-65417646D01*
X154875500Y-65330819D01*
X154875500Y-65330817D01*
X154839688Y-65197164D01*
X154770505Y-65077335D01*
X154755351Y-65062181D01*
X154721866Y-65000858D01*
X154726850Y-64931166D01*
X154768722Y-64875233D01*
X154834186Y-64850816D01*
X154843032Y-64850500D01*
X173810118Y-64850500D01*
X173846519Y-64850500D01*
X173853472Y-64850695D01*
X174156500Y-64867713D01*
X174170301Y-64869268D01*
X174466088Y-64919524D01*
X174479627Y-64922614D01*
X174767930Y-65005673D01*
X174781049Y-65010263D01*
X175058229Y-65125075D01*
X175070743Y-65131101D01*
X175333344Y-65276236D01*
X175345099Y-65283623D01*
X175589779Y-65457233D01*
X175600639Y-65465892D01*
X175824352Y-65665814D01*
X175834183Y-65675645D01*
X175942776Y-65797161D01*
X176034102Y-65899354D01*
X176042768Y-65910222D01*
X176216267Y-66154746D01*
X176216370Y-66154890D01*
X176223766Y-66166660D01*
X176358074Y-66409671D01*
X176368894Y-66429249D01*
X176374927Y-66441777D01*
X176489735Y-66718949D01*
X176494328Y-66732074D01*
X176577382Y-67020361D01*
X176580476Y-67033918D01*
X176630730Y-67329690D01*
X176632287Y-67343508D01*
X176649305Y-67646527D01*
X176649500Y-67653480D01*
X176649500Y-88046519D01*
X176649305Y-88053472D01*
X176632287Y-88356491D01*
X176630730Y-88370309D01*
X176580476Y-88666081D01*
X176577382Y-88679638D01*
X176494328Y-88967925D01*
X176489735Y-88981050D01*
X176374927Y-89258222D01*
X176368894Y-89270750D01*
X176223769Y-89533335D01*
X176216370Y-89545109D01*
X176042771Y-89789773D01*
X176034102Y-89800645D01*
X175834185Y-90024352D01*
X175824352Y-90034185D01*
X175600645Y-90234102D01*
X175589773Y-90242771D01*
X175345109Y-90416370D01*
X175333335Y-90423769D01*
X175070750Y-90568894D01*
X175058222Y-90574927D01*
X174781050Y-90689735D01*
X174767925Y-90694328D01*
X174479638Y-90777382D01*
X174466081Y-90780476D01*
X174170309Y-90830730D01*
X174156491Y-90832287D01*
X173853472Y-90849305D01*
X173846519Y-90849500D01*
X145353481Y-90849500D01*
X145346528Y-90849305D01*
X145043508Y-90832287D01*
X145029690Y-90830730D01*
X144733918Y-90780476D01*
X144720361Y-90777382D01*
X144432074Y-90694328D01*
X144418949Y-90689735D01*
X144141777Y-90574927D01*
X144129249Y-90568894D01*
X143866660Y-90423766D01*
X143854895Y-90416373D01*
X143610222Y-90242768D01*
X143599354Y-90234102D01*
X143375647Y-90034185D01*
X143365814Y-90024352D01*
X143165892Y-89800639D01*
X143157233Y-89789779D01*
X142983623Y-89545099D01*
X142976236Y-89533344D01*
X142831101Y-89270743D01*
X142825075Y-89258229D01*
X142710263Y-88981049D01*
X142705671Y-88967925D01*
X142622614Y-88679627D01*
X142619523Y-88666081D01*
X142615661Y-88643350D01*
X142569268Y-88370301D01*
X142567713Y-88356500D01*
X142550695Y-88053472D01*
X142550500Y-88046519D01*
X142550500Y-84325322D01*
X145849518Y-84325322D01*
X145849518Y-85674679D01*
X145864050Y-85747736D01*
X145864051Y-85747740D01*
X145864052Y-85747741D01*
X145919417Y-85830602D01*
X146002278Y-85885967D01*
X146002282Y-85885968D01*
X146075339Y-85900500D01*
X146075342Y-85900501D01*
X146075344Y-85900501D01*
X146575500Y-85900501D01*
X146584185Y-85903051D01*
X146593147Y-85901763D01*
X146617187Y-85912741D01*
X146642539Y-85920186D01*
X146648466Y-85927026D01*
X146656703Y-85930788D01*
X146670992Y-85953022D01*
X146688294Y-85972990D01*
X146690581Y-85983504D01*
X146694477Y-85989566D01*
X146699500Y-86024501D01*
X146699500Y-86109459D01*
X146682887Y-86171459D01*
X146610313Y-86297161D01*
X146610312Y-86297164D01*
X146574500Y-86430817D01*
X146574500Y-86569183D01*
X146603646Y-86677956D01*
X146610312Y-86702835D01*
X146610313Y-86702838D01*
X146679492Y-86822661D01*
X146679494Y-86822664D01*
X146679495Y-86822665D01*
X146777335Y-86920505D01*
X146777336Y-86920506D01*
X146777338Y-86920507D01*
X146811754Y-86940377D01*
X146897164Y-86989688D01*
X147030817Y-87025500D01*
X147030819Y-87025500D01*
X147169181Y-87025500D01*
X147169183Y-87025500D01*
X147302836Y-86989688D01*
X147422665Y-86920505D01*
X147520505Y-86822665D01*
X147589688Y-86702836D01*
X147625500Y-86569183D01*
X147625500Y-86430817D01*
X147589688Y-86297164D01*
X147550620Y-86229496D01*
X147517113Y-86171459D01*
X147512962Y-86155970D01*
X147505523Y-86144394D01*
X147500500Y-86109459D01*
X147500500Y-86024501D01*
X147520185Y-85957462D01*
X147572989Y-85911707D01*
X147624500Y-85900501D01*
X148124694Y-85900501D01*
X148124695Y-85900500D01*
X148197758Y-85885967D01*
X148280619Y-85830602D01*
X148335984Y-85747741D01*
X148350518Y-85674675D01*
X148350518Y-85524500D01*
X148353068Y-85515814D01*
X148351780Y-85506853D01*
X148362758Y-85482812D01*
X148370203Y-85457461D01*
X148377043Y-85451533D01*
X148380805Y-85443297D01*
X148403039Y-85429007D01*
X148423007Y-85411706D01*
X148433521Y-85409418D01*
X148439583Y-85405523D01*
X148474518Y-85400500D01*
X148559459Y-85400500D01*
X148621459Y-85417113D01*
X148666812Y-85443297D01*
X148747164Y-85489688D01*
X148880817Y-85525500D01*
X148880819Y-85525500D01*
X149019181Y-85525500D01*
X149019183Y-85525500D01*
X149152836Y-85489688D01*
X149272665Y-85420505D01*
X149370505Y-85322665D01*
X149439688Y-85202836D01*
X149475500Y-85069183D01*
X149475500Y-84930817D01*
X149439688Y-84797164D01*
X149370505Y-84677335D01*
X149272665Y-84579495D01*
X149272664Y-84579494D01*
X149272661Y-84579492D01*
X149152838Y-84510313D01*
X149152837Y-84510312D01*
X149152836Y-84510312D01*
X149019183Y-84474500D01*
X148880817Y-84474500D01*
X148747164Y-84510312D01*
X148747161Y-84510313D01*
X148621459Y-84582887D01*
X148605970Y-84587037D01*
X148594394Y-84594477D01*
X148559459Y-84599500D01*
X148474518Y-84599500D01*
X148407479Y-84579815D01*
X148361724Y-84527011D01*
X148350518Y-84475500D01*
X148350518Y-84325324D01*
X148350517Y-84325322D01*
X148335985Y-84252265D01*
X148335984Y-84252261D01*
X148280619Y-84169400D01*
X148197758Y-84114035D01*
X148197757Y-84114034D01*
X148197753Y-84114033D01*
X148124695Y-84099501D01*
X148124692Y-84099501D01*
X147633183Y-84099501D01*
X147566144Y-84079816D01*
X147520389Y-84027012D01*
X147510445Y-83957854D01*
X147525796Y-83913501D01*
X147544106Y-83881786D01*
X147589688Y-83802836D01*
X147625500Y-83669183D01*
X147625500Y-83530817D01*
X147589688Y-83397164D01*
X147555096Y-83337249D01*
X147520507Y-83277338D01*
X147520503Y-83277333D01*
X147422666Y-83179496D01*
X147422661Y-83179492D01*
X147302838Y-83110313D01*
X147302837Y-83110312D01*
X147302836Y-83110312D01*
X147169183Y-83074500D01*
X147030817Y-83074500D01*
X146897164Y-83110312D01*
X146897161Y-83110313D01*
X146777338Y-83179492D01*
X146777333Y-83179496D01*
X146679496Y-83277333D01*
X146679492Y-83277338D01*
X146610313Y-83397161D01*
X146610312Y-83397164D01*
X146574500Y-83530817D01*
X146574500Y-83669183D01*
X146593590Y-83740426D01*
X146610312Y-83802835D01*
X146610313Y-83802838D01*
X146674204Y-83913501D01*
X146690677Y-83981402D01*
X146667824Y-84047428D01*
X146612903Y-84090619D01*
X146566817Y-84099501D01*
X146075341Y-84099501D01*
X146002282Y-84114033D01*
X146002278Y-84114034D01*
X145919417Y-84169400D01*
X145864051Y-84252261D01*
X145864050Y-84252265D01*
X145849518Y-84325322D01*
X142550500Y-84325322D01*
X142550500Y-70175321D01*
X143849500Y-70175321D01*
X143849500Y-72124678D01*
X143864032Y-72197735D01*
X143864033Y-72197739D01*
X143864034Y-72197740D01*
X143919399Y-72280601D01*
X144002260Y-72335966D01*
X144002264Y-72335967D01*
X144075321Y-72350499D01*
X144075324Y-72350500D01*
X144075326Y-72350500D01*
X145824676Y-72350500D01*
X145824677Y-72350499D01*
X145897740Y-72335966D01*
X145980601Y-72280601D01*
X146035966Y-72197740D01*
X146050500Y-72124674D01*
X146050500Y-70175326D01*
X146050500Y-70175323D01*
X146050499Y-70175321D01*
X146035967Y-70102264D01*
X146035966Y-70102260D01*
X146007938Y-70060313D01*
X145980601Y-70019399D01*
X145897740Y-69964034D01*
X145897739Y-69964033D01*
X145897735Y-69964032D01*
X145824677Y-69949500D01*
X145824674Y-69949500D01*
X144075326Y-69949500D01*
X144075323Y-69949500D01*
X144002264Y-69964032D01*
X144002260Y-69964033D01*
X143919399Y-70019399D01*
X143864033Y-70102260D01*
X143864032Y-70102264D01*
X143849500Y-70175321D01*
X142550500Y-70175321D01*
X142550500Y-67653480D01*
X142550695Y-67646527D01*
X142552740Y-67610118D01*
X142567713Y-67343497D01*
X142569267Y-67329700D01*
X142619525Y-67033908D01*
X142622613Y-67020376D01*
X142705674Y-66732063D01*
X142710264Y-66718949D01*
X142749044Y-66625326D01*
X142749046Y-66625321D01*
X146024500Y-66625321D01*
X146024500Y-67624678D01*
X146039032Y-67697735D01*
X146039033Y-67697739D01*
X146039034Y-67697740D01*
X146094399Y-67780601D01*
X146177260Y-67835966D01*
X146177264Y-67835967D01*
X146250321Y-67850499D01*
X146250324Y-67850500D01*
X146250326Y-67850500D01*
X146799672Y-67850500D01*
X146799674Y-67850500D01*
X146799675Y-67850499D01*
X146805327Y-67849943D01*
X146873973Y-67862961D01*
X146924684Y-67911026D01*
X146941359Y-67978877D01*
X146924870Y-68035345D01*
X146860312Y-68147163D01*
X146860312Y-68147164D01*
X146824500Y-68280817D01*
X146824500Y-68419183D01*
X146858926Y-68547661D01*
X146860312Y-68552835D01*
X146860313Y-68552838D01*
X146929492Y-68672661D01*
X146929494Y-68672664D01*
X146929495Y-68672665D01*
X147027335Y-68770505D01*
X147027336Y-68770506D01*
X147027338Y-68770507D01*
X147035252Y-68775076D01*
X147147164Y-68839688D01*
X147280817Y-68875500D01*
X147280819Y-68875500D01*
X147419181Y-68875500D01*
X147419183Y-68875500D01*
X147552836Y-68839688D01*
X147672665Y-68770505D01*
X147770505Y-68672665D01*
X147839688Y-68552836D01*
X147875500Y-68419183D01*
X147875500Y-68374000D01*
X147877191Y-68368239D01*
X147876049Y-68362346D01*
X147886922Y-68335101D01*
X147895185Y-68306961D01*
X147899721Y-68303030D01*
X147901947Y-68297453D01*
X147925827Y-68280409D01*
X147947989Y-68261206D01*
X147955185Y-68259456D01*
X147958817Y-68256864D01*
X147981767Y-68252991D01*
X147993466Y-68250147D01*
X148093966Y-68245251D01*
X148096302Y-68245815D01*
X148113258Y-68245815D01*
X148152168Y-68249999D01*
X148152179Y-68250000D01*
X148200000Y-68250000D01*
X148500000Y-68250000D01*
X148547821Y-68250000D01*
X148547831Y-68249999D01*
X148586742Y-68245815D01*
X148613258Y-68245815D01*
X148652168Y-68249999D01*
X148652179Y-68250000D01*
X148700000Y-68250000D01*
X149000000Y-68250000D01*
X149047821Y-68250000D01*
X149047831Y-68249999D01*
X149086742Y-68245815D01*
X149113258Y-68245815D01*
X149152168Y-68249999D01*
X149152179Y-68250000D01*
X149200000Y-68250000D01*
X149500000Y-68250000D01*
X149547821Y-68250000D01*
X149547831Y-68249999D01*
X149586742Y-68245815D01*
X149613258Y-68245815D01*
X149652168Y-68249999D01*
X149652179Y-68250000D01*
X149700000Y-68250000D01*
X149700000Y-67350000D01*
X149500000Y-67350000D01*
X149500000Y-68250000D01*
X149200000Y-68250000D01*
X149200000Y-67350000D01*
X149000000Y-67350000D01*
X149000000Y-68250000D01*
X148700000Y-68250000D01*
X148700000Y-67350000D01*
X148500000Y-67350000D01*
X148500000Y-68250000D01*
X148200000Y-68250000D01*
X148200000Y-67350000D01*
X147974000Y-67350000D01*
X147906961Y-67330315D01*
X147861206Y-67277511D01*
X147850000Y-67226000D01*
X147850000Y-67174000D01*
X147869685Y-67106961D01*
X147922489Y-67061206D01*
X147974000Y-67050000D01*
X148200000Y-67050000D01*
X148500000Y-67050000D01*
X148700000Y-67050000D01*
X149000000Y-67050000D01*
X149200000Y-67050000D01*
X149200000Y-66190683D01*
X149500000Y-66190683D01*
X149500000Y-67050000D01*
X149700000Y-67050000D01*
X149700000Y-66150000D01*
X149652164Y-66150000D01*
X149624790Y-66152942D01*
X149500000Y-66190683D01*
X149200000Y-66190683D01*
X149200000Y-66150000D01*
X149152164Y-66150000D01*
X149113252Y-66154183D01*
X149086748Y-66154183D01*
X149047835Y-66150000D01*
X149000000Y-66150000D01*
X149000000Y-67050000D01*
X148700000Y-67050000D01*
X148700000Y-66150000D01*
X148652164Y-66150000D01*
X148613252Y-66154183D01*
X148586748Y-66154183D01*
X148547835Y-66150000D01*
X148500000Y-66150000D01*
X148500000Y-67050000D01*
X148200000Y-67050000D01*
X148200000Y-66150000D01*
X148152164Y-66150000D01*
X148113252Y-66154183D01*
X148093970Y-66154746D01*
X147993470Y-66149853D01*
X147963199Y-66139340D01*
X147932461Y-66130315D01*
X147930417Y-66127956D01*
X147927467Y-66126932D01*
X147907680Y-66101716D01*
X147886706Y-66077511D01*
X147885946Y-66074019D01*
X147884334Y-66071965D01*
X147883440Y-66062498D01*
X147875500Y-66026000D01*
X147875500Y-65980819D01*
X147875500Y-65980817D01*
X147839688Y-65847164D01*
X147781953Y-65747164D01*
X147770507Y-65727338D01*
X147770503Y-65727333D01*
X147672666Y-65629496D01*
X147672661Y-65629492D01*
X147552838Y-65560313D01*
X147552837Y-65560312D01*
X147552836Y-65560312D01*
X147419183Y-65524500D01*
X147280817Y-65524500D01*
X147147164Y-65560312D01*
X147147161Y-65560313D01*
X147027338Y-65629492D01*
X147027333Y-65629496D01*
X146929496Y-65727333D01*
X146929492Y-65727338D01*
X146860313Y-65847161D01*
X146860312Y-65847164D01*
X146824500Y-65980817D01*
X146824500Y-66119183D01*
X146857583Y-66242653D01*
X146857786Y-66243407D01*
X146856123Y-66313256D01*
X146816960Y-66371119D01*
X146752732Y-66398623D01*
X146738011Y-66399500D01*
X146250323Y-66399500D01*
X146177264Y-66414032D01*
X146177260Y-66414033D01*
X146094399Y-66469399D01*
X146039033Y-66552260D01*
X146039032Y-66552264D01*
X146024500Y-66625321D01*
X142749046Y-66625321D01*
X142825075Y-66441770D01*
X142831098Y-66429263D01*
X142976240Y-66166646D01*
X142983617Y-66154907D01*
X143157239Y-65910211D01*
X143165885Y-65899368D01*
X143365824Y-65675636D01*
X143375636Y-65665824D01*
X143599368Y-65465885D01*
X143610211Y-65457239D01*
X143854907Y-65283617D01*
X143866646Y-65276240D01*
X144129263Y-65131098D01*
X144141762Y-65125078D01*
X144418956Y-65010261D01*
X144432063Y-65005674D01*
X144720376Y-64922613D01*
X144733908Y-64919525D01*
X145029700Y-64869267D01*
X145043497Y-64867713D01*
X145346528Y-64850695D01*
X145353481Y-64850500D01*
X145389882Y-64850500D01*
X153856968Y-64850500D01*
X153924007Y-64870185D01*
G37*
%TD.AperFunction*%
%TA.AperFunction,Conductor*%
G36*
X165633334Y-77114359D02*
G01*
X165677681Y-77142860D01*
X165737897Y-77203076D01*
X165737900Y-77203078D01*
X165824906Y-77245612D01*
X165853482Y-77259582D01*
X165928418Y-77270500D01*
X165928423Y-77270500D01*
X166271577Y-77270500D01*
X166271582Y-77270500D01*
X166346518Y-77259582D01*
X166351039Y-77257372D01*
X166419912Y-77245612D01*
X166484209Y-77272955D01*
X166523517Y-77330719D01*
X166529500Y-77368772D01*
X166529500Y-77471582D01*
X166540418Y-77546518D01*
X166540418Y-77546519D01*
X166540419Y-77546521D01*
X166596921Y-77662099D01*
X166596922Y-77662101D01*
X166613179Y-77678357D01*
X166627885Y-77705288D01*
X166644477Y-77731105D01*
X166645368Y-77737302D01*
X166646666Y-77739679D01*
X166649500Y-77766040D01*
X166649500Y-77920500D01*
X166629815Y-77987539D01*
X166577011Y-78033294D01*
X166525500Y-78044500D01*
X166500000Y-78044500D01*
X166459913Y-78048469D01*
X166449891Y-78049462D01*
X166449889Y-78049462D01*
X166357830Y-78087707D01*
X166287410Y-78158274D01*
X166287409Y-78158275D01*
X165787413Y-78908271D01*
X165787411Y-78908274D01*
X165749462Y-78999890D01*
X165749462Y-78999893D01*
X165749356Y-79099583D01*
X165749357Y-79099585D01*
X165787409Y-79191721D01*
X165787413Y-79191729D01*
X166287406Y-79941719D01*
X166287417Y-79941734D01*
X166319333Y-79980665D01*
X166319334Y-79980666D01*
X166402224Y-80036051D01*
X166402226Y-80036051D01*
X166402228Y-80036052D01*
X166499995Y-80055499D01*
X166499998Y-80055500D01*
X166500000Y-80055500D01*
X167500002Y-80055500D01*
X167500003Y-80055499D01*
X167597776Y-80036051D01*
X167680666Y-79980666D01*
X167736051Y-79897776D01*
X167755500Y-79800000D01*
X167755500Y-79574500D01*
X167775185Y-79507461D01*
X167827989Y-79461706D01*
X167879500Y-79450500D01*
X169750518Y-79450500D01*
X169817557Y-79470185D01*
X169863312Y-79522989D01*
X169872661Y-79574753D01*
X169874500Y-79574753D01*
X169874500Y-80920760D01*
X169884426Y-80988891D01*
X169935803Y-81093985D01*
X170018514Y-81176696D01*
X170018515Y-81176696D01*
X170018517Y-81176698D01*
X170123607Y-81228073D01*
X170157673Y-81233036D01*
X170191739Y-81238000D01*
X170191740Y-81238000D01*
X170458259Y-81238000D01*
X170458260Y-81238000D01*
X170526393Y-81228073D01*
X170526394Y-81228072D01*
X170532621Y-81227165D01*
X170601798Y-81236978D01*
X170654689Y-81282633D01*
X170674500Y-81349635D01*
X170674500Y-82474884D01*
X170654815Y-82541923D01*
X170638181Y-82562565D01*
X169259541Y-83941204D01*
X169259535Y-83941212D01*
X169219982Y-84009721D01*
X169219979Y-84009726D01*
X169199500Y-84086156D01*
X169199500Y-86825500D01*
X169179815Y-86892539D01*
X169127011Y-86938294D01*
X169075500Y-86949500D01*
X168725325Y-86949500D01*
X168674188Y-86959671D01*
X168671349Y-86959773D01*
X168669974Y-86960434D01*
X168658585Y-86960237D01*
X168634686Y-86961104D01*
X168630212Y-86960547D01*
X168574675Y-86949500D01*
X168541438Y-86949500D01*
X168533812Y-86948551D01*
X168508527Y-86937579D01*
X168482086Y-86929815D01*
X168474622Y-86922866D01*
X168469717Y-86920738D01*
X168465377Y-86914259D01*
X168449858Y-86899811D01*
X168407189Y-86842813D01*
X168407184Y-86842808D01*
X168292092Y-86756649D01*
X168292085Y-86756645D01*
X168157378Y-86706403D01*
X168157371Y-86706401D01*
X168097843Y-86700000D01*
X168049999Y-86700000D01*
X168049999Y-87010820D01*
X168030314Y-87077859D01*
X168029102Y-87079709D01*
X168014034Y-87102259D01*
X167999501Y-87175323D01*
X167999501Y-87576000D01*
X167996950Y-87584685D01*
X167998239Y-87593647D01*
X167987260Y-87617687D01*
X167979816Y-87643039D01*
X167972975Y-87648966D01*
X167969214Y-87657203D01*
X167946979Y-87671492D01*
X167927012Y-87688794D01*
X167916497Y-87691081D01*
X167910436Y-87694977D01*
X167875501Y-87700000D01*
X167873999Y-87700000D01*
X167806960Y-87680315D01*
X167761205Y-87627511D01*
X167749999Y-87576000D01*
X167749999Y-86700000D01*
X167702162Y-86700000D01*
X167663250Y-86704183D01*
X167643969Y-86704746D01*
X167543470Y-86699853D01*
X167513199Y-86689340D01*
X167482461Y-86680315D01*
X167480417Y-86677956D01*
X167477467Y-86676932D01*
X167457680Y-86651716D01*
X167436706Y-86627511D01*
X167435946Y-86624019D01*
X167434334Y-86621965D01*
X167433440Y-86612498D01*
X167428252Y-86588654D01*
X167426561Y-86588877D01*
X167425500Y-86580824D01*
X167425500Y-86580817D01*
X167389688Y-86447164D01*
X167355096Y-86387249D01*
X167320507Y-86327338D01*
X167320503Y-86327333D01*
X167222666Y-86229496D01*
X167222661Y-86229492D01*
X167102838Y-86160313D01*
X167102837Y-86160312D01*
X167102836Y-86160312D01*
X166969183Y-86124500D01*
X166830817Y-86124500D01*
X166697164Y-86160312D01*
X166697161Y-86160313D01*
X166577338Y-86229492D01*
X166577333Y-86229496D01*
X166479496Y-86327333D01*
X166479492Y-86327338D01*
X166410313Y-86447161D01*
X166410312Y-86447164D01*
X166374500Y-86580817D01*
X166374500Y-86719183D01*
X166394388Y-86793409D01*
X166393937Y-86812356D01*
X166398503Y-86830757D01*
X166393123Y-86846565D01*
X166392726Y-86863256D01*
X166382101Y-86878954D01*
X166375994Y-86896901D01*
X166362923Y-86907290D01*
X166353564Y-86921119D01*
X166336137Y-86928581D01*
X166321298Y-86940377D01*
X166297926Y-86944944D01*
X166289336Y-86948623D01*
X166287042Y-86948876D01*
X166280847Y-86949500D01*
X166225326Y-86949500D01*
X166168361Y-86960831D01*
X166162427Y-86961429D01*
X166153041Y-86959670D01*
X166125808Y-86959670D01*
X166074679Y-86949500D01*
X166074675Y-86949500D01*
X165725327Y-86949500D01*
X165725324Y-86949500D01*
X165674191Y-86959671D01*
X165625809Y-86959671D01*
X165574676Y-86949500D01*
X165574673Y-86949500D01*
X165324500Y-86949500D01*
X165257461Y-86929815D01*
X165211706Y-86877011D01*
X165200500Y-86825500D01*
X165200500Y-86625336D01*
X165197060Y-86612498D01*
X165180021Y-86548908D01*
X165173599Y-86537785D01*
X165140464Y-86480392D01*
X165140458Y-86480384D01*
X162436819Y-83776745D01*
X162403334Y-83715422D01*
X162400500Y-83689064D01*
X162400500Y-81182085D01*
X162420185Y-81115046D01*
X162472989Y-81069291D01*
X162542147Y-81059347D01*
X162556581Y-81062307D01*
X162605817Y-81075500D01*
X162605820Y-81075500D01*
X162744181Y-81075500D01*
X162744183Y-81075500D01*
X162877836Y-81039688D01*
X162997665Y-80970505D01*
X163095505Y-80872665D01*
X163164688Y-80752836D01*
X163200500Y-80619183D01*
X163200500Y-80500832D01*
X163220185Y-80433793D01*
X163236819Y-80413151D01*
X163849970Y-79800000D01*
X164590460Y-79059511D01*
X164630022Y-78990988D01*
X164650500Y-78914562D01*
X164650500Y-78835438D01*
X164650500Y-77368772D01*
X164670185Y-77301733D01*
X164722989Y-77255978D01*
X164792147Y-77246034D01*
X164828961Y-77257372D01*
X164833479Y-77259581D01*
X164833480Y-77259581D01*
X164833482Y-77259582D01*
X164908418Y-77270500D01*
X164908423Y-77270500D01*
X165251577Y-77270500D01*
X165251582Y-77270500D01*
X165326518Y-77259582D01*
X165385357Y-77230817D01*
X165442099Y-77203078D01*
X165442102Y-77203076D01*
X165502319Y-77142860D01*
X165563642Y-77109375D01*
X165633334Y-77114359D01*
G37*
%TD.AperFunction*%
%TD*%
M02*
