%TF.GenerationSoftware,KiCad,Pcbnew,10.0.3*%
%TF.CreationDate,2026-06-15T15:24:19-04:00*%
%TF.ProjectId,Cam-connector,43616d2d-636f-46e6-9e65-63746f722e6b,rev?*%
%TF.SameCoordinates,Original*%
%TF.FileFunction,Copper,L2,Bot*%
%TF.FilePolarity,Positive*%
%FSLAX46Y46*%
G04 Gerber Fmt 4.6, Leading zero omitted, Abs format (unit mm)*
G04 Created by KiCad (PCBNEW 10.0.3) date 2026-06-15 15:24:19*
%MOMM*%
%LPD*%
G01*
G04 APERTURE LIST*
%TA.AperFunction,ViaPad*%
%ADD10C,1.100000*%
%TD*%
%TA.AperFunction,Conductor*%
%ADD11C,0.200000*%
%TD*%
G04 APERTURE END LIST*
D10*
%TO.N,GND*%
X170575000Y-58575000D03*
X172400000Y-77550000D03*
X166825000Y-78400000D03*
X168925000Y-66750000D03*
X164900000Y-59000000D03*
%TO.N,/LCD_VSYNC*%
X146900000Y-61525000D03*
X151925000Y-80700000D03*
%TO.N,/HSYNC*%
X152500000Y-66600000D03*
X148000000Y-60650000D03*
%TO.N,/DOTCLK*%
X149213808Y-59928961D03*
X153750000Y-65750000D03*
%TO.N,/DE*%
X153975000Y-64125000D03*
X150417446Y-59291007D03*
%TO.N,/DB15*%
X161475021Y-87625983D03*
X144645586Y-82084439D03*
%TO.N,/DB14*%
X145945509Y-82098881D03*
X161975020Y-86272287D03*
%TO.N,/DB13*%
X147232513Y-82282255D03*
X162453455Y-84950000D03*
%TO.N,/DB12*%
X148484358Y-81931698D03*
X162975020Y-83421963D03*
%TO.N,/DB11*%
X149765102Y-81708758D03*
X163825000Y-81750000D03*
%TO.N,/DB4*%
X154075019Y-74830263D03*
X158386459Y-64588541D03*
%TO.N,/DB3*%
X154475019Y-76340269D03*
X159450000Y-65503718D03*
%TO.N,/DB2*%
X160231861Y-66542323D03*
X155300000Y-77528531D03*
%TO.N,/DB1*%
X161063647Y-67541392D03*
X155425001Y-82876584D03*
%TO.N,/DB0*%
X155731658Y-79235576D03*
X162100000Y-68350000D03*
%TO.N,/LCD_B0*%
X163075000Y-69225000D03*
X157925001Y-82842072D03*
%TO.N,/LCD_B1*%
X156025000Y-80504689D03*
X164025000Y-70125000D03*
%TO.N,/LCD_B2*%
X164925000Y-71150000D03*
X157088001Y-81253045D03*
%TD*%
%TO.N,GND*%
D11*
X168925000Y-66750000D02*
X168925000Y-63025000D01*
X164900000Y-59000000D02*
X170150000Y-59000000D01*
X172400000Y-77550000D02*
X172400000Y-77875000D01*
X171875000Y-78400000D02*
X166825000Y-78400000D01*
X168925000Y-63025000D02*
X164900000Y-59000000D01*
X172400000Y-77875000D02*
X171875000Y-78400000D01*
X168925000Y-66750000D02*
X172725000Y-70550000D01*
X170150000Y-59000000D02*
X170575000Y-58575000D01*
X172725000Y-70550000D02*
X172725000Y-77225000D01*
X172725000Y-77225000D02*
X172400000Y-77550000D01*
%TO.N,/LCD_VSYNC*%
X146900000Y-75675000D02*
X151925000Y-80700000D01*
X146900000Y-61525000D02*
X146900000Y-75675000D01*
%TO.N,/HSYNC*%
X152500000Y-66600000D02*
X148000000Y-62100000D01*
X148000000Y-62100000D02*
X148000000Y-60650000D01*
%TO.N,/DOTCLK*%
X153750000Y-65750000D02*
X149143757Y-61143757D01*
X149143757Y-59999012D02*
X149213808Y-59928961D01*
X149143757Y-61143757D02*
X149143757Y-59999012D01*
%TO.N,/DE*%
X150250000Y-60400000D02*
X150250000Y-59458453D01*
X150250000Y-59458453D02*
X150417446Y-59291007D01*
X153975000Y-64125000D02*
X150250000Y-60400000D01*
%TO.N,/DB15*%
X161475021Y-87625983D02*
X161351004Y-87750000D01*
X161351004Y-87750000D02*
X150896848Y-87750000D01*
X150896848Y-87750000D02*
X146125398Y-82978550D01*
X145539697Y-82978550D02*
X144645586Y-82084439D01*
X146125398Y-82978550D02*
X145539697Y-82978550D01*
%TO.N,/DB14*%
X161975020Y-86272287D02*
X161922307Y-86325000D01*
X161922307Y-86325000D02*
X150724365Y-86325000D01*
X145945509Y-82197333D02*
X145945509Y-82098881D01*
X146880431Y-83132255D02*
X145945509Y-82197333D01*
X147531620Y-83132255D02*
X146880431Y-83132255D01*
X150724365Y-86325000D02*
X147531620Y-83132255D01*
%TO.N,/DB13*%
X150665448Y-84950000D02*
X148497146Y-82781698D01*
X148497146Y-82781698D02*
X147731956Y-82781698D01*
X147731956Y-82781698D02*
X147232513Y-82282255D01*
X162453455Y-84950000D02*
X150665448Y-84950000D01*
%TO.N,/DB12*%
X159640686Y-83700000D02*
X158840686Y-84500000D01*
X158840686Y-84500000D02*
X151052660Y-84500000D01*
X162696983Y-83700000D02*
X159640686Y-83700000D01*
X151052660Y-84500000D02*
X148484358Y-81931698D01*
X162975020Y-83421963D02*
X162696983Y-83700000D01*
%TO.N,/DB11*%
X149765102Y-81892184D02*
X149765102Y-81708758D01*
X151897918Y-84025000D02*
X149765102Y-81892184D01*
X157944155Y-84025000D02*
X151897918Y-84025000D01*
X160219155Y-81750000D02*
X157944155Y-84025000D01*
X163825000Y-81750000D02*
X160219155Y-81750000D01*
%TO.N,/DB4*%
X158600000Y-70075000D02*
X154075019Y-74599981D01*
X158386459Y-64588541D02*
X158600000Y-64802082D01*
X158600000Y-64802082D02*
X158600000Y-70075000D01*
X154075019Y-74599981D02*
X154075019Y-74830263D01*
%TO.N,/DB3*%
X159325000Y-71050000D02*
X154475019Y-75899981D01*
X159450000Y-65503718D02*
X159325000Y-65628718D01*
X159325000Y-65628718D02*
X159325000Y-71050000D01*
X154475019Y-75899981D02*
X154475019Y-76340269D01*
%TO.N,/DB2*%
X155300000Y-77025000D02*
X155300000Y-77528531D01*
X160231861Y-66542323D02*
X160200000Y-66574184D01*
X160200000Y-72125000D02*
X155300000Y-77025000D01*
X160200000Y-66574184D02*
X160200000Y-72125000D01*
%TO.N,/DB1*%
X161250000Y-67727745D02*
X161250000Y-72425000D01*
X156150000Y-77525000D02*
X156150000Y-77880613D01*
X161063647Y-67541392D02*
X161250000Y-67727745D01*
X154475000Y-81926583D02*
X155425001Y-82876584D01*
X156150000Y-77880613D02*
X155649778Y-78380835D01*
X155649778Y-78380835D02*
X155294165Y-78380835D01*
X154475000Y-79200000D02*
X154475000Y-81926583D01*
X155294165Y-78380835D02*
X154475000Y-79200000D01*
X161250000Y-72425000D02*
X156150000Y-77525000D01*
%TO.N,/DB0*%
X162100000Y-68350000D02*
X162100000Y-72800000D01*
X155731658Y-79168342D02*
X155731658Y-79235576D01*
X162100000Y-72800000D02*
X155731658Y-79168342D01*
%TO.N,/LCD_B0*%
X165775000Y-70672918D02*
X165775000Y-73500000D01*
X165775000Y-73500000D02*
X157938001Y-81336999D01*
X164327082Y-69225000D02*
X165775000Y-70672918D01*
X157938001Y-81336999D02*
X157938001Y-82829072D01*
X157938001Y-82829072D02*
X157925001Y-82842072D01*
X163075000Y-69225000D02*
X164327082Y-69225000D01*
%TO.N,/LCD_B1*%
X164025000Y-70125000D02*
X164025000Y-72650000D01*
X156170311Y-80504689D02*
X156025000Y-80504689D01*
X164025000Y-72650000D02*
X156170311Y-80504689D01*
%TO.N,/LCD_B2*%
X164925000Y-71150000D02*
X164925000Y-73125000D01*
X157088001Y-80961999D02*
X157088001Y-81253045D01*
X164925000Y-73125000D02*
X157088001Y-80961999D01*
%TD*%
M02*
