%TF.GenerationSoftware,KiCad,Pcbnew,10.0.3*%
%TF.CreationDate,2026-07-01T10:14:15-04:00*%
%TF.ProjectId,Cam-connector,43616d2d-636f-46e6-9e65-63746f722e6b,rev?*%
%TF.SameCoordinates,Original*%
%TF.FileFunction,Copper,L1,Top*%
%TF.FilePolarity,Positive*%
%FSLAX46Y46*%
G04 Gerber Fmt 4.6, Leading zero omitted, Abs format (unit mm)*
G04 Created by KiCad (PCBNEW 10.0.3) date 2026-07-01 10:14:15*
%MOMM*%
%LPD*%
G01*
G04 APERTURE LIST*
%TA.AperFunction,SMDPad,CuDef*%
%ADD10R,0.300000X1.300000*%
%TD*%
%TA.AperFunction,SMDPad,CuDef*%
%ADD11R,1.800000X2.200000*%
%TD*%
%TA.AperFunction,ComponentPad*%
%ADD12R,1.700000X1.700000*%
%TD*%
%TA.AperFunction,ComponentPad*%
%ADD13C,1.700000*%
%TD*%
%TA.AperFunction,ViaPad*%
%ADD14C,0.600000*%
%TD*%
%TA.AperFunction,ViaPad*%
%ADD15C,0.508000*%
%TD*%
%TA.AperFunction,Conductor*%
%ADD16C,0.152400*%
%TD*%
%TA.AperFunction,Conductor*%
%ADD17C,0.300000*%
%TD*%
%TA.AperFunction,Conductor*%
%ADD18C,0.200000*%
%TD*%
G04 APERTURE END LIST*
D10*
%TO.P,J1,1,1_1*%
%TO.N,SYS_5V*%
X115270000Y-72440000D03*
%TO.P,J1,2,2_2*%
X115770000Y-72440000D03*
%TO.P,J1,3,3_3*%
%TO.N,SYS_3V3*%
X116270000Y-72440000D03*
%TO.P,J1,4,4_4*%
X116770000Y-72440000D03*
%TO.P,J1,5,5_5*%
%TO.N,GND*%
X117270000Y-72440000D03*
%TO.P,J1,6,6_6*%
%TO.N,/LCD_R0*%
X117770000Y-72440000D03*
%TO.P,J1,7,7_7*%
%TO.N,/LCD_R1*%
X118270000Y-72440000D03*
%TO.P,J1,8,8_8*%
%TO.N,/LCD_R2*%
X118770000Y-72440000D03*
%TO.P,J1,9,9_9*%
%TO.N,/DB13*%
X119270000Y-72440000D03*
%TO.P,J1,10,10_10*%
%TO.N,/DB14*%
X119770000Y-72440000D03*
%TO.P,J1,11,11_11*%
%TO.N,/DB15*%
X120270000Y-72440000D03*
%TO.P,J1,12,12_12*%
%TO.N,/DB16*%
X120770000Y-72440000D03*
%TO.P,J1,13,13_13*%
%TO.N,/DB17*%
X121270000Y-72440000D03*
%TO.P,J1,14,14_14*%
%TO.N,/LCD_G0*%
X121770000Y-72440000D03*
%TO.P,J1,15,15_15*%
%TO.N,/LCD_G1*%
X122270000Y-72440000D03*
%TO.P,J1,16,16_16*%
%TO.N,/DB6*%
X122770000Y-72440000D03*
%TO.P,J1,17,17_17*%
%TO.N,/DB7*%
X123270000Y-72440000D03*
%TO.P,J1,18,18_18*%
%TO.N,/DB8*%
X123770000Y-72440000D03*
%TO.P,J1,19,19_19*%
%TO.N,/DB9*%
X124270000Y-72440000D03*
%TO.P,J1,20,20_20*%
%TO.N,/DB10*%
X124770000Y-72440000D03*
%TO.P,J1,21,21_21*%
%TO.N,/DB11*%
X125270000Y-72440000D03*
%TO.P,J1,22,22_22*%
%TO.N,/LCD_B0*%
X125770000Y-72440000D03*
%TO.P,J1,23,23_23*%
%TO.N,/LCD_B1*%
X126270000Y-72440000D03*
%TO.P,J1,24,24_24*%
%TO.N,/LCD_B2*%
X126770000Y-72440000D03*
%TO.P,J1,25,25_25*%
%TO.N,/DB1*%
X127270000Y-72440000D03*
%TO.P,J1,26,26_26*%
%TO.N,/DB2*%
X127770000Y-72440000D03*
%TO.P,J1,27,27_27*%
%TO.N,/DB3*%
X128270000Y-72440000D03*
%TO.P,J1,28,28_28*%
%TO.N,/DB4*%
X128770000Y-72440000D03*
%TO.P,J1,29,29_29*%
%TO.N,/DB5*%
X129270000Y-72440000D03*
%TO.P,J1,30,30_30*%
%TO.N,/DOTCLK*%
X129770000Y-72440000D03*
%TO.P,J1,31,31_31*%
%TO.N,/HSYNC*%
X130270000Y-72440000D03*
%TO.P,J1,32,32_32*%
%TO.N,/LCD_VSYNC*%
X130770000Y-72440000D03*
%TO.P,J1,33,33_33*%
%TO.N,/DE*%
X131270000Y-72440000D03*
%TO.P,J1,34,34_34*%
%TO.N,/UHH IDK*%
X131770000Y-72440000D03*
%TO.P,J1,35,35_35*%
%TO.N,/LCD_BL*%
X132270000Y-72440000D03*
%TO.P,J1,36,36_36*%
%TO.N,GND*%
X132770000Y-72440000D03*
%TO.P,J1,37,37_37*%
%TO.N,/LCD_RST*%
X133270000Y-72440000D03*
%TO.P,J1,38,38_38*%
%TO.N,/LCD_INT*%
X133770000Y-72440000D03*
%TO.P,J1,39,39_39*%
%TO.N,/LCD_SDA*%
X134270000Y-72440000D03*
%TO.P,J1,40,40_40*%
%TO.N,/LCD_SCL*%
X134770000Y-72440000D03*
D11*
%TO.P,J1,MP*%
%TO.N,N/C*%
X113370000Y-75690000D03*
X136670000Y-75690000D03*
%TD*%
D10*
%TO.P,J2,1,1_1*%
%TO.N,GND*%
X137300000Y-66330000D03*
%TO.P,J2,2,2_2*%
%TO.N,SYS_3V3*%
X136800000Y-66330000D03*
%TO.P,J2,3,3_3*%
X136300000Y-66330000D03*
%TO.P,J2,4,4_4*%
X135800000Y-66330000D03*
%TO.P,J2,5,5_5*%
X135300000Y-66330000D03*
%TO.P,J2,6,6_6*%
%TO.N,GND*%
X134800000Y-66330000D03*
%TO.P,J2,7,7_7*%
%TO.N,SYS_3V3*%
X134300000Y-66330000D03*
%TO.P,J2,8,8_8*%
X133800000Y-66330000D03*
%TO.P,J2,9,9_9*%
%TO.N,GND*%
X133300000Y-66330000D03*
%TO.P,J2,10,10_10*%
%TO.N,/LCD_RST*%
X132800000Y-66330000D03*
%TO.P,J2,11,11_11*%
%TO.N,/LCD_VSYNC*%
X132300000Y-66330000D03*
%TO.P,J2,12,12_12*%
%TO.N,/HSYNC*%
X131800000Y-66330000D03*
%TO.P,J2,13,13_13*%
%TO.N,/DOTCLK*%
X131300000Y-66330000D03*
%TO.P,J2,14,14_14*%
%TO.N,/DE*%
X130800000Y-66330000D03*
%TO.P,J2,15,15_15*%
%TO.N,/DB17*%
X130300000Y-66330000D03*
%TO.P,J2,16,16_16*%
%TO.N,/DB16*%
X129800000Y-66330000D03*
%TO.P,J2,17,17_17*%
%TO.N,/DB15*%
X129300000Y-66330000D03*
%TO.P,J2,18,18_18*%
%TO.N,/DB14*%
X128800000Y-66330000D03*
%TO.P,J2,19,19_19*%
%TO.N,/DB13*%
X128300000Y-66330000D03*
%TO.P,J2,20,20_20*%
%TO.N,GND*%
X127800000Y-66330000D03*
%TO.P,J2,21,21_21*%
%TO.N,/DB11*%
X127300000Y-66330000D03*
%TO.P,J2,22,22_22*%
%TO.N,/DB10*%
X126800000Y-66330000D03*
%TO.P,J2,23,23_23*%
%TO.N,/DB9*%
X126300000Y-66330000D03*
%TO.P,J2,24,24_24*%
%TO.N,/DB8*%
X125800000Y-66330000D03*
%TO.P,J2,25,25_25*%
%TO.N,/DB7*%
X125300000Y-66330000D03*
%TO.P,J2,26,26_26*%
%TO.N,/DB6*%
X124800000Y-66330000D03*
%TO.P,J2,27,27_27*%
%TO.N,/DB5*%
X124300000Y-66330000D03*
%TO.P,J2,28,28_28*%
%TO.N,/DB4*%
X123800000Y-66330000D03*
%TO.P,J2,29,29_29*%
%TO.N,/DB3*%
X123300000Y-66330000D03*
%TO.P,J2,30,30_30*%
%TO.N,/DB2*%
X122800000Y-66330000D03*
%TO.P,J2,31,31_31*%
%TO.N,/DB1*%
X122300000Y-66330000D03*
%TO.P,J2,32,32_32*%
%TO.N,GND*%
X121800000Y-66330000D03*
%TO.P,J2,33,33_33*%
%TO.N,/SDO*%
X121300000Y-66330000D03*
%TO.P,J2,34,34_34*%
%TO.N,/MOSI*%
X120800000Y-66330000D03*
%TO.P,J2,35,35_35*%
%TO.N,/{slash}RD*%
X120300000Y-66330000D03*
%TO.P,J2,36,36_36*%
%TO.N,/LCD_R1*%
X119800000Y-66330000D03*
%TO.P,J2,37,37_37*%
%TO.N,/RS_SCL*%
X119300000Y-66330000D03*
%TO.P,J2,38,38_38*%
%TO.N,/LCD_R0*%
X118800000Y-66330000D03*
%TO.P,J2,39,39_39*%
%TO.N,/TE*%
X118300000Y-66330000D03*
%TO.P,J2,40,40_40*%
%TO.N,SYS_3V3*%
X117800000Y-66330000D03*
%TO.P,J2,41,41_41*%
X117300000Y-66330000D03*
%TO.P,J2,42,42_42*%
X116800000Y-66330000D03*
%TO.P,J2,43,43_43*%
%TO.N,GND*%
X116300000Y-66330000D03*
%TO.P,J2,44,44_44*%
%TO.N,/XR*%
X115800000Y-66330000D03*
%TO.P,J2,45,45_45*%
%TO.N,/YD*%
X115300000Y-66330000D03*
%TO.P,J2,46,46_46*%
%TO.N,/XL*%
X114800000Y-66330000D03*
%TO.P,J2,47,47_47*%
%TO.N,/YU*%
X114300000Y-66330000D03*
%TO.P,J2,48,48_48*%
%TO.N,SYS_3V3*%
X113800000Y-66330000D03*
%TO.P,J2,49,49_49*%
X113300000Y-66330000D03*
%TO.P,J2,50,50_50*%
%TO.N,GND*%
X112800000Y-66330000D03*
D11*
%TO.P,J2,MP*%
%TO.N,N/C*%
X139200000Y-63080000D03*
X110900000Y-63080000D03*
%TD*%
D12*
%TO.P,J3,1,Pin_1_1*%
%TO.N,/MOSI*%
X136285000Y-69290000D03*
D13*
%TO.P,J3,2,Pin_2_2*%
%TO.N,/RS_SCL*%
X138825000Y-69290000D03*
%TD*%
D14*
%TO.N,GND*%
X117250000Y-74250000D03*
D15*
%TO.N,/DB2*%
X126503043Y-69176283D03*
%TO.N,/DB3*%
X127009005Y-68681035D03*
%TO.N,/DB5*%
X128041837Y-67741655D03*
%TO.N,/DB4*%
X127445884Y-68123895D03*
%TO.N,/DB1*%
X126013227Y-69687506D03*
D14*
%TO.N,SYS_3V3*%
X132080000Y-60830000D03*
X132050000Y-62380000D03*
D15*
X117240000Y-64860000D03*
X134360400Y-65272649D03*
%TO.N,/XR*%
X118440000Y-64840000D03*
%TO.N,/YU*%
X118269993Y-63393623D03*
%TO.N,/XL*%
X118980091Y-63430091D03*
%TO.N,/YD*%
X119780000Y-63110000D03*
%TO.N,GND*%
X112820000Y-67750000D03*
X115660000Y-67870000D03*
X124940000Y-64999410D03*
X136230000Y-64830000D03*
X130320000Y-73780000D03*
X133300000Y-64770000D03*
%TO.N,/LCD_INT*%
X134167394Y-73967925D03*
%TO.N,/LCD_SDA*%
X134800000Y-73650000D03*
%TO.N,/LCD_SCL*%
X134406277Y-71156342D03*
%TO.N,/DB5*%
X124064971Y-67513625D03*
%TO.N,/DB1*%
X122205766Y-69396707D03*
%TO.N,/DB4*%
X123535000Y-67983090D03*
%TO.N,/DB16*%
X131805742Y-69782600D03*
X132960000Y-74920000D03*
%TO.N,/DB14*%
X131970200Y-75955012D03*
X130443229Y-70147465D03*
%TO.N,/DB3*%
X123058121Y-68520180D03*
%TO.N,/DB13*%
X129843696Y-70524064D03*
X131440000Y-76510000D03*
%TO.N,/DE*%
X130260000Y-64760000D03*
X133639800Y-67879027D03*
%TO.N,/DB2*%
X122375885Y-68709446D03*
%TO.N,/DB15*%
X132431060Y-75417540D03*
X131082531Y-69782598D03*
%TO.N,/DB17*%
X133490200Y-74370000D03*
X132321804Y-69111621D03*
%TD*%
%TO.N,/LCD_SCL*%
D16*
X134406277Y-71265812D02*
X134769998Y-71629533D01*
X134406277Y-71156342D02*
X134406277Y-71265812D01*
X134769998Y-71629533D02*
X134769998Y-72510000D01*
%TO.N,/LCD_SDA*%
X134269999Y-72510000D02*
X134269999Y-73279999D01*
X134680000Y-73530000D02*
X134800000Y-73650000D01*
X134269999Y-73279999D02*
X134520000Y-73530000D01*
X134520000Y-73530000D02*
X134680000Y-73530000D01*
%TO.N,/DB16*%
X131791604Y-69331238D02*
X131816450Y-69356084D01*
X131816450Y-69771892D02*
X131805742Y-69782600D01*
X129800000Y-67183976D02*
X131791604Y-69175580D01*
%TO.N,/DB17*%
X130300000Y-67160000D02*
X132251621Y-69111621D01*
X132251621Y-69111621D02*
X132321804Y-69111621D01*
X132312012Y-69121413D02*
X132321804Y-69111621D01*
X132181596Y-69121413D02*
X132312012Y-69121413D01*
%TO.N,/DB16*%
X131816450Y-69356084D02*
X131816450Y-69771892D01*
X131791604Y-69175580D02*
X131791604Y-69331238D01*
%TO.N,/DB17*%
X130300000Y-66300000D02*
X130300000Y-67160000D01*
%TO.N,/DB16*%
X129800000Y-66330000D02*
X129800000Y-67183976D01*
%TO.N,/DB14*%
X128800000Y-66300000D02*
X128800000Y-67250000D01*
X128800000Y-67250000D02*
X130443229Y-68893229D01*
X130443229Y-68893229D02*
X130443229Y-70147465D01*
%TO.N,/DB15*%
X129300000Y-66300000D02*
X129300000Y-67250000D01*
X131070000Y-69020000D02*
X131070000Y-69770067D01*
X129300000Y-67250000D02*
X131070000Y-69020000D01*
X131070000Y-69770067D02*
X131082531Y-69782598D01*
%TO.N,/DOTCLK*%
X131300000Y-67285781D02*
X131300000Y-66300000D01*
X130212800Y-71148279D02*
X130212800Y-71142095D01*
%TO.N,/DE*%
X131270000Y-71580000D02*
X131270000Y-72440000D01*
%TO.N,/HSYNC*%
X131188063Y-70665200D02*
X132176648Y-70665200D01*
%TO.N,/DOTCLK*%
X129769998Y-72510000D02*
X129769998Y-71591081D01*
%TO.N,/LCD_VSYNC*%
X130917600Y-71434032D02*
X130917600Y-71441631D01*
%TO.N,/DOTCLK*%
X133101800Y-69241680D02*
X133101800Y-69088997D01*
X129769998Y-71591081D02*
X130212800Y-71148279D01*
%TO.N,/HSYNC*%
X131800000Y-67287413D02*
X131800000Y-66300000D01*
%TO.N,/DOTCLK*%
X133101800Y-69088997D02*
X131594200Y-67581396D01*
%TO.N,/LCD_VSYNC*%
X133807600Y-69534032D02*
X132324032Y-71017600D01*
%TO.N,/HSYNC*%
X131946600Y-67434013D02*
X131800000Y-67287413D01*
%TO.N,/LCD_VSYNC*%
X130769999Y-71589232D02*
X130769999Y-72510000D01*
%TO.N,/DOTCLK*%
X131594200Y-67581396D02*
X131594199Y-67579981D01*
%TO.N,/HSYNC*%
X133454200Y-69387648D02*
X133454200Y-68943028D01*
X132176648Y-70665200D02*
X133454200Y-69387648D01*
%TO.N,/LCD_VSYNC*%
X132300000Y-67289044D02*
X133807600Y-68796644D01*
%TO.N,/DOTCLK*%
X131042097Y-70312798D02*
X132030680Y-70312800D01*
%TO.N,/HSYNC*%
X130270000Y-72510000D02*
X130270000Y-71589448D01*
X130565200Y-71288063D02*
X131188063Y-70665200D01*
X130270000Y-71589448D02*
X130565200Y-71294248D01*
%TO.N,/DOTCLK*%
X132030680Y-70312800D02*
X133101800Y-69241680D01*
%TO.N,/DE*%
X133639800Y-67879027D02*
X134160000Y-68399227D01*
%TO.N,/LCD_VSYNC*%
X131334032Y-71017600D02*
X130917600Y-71434032D01*
X132324032Y-71017600D02*
X131334032Y-71017600D01*
X133807600Y-68796644D02*
X133807600Y-69534032D01*
%TO.N,/HSYNC*%
X133454200Y-68943028D02*
X131946600Y-67435427D01*
%TO.N,/LCD_VSYNC*%
X132300000Y-66300000D02*
X132300000Y-67289044D01*
%TO.N,/HSYNC*%
X131946600Y-67435427D02*
X131946600Y-67434013D01*
X130565200Y-71294248D02*
X130565200Y-71288063D01*
%TO.N,/DOTCLK*%
X131594199Y-67579981D02*
X131300000Y-67285781D01*
%TO.N,/DE*%
X134160000Y-68399227D02*
X134160000Y-69680000D01*
%TO.N,/LCD_VSYNC*%
X130917600Y-71441631D02*
X130769999Y-71589232D01*
%TO.N,/DOTCLK*%
X130212800Y-71142095D02*
X131042097Y-70312798D01*
%TO.N,/DE*%
X134160000Y-69680000D02*
X132470000Y-71370000D01*
X132470000Y-71370000D02*
X131480000Y-71370000D01*
X131480000Y-71370000D02*
X131270000Y-71580000D01*
%TO.N,/DB13*%
X129899555Y-70468205D02*
X129843696Y-70524064D01*
X128300000Y-66330000D02*
X128300000Y-67250000D01*
X129899555Y-68849555D02*
X129899555Y-70468205D01*
X128300000Y-67250000D02*
X129899555Y-68849555D01*
%TO.N,GND*%
D17*
X117270000Y-72440000D02*
X117270000Y-74230000D01*
X117270000Y-74230000D02*
X117250000Y-74250000D01*
%TO.N,SYS_3V3*%
X136800000Y-66300000D02*
X135300000Y-66300000D01*
X135300000Y-65400000D02*
X135172649Y-65272649D01*
X135300000Y-66300000D02*
X135300000Y-65400000D01*
X133800000Y-65833049D02*
X134360400Y-65272649D01*
X133800000Y-66300000D02*
X133800000Y-65833049D01*
X134300000Y-66300000D02*
X133800000Y-66300000D01*
X135172649Y-65272649D02*
X134360400Y-65272649D01*
%TO.N,/LCD_R1*%
D16*
X118269998Y-72510000D02*
X118269998Y-68610002D01*
X119800000Y-67080000D02*
X119800000Y-66300000D01*
X118269998Y-68610002D02*
X119800000Y-67080000D01*
%TO.N,GND*%
D17*
X115660000Y-67870000D02*
X115790000Y-67870000D01*
X116300000Y-67360000D02*
X116300000Y-66300000D01*
X115790000Y-67870000D02*
X116300000Y-67360000D01*
%TO.N,SYS_3V3*%
X116800000Y-67537107D02*
X116800000Y-66300000D01*
X116769999Y-69700000D02*
X116769999Y-67567108D01*
X116800000Y-66300000D02*
X117800000Y-66300000D01*
X116769999Y-67567108D02*
X116800000Y-67537107D01*
%TO.N,/DB2*%
D16*
X122800000Y-66300000D02*
X122800000Y-67030000D01*
X122800000Y-67030000D02*
X122652400Y-67177600D01*
X122652400Y-68176084D02*
X122375885Y-68452599D01*
X122652400Y-67177600D02*
X122652400Y-68176084D01*
X122375885Y-68452599D02*
X122375885Y-68709446D01*
%TO.N,/DB10*%
X124769998Y-72510000D02*
X124769998Y-69551596D01*
X124769998Y-69551596D02*
X126800000Y-67521594D01*
X126800000Y-67521594D02*
X126800000Y-66300000D01*
%TO.N,/DB9*%
X124269999Y-72510000D02*
X124269999Y-69553227D01*
X126300000Y-67523225D02*
X126300000Y-66300000D01*
X124269999Y-69553227D02*
X126300000Y-67523225D01*
%TO.N,/DB8*%
X123770000Y-72510000D02*
X123770000Y-69554857D01*
X123770000Y-69554857D02*
X125800000Y-67524856D01*
X125800000Y-67524856D02*
X125800000Y-66300000D01*
%TO.N,/DB7*%
X123269998Y-72510000D02*
X123269998Y-69556490D01*
X123269998Y-69556490D02*
X125300000Y-67526487D01*
X125300000Y-67526487D02*
X125300000Y-66300000D01*
%TO.N,/DB3*%
X123300000Y-66300000D02*
X123300000Y-67028368D01*
%TO.N,/DB1*%
X122300000Y-68030116D02*
X121740000Y-68590116D01*
%TO.N,/DB6*%
X122769999Y-72510000D02*
X122769999Y-69558120D01*
%TO.N,/DB1*%
X121740000Y-68590116D02*
X121740000Y-68930941D01*
X121740000Y-68930941D02*
X122205766Y-69396707D01*
%TO.N,/DB3*%
X123300000Y-67028368D02*
X123004800Y-67323568D01*
X123004800Y-68466859D02*
X123058121Y-68520180D01*
%TO.N,/DB6*%
X124800000Y-67528118D02*
X124800000Y-66300000D01*
%TO.N,/DB1*%
X122300000Y-66300000D02*
X122300000Y-68030116D01*
%TO.N,/DB3*%
X123004800Y-67323568D02*
X123004800Y-68466859D01*
%TO.N,/DB6*%
X122769999Y-69558120D02*
X124800000Y-67528118D01*
%TO.N,/DB4*%
X123800000Y-66300000D02*
X123800000Y-67026736D01*
%TO.N,/DB11*%
X125270000Y-72510000D02*
X125270000Y-69549962D01*
%TO.N,/DB4*%
X123535000Y-67291736D02*
X123535000Y-67983090D01*
X123800000Y-67026736D02*
X123535000Y-67291736D01*
%TO.N,/DB5*%
X124300000Y-67356470D02*
X124142845Y-67513625D01*
X124300000Y-66300000D02*
X124300000Y-67356470D01*
X124142845Y-67513625D02*
X124064971Y-67513625D01*
%TO.N,/DB11*%
X125270000Y-69549962D02*
X127300000Y-67519962D01*
X127300000Y-67519962D02*
X127300000Y-66300000D01*
%TO.N,/DB3*%
X128269999Y-72510000D02*
X128269999Y-69942029D01*
%TO.N,/DB5*%
X129269999Y-72510000D02*
X129269999Y-68969817D01*
%TO.N,/DB1*%
X127269998Y-72510000D02*
X127269998Y-70944277D01*
X127269998Y-70944277D02*
X126013227Y-69687506D01*
%TO.N,/DB4*%
X128770000Y-72510000D02*
X128770000Y-69448011D01*
%TO.N,/DB2*%
X127770000Y-72510000D02*
X127770000Y-70443240D01*
X127770000Y-70443240D02*
X126503043Y-69176283D01*
%TO.N,/DB3*%
X128269999Y-69942029D02*
X127009005Y-68681035D01*
%TO.N,/DB5*%
X129269999Y-68969817D02*
X128041837Y-67741655D01*
%TO.N,/DB4*%
X128770000Y-69448011D02*
X127445884Y-68123895D01*
%TO.N,/DB13*%
X128300000Y-66300000D02*
X128300000Y-66900000D01*
%TO.N,GND*%
D17*
X127399410Y-64999410D02*
X124940000Y-64999410D01*
X127800000Y-65400000D02*
X127399410Y-64999410D01*
X127800000Y-66300000D02*
X127800000Y-65400000D01*
X122200590Y-64999410D02*
X124940000Y-64999410D01*
X121800000Y-65400000D02*
X122200590Y-64999410D01*
X121800000Y-66300000D02*
X121800000Y-65400000D01*
%TO.N,/YD*%
D16*
X115300000Y-66300000D02*
X115300000Y-65549232D01*
%TO.N,/YU*%
X116576632Y-63272600D02*
X118148970Y-63272600D01*
%TO.N,/YD*%
X115300000Y-65549232D02*
X116871832Y-63977400D01*
%TO.N,/XR*%
X117017800Y-64329800D02*
X117459617Y-64329800D01*
%TO.N,/YD*%
X117937985Y-64309800D02*
X118850200Y-64309800D01*
%TO.N,/XL*%
X118980091Y-63681541D02*
X118980091Y-63430091D01*
%TO.N,/XR*%
X115800000Y-65547600D02*
X117017800Y-64329800D01*
%TO.N,/YU*%
X114300000Y-65549232D02*
X116576632Y-63272600D01*
%TO.N,/XL*%
X118083953Y-63957400D02*
X118704232Y-63957400D01*
%TO.N,/YU*%
X118148970Y-63272600D02*
X118269993Y-63393623D01*
%TO.N,/XL*%
X114800000Y-65549231D02*
X116724231Y-63625000D01*
%TO.N,/YD*%
X116871832Y-63977400D02*
X117605585Y-63977400D01*
%TO.N,/XL*%
X114800000Y-66300000D02*
X114800000Y-65549231D01*
%TO.N,/YD*%
X119780000Y-63380000D02*
X119780000Y-63110000D01*
X118850200Y-64309800D02*
X119780000Y-63380000D01*
%TO.N,/YU*%
X114300000Y-66300000D02*
X114300000Y-65549232D01*
%TO.N,/XR*%
X117969817Y-64840000D02*
X118440000Y-64840000D01*
X117459617Y-64329800D02*
X117969817Y-64840000D01*
%TO.N,/YD*%
X117605585Y-63977400D02*
X117937985Y-64309800D01*
%TO.N,/XL*%
X118704232Y-63957400D02*
X118980091Y-63681541D01*
%TO.N,SYS_3V3*%
D17*
X117300000Y-66300000D02*
X117300000Y-65310000D01*
%TO.N,/XL*%
D16*
X117751553Y-63625000D02*
X118083953Y-63957400D01*
%TO.N,/XR*%
X115800000Y-66300000D02*
X115800000Y-65547600D01*
%TO.N,SYS_3V3*%
D17*
X117240000Y-65250000D02*
X117240000Y-64860000D01*
X117300000Y-65310000D02*
X117240000Y-65250000D01*
%TO.N,/XL*%
D16*
X116724231Y-63625000D02*
X117751553Y-63625000D01*
%TO.N,/MOSI*%
X120800000Y-66300000D02*
X120800000Y-65560000D01*
X122356200Y-64003800D02*
X136945432Y-64003800D01*
X136945432Y-64003800D02*
X137787600Y-64845968D01*
X137787600Y-64845968D02*
X137787600Y-68292400D01*
X120800000Y-65560000D02*
X122356200Y-64003800D01*
X137787600Y-68292400D02*
X137010000Y-69070000D01*
X137010000Y-69070000D02*
X136285000Y-69070000D01*
%TO.N,/RS_SCL*%
X119300000Y-66300000D02*
X119300000Y-65597600D01*
X119300000Y-65597600D02*
X121246200Y-63651400D01*
X121246200Y-63651400D02*
X137091400Y-63651400D01*
X137091400Y-63651400D02*
X138140000Y-64700000D01*
X138140000Y-64700000D02*
X138140000Y-68385000D01*
X138140000Y-68385000D02*
X138825000Y-69070000D01*
%TO.N,SYS_3V3*%
D18*
X132050000Y-62380000D02*
X132050000Y-60860000D01*
X132050000Y-60860000D02*
X132080000Y-60830000D01*
D17*
X116270000Y-69670000D02*
X116270000Y-72510000D01*
X113300000Y-66700000D02*
X116270000Y-69670000D01*
X113300000Y-66300000D02*
X113300000Y-66700000D01*
X113300000Y-66300000D02*
X113800000Y-66300000D01*
X116739999Y-69670000D02*
X116769999Y-69700000D01*
X116769999Y-72510000D02*
X116769999Y-69700000D01*
X116270000Y-72510000D02*
X116769999Y-72510000D01*
X116270000Y-69670000D02*
X116739999Y-69670000D01*
%TO.N,GND*%
X137300000Y-67200000D02*
X137300000Y-66300000D01*
X136830000Y-67670000D02*
X137300000Y-67200000D01*
X135320000Y-67670000D02*
X136830000Y-67670000D01*
X135200000Y-64430000D02*
X135600000Y-64830000D01*
X132349998Y-73780000D02*
X132770000Y-73359998D01*
X130320000Y-73780000D02*
X132349998Y-73780000D01*
X134800000Y-67150000D02*
X135320000Y-67670000D01*
X133300000Y-64770000D02*
X133300000Y-64430000D01*
X136230000Y-64830000D02*
X136730000Y-64830000D01*
X133300000Y-64430000D02*
X135200000Y-64430000D01*
X132770000Y-73359998D02*
X132770000Y-72510000D01*
X135600000Y-64830000D02*
X136230000Y-64830000D01*
X136730000Y-64830000D02*
X137300000Y-65400000D01*
X134800000Y-66300000D02*
X134800000Y-67150000D01*
X112800000Y-67730000D02*
X112800000Y-66300000D01*
X133300000Y-66300000D02*
X133300000Y-64770000D01*
X137300000Y-65400000D02*
X137300000Y-66300000D01*
X112820000Y-67750000D02*
X112800000Y-67730000D01*
%TO.N,/LCD_INT*%
D16*
X133770000Y-73570531D02*
X134167394Y-73967925D01*
X133770000Y-72510000D02*
X133770000Y-73570531D01*
%TO.N,/LCD_RST*%
X133269999Y-71426182D02*
X133269999Y-72510000D01*
X134690000Y-70006181D02*
X133269999Y-71426182D01*
X133096427Y-67348827D02*
X134198827Y-67348827D01*
X134198827Y-67348827D02*
X134690000Y-67840000D01*
X132800000Y-66300000D02*
X132800000Y-67052400D01*
X132800000Y-67052400D02*
X133096427Y-67348827D01*
X134690000Y-67840000D02*
X134690000Y-70006181D01*
%TO.N,/DB16*%
X120769998Y-72510000D02*
X120769998Y-73163262D01*
X132208983Y-74889800D02*
X132211443Y-74887340D01*
X129800000Y-66300000D02*
X129800000Y-66904896D01*
X132927340Y-74887340D02*
X132960000Y-74920000D01*
X120769998Y-73163262D02*
X122496536Y-74889800D01*
X122496536Y-74889800D02*
X132208983Y-74889800D01*
X132211443Y-74887340D02*
X132927340Y-74887340D01*
%TO.N,/DB14*%
X119769998Y-72510000D02*
X119769998Y-73162400D01*
X122577598Y-75970000D02*
X131955212Y-75970000D01*
X131955212Y-75970000D02*
X131970200Y-75955012D01*
X119769998Y-73162400D02*
X122577598Y-75970000D01*
%TO.N,SYS_5V*%
D17*
X115269999Y-72510000D02*
X115769998Y-72510000D01*
%TO.N,/DB13*%
D16*
X122617599Y-76510000D02*
X131440000Y-76510000D01*
X119269999Y-72510000D02*
X119269999Y-73162400D01*
X119269999Y-73162400D02*
X122617599Y-76510000D01*
%TO.N,/DE*%
X130260000Y-64760000D02*
X130800000Y-65300000D01*
X130800000Y-65300000D02*
X130800000Y-66300000D01*
%TO.N,/DB15*%
X132428600Y-75420000D02*
X132431060Y-75417540D01*
X120269999Y-73162400D02*
X122527599Y-75420000D01*
X122527599Y-75420000D02*
X132428600Y-75420000D01*
X120269999Y-72510000D02*
X120269999Y-73162400D01*
%TO.N,/DB17*%
X122475104Y-74370000D02*
X133490200Y-74370000D01*
X121270000Y-73164896D02*
X122475104Y-74370000D01*
X121270000Y-72510000D02*
X121270000Y-73164896D01*
%TO.N,/LCD_R0*%
X118800000Y-67421632D02*
X117769999Y-68451633D01*
X118800000Y-66300000D02*
X118800000Y-67421632D01*
X117769999Y-68451633D02*
X117769999Y-72510000D01*
%TD*%
M02*
