M48
; DRILL file KiCad 10.0.3 date 2026-06-15T15:24:17
; FORMAT={-:-/ absolute / metric / decimal}
; #@! TF.CreationDate,2026-06-15T15:24:17-04:00
; #@! TF.GenerationSoftware,Kicad,Pcbnew,10.0.3
; #@! TF.FileFunction,Plated,1,2,PTH
FMAT,2
METRIC
; #@! TA.AperFunction,Plated,PTH,ViaDrill
T1C0.700
%
G90
G05
T1
X144.646Y-82.084
X145.946Y-82.099
X146.9Y-61.525
X147.233Y-82.282
X148.0Y-60.65
X148.484Y-81.932
X149.214Y-59.929
X149.765Y-81.709
X150.417Y-59.291
X151.925Y-80.7
X152.5Y-66.6
X153.75Y-65.75
X153.975Y-64.125
X154.075Y-74.83
X154.475Y-76.34
X155.3Y-77.529
X155.425Y-82.877
X155.732Y-79.236
X156.025Y-80.505
X157.088Y-81.253
X157.925Y-82.842
X158.386Y-64.589
X159.45Y-65.504
X160.232Y-66.542
X161.064Y-67.541
X161.475Y-87.626
X161.975Y-86.272
X162.1Y-68.35
X162.453Y-84.95
X162.975Y-83.422
X163.075Y-69.225
X163.825Y-81.75
X164.025Y-70.125
X164.9Y-59.0
X164.925Y-71.15
X166.825Y-78.4
X168.925Y-66.75
X170.575Y-58.575
X172.4Y-77.55
M30
