%TF.GenerationSoftware,KiCad,Pcbnew,10.0.3*%
%TF.CreationDate,2026-07-01T10:14:15-04:00*%
%TF.ProjectId,Cam-connector,43616d2d-636f-46e6-9e65-63746f722e6b,rev?*%
%TF.SameCoordinates,Original*%
%TF.FileFunction,Legend,Top*%
%TF.FilePolarity,Positive*%
%FSLAX46Y46*%
G04 Gerber Fmt 4.6, Leading zero omitted, Abs format (unit mm)*
G04 Created by KiCad (PCBNEW 10.0.3) date 2026-07-01 10:14:15*
%MOMM*%
%LPD*%
G01*
G04 APERTURE LIST*
%ADD10C,0.125000*%
%ADD11C,0.120000*%
G04 APERTURE END LIST*
D10*
X112195093Y-69601119D02*
X112433188Y-70601119D01*
X112433188Y-70601119D02*
X112623664Y-69886833D01*
X112623664Y-69886833D02*
X112814140Y-70601119D01*
X112814140Y-70601119D02*
X113052236Y-69601119D01*
X113433188Y-70601119D02*
X113433188Y-69934452D01*
X113433188Y-69601119D02*
X113385569Y-69648738D01*
X113385569Y-69648738D02*
X113433188Y-69696357D01*
X113433188Y-69696357D02*
X113480807Y-69648738D01*
X113480807Y-69648738D02*
X113433188Y-69601119D01*
X113433188Y-69601119D02*
X113433188Y-69696357D01*
X114052235Y-70601119D02*
X113956997Y-70553500D01*
X113956997Y-70553500D02*
X113909378Y-70505880D01*
X113909378Y-70505880D02*
X113861759Y-70410642D01*
X113861759Y-70410642D02*
X113861759Y-70124928D01*
X113861759Y-70124928D02*
X113909378Y-70029690D01*
X113909378Y-70029690D02*
X113956997Y-69982071D01*
X113956997Y-69982071D02*
X114052235Y-69934452D01*
X114052235Y-69934452D02*
X114195092Y-69934452D01*
X114195092Y-69934452D02*
X114290330Y-69982071D01*
X114290330Y-69982071D02*
X114337949Y-70029690D01*
X114337949Y-70029690D02*
X114385568Y-70124928D01*
X114385568Y-70124928D02*
X114385568Y-70410642D01*
X114385568Y-70410642D02*
X114337949Y-70505880D01*
X114337949Y-70505880D02*
X114290330Y-70553500D01*
X114290330Y-70553500D02*
X114195092Y-70601119D01*
X114195092Y-70601119D02*
X114052235Y-70601119D01*
X116052235Y-70601119D02*
X115576045Y-70601119D01*
X115576045Y-70601119D02*
X115576045Y-69601119D01*
X116385569Y-70601119D02*
X116385569Y-69934452D01*
X116385569Y-69601119D02*
X116337950Y-69648738D01*
X116337950Y-69648738D02*
X116385569Y-69696357D01*
X116385569Y-69696357D02*
X116433188Y-69648738D01*
X116433188Y-69648738D02*
X116385569Y-69601119D01*
X116385569Y-69601119D02*
X116385569Y-69696357D01*
X116718902Y-69934452D02*
X117099854Y-69934452D01*
X116861759Y-69601119D02*
X116861759Y-70458261D01*
X116861759Y-70458261D02*
X116909378Y-70553500D01*
X116909378Y-70553500D02*
X117004616Y-70601119D01*
X117004616Y-70601119D02*
X117099854Y-70601119D01*
X117814140Y-70553500D02*
X117718902Y-70601119D01*
X117718902Y-70601119D02*
X117528426Y-70601119D01*
X117528426Y-70601119D02*
X117433188Y-70553500D01*
X117433188Y-70553500D02*
X117385569Y-70458261D01*
X117385569Y-70458261D02*
X117385569Y-70077309D01*
X117385569Y-70077309D02*
X117433188Y-69982071D01*
X117433188Y-69982071D02*
X117528426Y-69934452D01*
X117528426Y-69934452D02*
X117718902Y-69934452D01*
X117718902Y-69934452D02*
X117814140Y-69982071D01*
X117814140Y-69982071D02*
X117861759Y-70077309D01*
X117861759Y-70077309D02*
X117861759Y-70172547D01*
X117861759Y-70172547D02*
X117385569Y-70267785D01*
X119004617Y-70315404D02*
X119480807Y-70315404D01*
X118909379Y-70601119D02*
X119242712Y-69601119D01*
X119242712Y-69601119D02*
X119576045Y-70601119D01*
X119909379Y-70601119D02*
X119909379Y-69934452D01*
X119909379Y-69601119D02*
X119861760Y-69648738D01*
X119861760Y-69648738D02*
X119909379Y-69696357D01*
X119909379Y-69696357D02*
X119956998Y-69648738D01*
X119956998Y-69648738D02*
X119909379Y-69601119D01*
X119909379Y-69601119D02*
X119909379Y-69696357D01*
X120592525Y-68858880D02*
X120021097Y-68858880D01*
X120306811Y-67858880D02*
X120306811Y-68858880D01*
X119544906Y-67858880D02*
X119640144Y-67906500D01*
X119640144Y-67906500D02*
X119687763Y-67954119D01*
X119687763Y-67954119D02*
X119735382Y-68049357D01*
X119735382Y-68049357D02*
X119735382Y-68335071D01*
X119735382Y-68335071D02*
X119687763Y-68430309D01*
X119687763Y-68430309D02*
X119640144Y-68477928D01*
X119640144Y-68477928D02*
X119544906Y-68525547D01*
X119544906Y-68525547D02*
X119402049Y-68525547D01*
X119402049Y-68525547D02*
X119306811Y-68477928D01*
X119306811Y-68477928D02*
X119259192Y-68430309D01*
X119259192Y-68430309D02*
X119211573Y-68335071D01*
X119211573Y-68335071D02*
X119211573Y-68049357D01*
X119211573Y-68049357D02*
X119259192Y-67954119D01*
X119259192Y-67954119D02*
X119306811Y-67906500D01*
X119306811Y-67906500D02*
X119402049Y-67858880D01*
X119402049Y-67858880D02*
X119544906Y-67858880D01*
X118354430Y-68525547D02*
X118354430Y-67858880D01*
X118783001Y-68525547D02*
X118783001Y-68001738D01*
X118783001Y-68001738D02*
X118735382Y-67906500D01*
X118735382Y-67906500D02*
X118640144Y-67858880D01*
X118640144Y-67858880D02*
X118497287Y-67858880D01*
X118497287Y-67858880D02*
X118402049Y-67906500D01*
X118402049Y-67906500D02*
X118354430Y-67954119D01*
X117449668Y-67906500D02*
X117544906Y-67858880D01*
X117544906Y-67858880D02*
X117735382Y-67858880D01*
X117735382Y-67858880D02*
X117830620Y-67906500D01*
X117830620Y-67906500D02*
X117878239Y-67954119D01*
X117878239Y-67954119D02*
X117925858Y-68049357D01*
X117925858Y-68049357D02*
X117925858Y-68335071D01*
X117925858Y-68335071D02*
X117878239Y-68430309D01*
X117878239Y-68430309D02*
X117830620Y-68477928D01*
X117830620Y-68477928D02*
X117735382Y-68525547D01*
X117735382Y-68525547D02*
X117544906Y-68525547D01*
X117544906Y-68525547D02*
X117449668Y-68477928D01*
X117021096Y-67858880D02*
X117021096Y-68858880D01*
X116592525Y-67858880D02*
X116592525Y-68382690D01*
X116592525Y-68382690D02*
X116640144Y-68477928D01*
X116640144Y-68477928D02*
X116735382Y-68525547D01*
X116735382Y-68525547D02*
X116878239Y-68525547D01*
X116878239Y-68525547D02*
X116973477Y-68477928D01*
X116973477Y-68477928D02*
X117021096Y-68430309D01*
X116163953Y-67906500D02*
X116068715Y-67858880D01*
X116068715Y-67858880D02*
X115878239Y-67858880D01*
X115878239Y-67858880D02*
X115783001Y-67906500D01*
X115783001Y-67906500D02*
X115735382Y-68001738D01*
X115735382Y-68001738D02*
X115735382Y-68049357D01*
X115735382Y-68049357D02*
X115783001Y-68144595D01*
X115783001Y-68144595D02*
X115878239Y-68192214D01*
X115878239Y-68192214D02*
X116021096Y-68192214D01*
X116021096Y-68192214D02*
X116116334Y-68239833D01*
X116116334Y-68239833D02*
X116163953Y-68335071D01*
X116163953Y-68335071D02*
X116163953Y-68382690D01*
X116163953Y-68382690D02*
X116116334Y-68477928D01*
X116116334Y-68477928D02*
X116021096Y-68525547D01*
X116021096Y-68525547D02*
X115878239Y-68525547D01*
X115878239Y-68525547D02*
X115783001Y-68477928D01*
X114878239Y-67906500D02*
X114973477Y-67858880D01*
X114973477Y-67858880D02*
X115163953Y-67858880D01*
X115163953Y-67858880D02*
X115259191Y-67906500D01*
X115259191Y-67906500D02*
X115306810Y-67954119D01*
X115306810Y-67954119D02*
X115354429Y-68049357D01*
X115354429Y-68049357D02*
X115354429Y-68335071D01*
X115354429Y-68335071D02*
X115306810Y-68430309D01*
X115306810Y-68430309D02*
X115259191Y-68477928D01*
X115259191Y-68477928D02*
X115163953Y-68525547D01*
X115163953Y-68525547D02*
X114973477Y-68525547D01*
X114973477Y-68525547D02*
X114878239Y-68477928D01*
X114449667Y-67858880D02*
X114449667Y-68525547D01*
X114449667Y-68335071D02*
X114402048Y-68430309D01*
X114402048Y-68430309D02*
X114354429Y-68477928D01*
X114354429Y-68477928D02*
X114259191Y-68525547D01*
X114259191Y-68525547D02*
X114163953Y-68525547D01*
X113449667Y-67906500D02*
X113544905Y-67858880D01*
X113544905Y-67858880D02*
X113735381Y-67858880D01*
X113735381Y-67858880D02*
X113830619Y-67906500D01*
X113830619Y-67906500D02*
X113878238Y-68001738D01*
X113878238Y-68001738D02*
X113878238Y-68382690D01*
X113878238Y-68382690D02*
X113830619Y-68477928D01*
X113830619Y-68477928D02*
X113735381Y-68525547D01*
X113735381Y-68525547D02*
X113544905Y-68525547D01*
X113544905Y-68525547D02*
X113449667Y-68477928D01*
X113449667Y-68477928D02*
X113402048Y-68382690D01*
X113402048Y-68382690D02*
X113402048Y-68287452D01*
X113402048Y-68287452D02*
X113878238Y-68192214D01*
X112592524Y-67906500D02*
X112687762Y-67858880D01*
X112687762Y-67858880D02*
X112878238Y-67858880D01*
X112878238Y-67858880D02*
X112973476Y-67906500D01*
X112973476Y-67906500D02*
X113021095Y-68001738D01*
X113021095Y-68001738D02*
X113021095Y-68382690D01*
X113021095Y-68382690D02*
X112973476Y-68477928D01*
X112973476Y-68477928D02*
X112878238Y-68525547D01*
X112878238Y-68525547D02*
X112687762Y-68525547D01*
X112687762Y-68525547D02*
X112592524Y-68477928D01*
X112592524Y-68477928D02*
X112544905Y-68382690D01*
X112544905Y-68382690D02*
X112544905Y-68287452D01*
X112544905Y-68287452D02*
X113021095Y-68192214D01*
X112116333Y-68525547D02*
X112116333Y-67858880D01*
X112116333Y-68430309D02*
X112068714Y-68477928D01*
X112068714Y-68477928D02*
X111973476Y-68525547D01*
X111973476Y-68525547D02*
X111830619Y-68525547D01*
X111830619Y-68525547D02*
X111735381Y-68477928D01*
X111735381Y-68477928D02*
X111687762Y-68382690D01*
X111687762Y-68382690D02*
X111687762Y-67858880D01*
X130970331Y-68651175D02*
X130970331Y-67651175D01*
X130970331Y-67651175D02*
X131303664Y-68365460D01*
X131303664Y-68365460D02*
X131636997Y-67651175D01*
X131636997Y-67651175D02*
X131636997Y-68651175D01*
X132303664Y-67651175D02*
X132494140Y-67651175D01*
X132494140Y-67651175D02*
X132589378Y-67698794D01*
X132589378Y-67698794D02*
X132684616Y-67794032D01*
X132684616Y-67794032D02*
X132732235Y-67984508D01*
X132732235Y-67984508D02*
X132732235Y-68317841D01*
X132732235Y-68317841D02*
X132684616Y-68508317D01*
X132684616Y-68508317D02*
X132589378Y-68603556D01*
X132589378Y-68603556D02*
X132494140Y-68651175D01*
X132494140Y-68651175D02*
X132303664Y-68651175D01*
X132303664Y-68651175D02*
X132208426Y-68603556D01*
X132208426Y-68603556D02*
X132113188Y-68508317D01*
X132113188Y-68508317D02*
X132065569Y-68317841D01*
X132065569Y-68317841D02*
X132065569Y-67984508D01*
X132065569Y-67984508D02*
X132113188Y-67794032D01*
X132113188Y-67794032D02*
X132208426Y-67698794D01*
X132208426Y-67698794D02*
X132303664Y-67651175D01*
X133113188Y-68603556D02*
X133256045Y-68651175D01*
X133256045Y-68651175D02*
X133494140Y-68651175D01*
X133494140Y-68651175D02*
X133589378Y-68603556D01*
X133589378Y-68603556D02*
X133636997Y-68555936D01*
X133636997Y-68555936D02*
X133684616Y-68460698D01*
X133684616Y-68460698D02*
X133684616Y-68365460D01*
X133684616Y-68365460D02*
X133636997Y-68270222D01*
X133636997Y-68270222D02*
X133589378Y-68222603D01*
X133589378Y-68222603D02*
X133494140Y-68174984D01*
X133494140Y-68174984D02*
X133303664Y-68127365D01*
X133303664Y-68127365D02*
X133208426Y-68079746D01*
X133208426Y-68079746D02*
X133160807Y-68032127D01*
X133160807Y-68032127D02*
X133113188Y-67936889D01*
X133113188Y-67936889D02*
X133113188Y-67841651D01*
X133113188Y-67841651D02*
X133160807Y-67746413D01*
X133160807Y-67746413D02*
X133208426Y-67698794D01*
X133208426Y-67698794D02*
X133303664Y-67651175D01*
X133303664Y-67651175D02*
X133541759Y-67651175D01*
X133541759Y-67651175D02*
X133684616Y-67698794D01*
X134113188Y-68651175D02*
X134113188Y-67651175D01*
X130922712Y-70213500D02*
X131065569Y-70261119D01*
X131065569Y-70261119D02*
X131303664Y-70261119D01*
X131303664Y-70261119D02*
X131398902Y-70213500D01*
X131398902Y-70213500D02*
X131446521Y-70165880D01*
X131446521Y-70165880D02*
X131494140Y-70070642D01*
X131494140Y-70070642D02*
X131494140Y-69975404D01*
X131494140Y-69975404D02*
X131446521Y-69880166D01*
X131446521Y-69880166D02*
X131398902Y-69832547D01*
X131398902Y-69832547D02*
X131303664Y-69784928D01*
X131303664Y-69784928D02*
X131113188Y-69737309D01*
X131113188Y-69737309D02*
X131017950Y-69689690D01*
X131017950Y-69689690D02*
X130970331Y-69642071D01*
X130970331Y-69642071D02*
X130922712Y-69546833D01*
X130922712Y-69546833D02*
X130922712Y-69451595D01*
X130922712Y-69451595D02*
X130970331Y-69356357D01*
X130970331Y-69356357D02*
X131017950Y-69308738D01*
X131017950Y-69308738D02*
X131113188Y-69261119D01*
X131113188Y-69261119D02*
X131351283Y-69261119D01*
X131351283Y-69261119D02*
X131494140Y-69308738D01*
X132494140Y-70165880D02*
X132446521Y-70213500D01*
X132446521Y-70213500D02*
X132303664Y-70261119D01*
X132303664Y-70261119D02*
X132208426Y-70261119D01*
X132208426Y-70261119D02*
X132065569Y-70213500D01*
X132065569Y-70213500D02*
X131970331Y-70118261D01*
X131970331Y-70118261D02*
X131922712Y-70023023D01*
X131922712Y-70023023D02*
X131875093Y-69832547D01*
X131875093Y-69832547D02*
X131875093Y-69689690D01*
X131875093Y-69689690D02*
X131922712Y-69499214D01*
X131922712Y-69499214D02*
X131970331Y-69403976D01*
X131970331Y-69403976D02*
X132065569Y-69308738D01*
X132065569Y-69308738D02*
X132208426Y-69261119D01*
X132208426Y-69261119D02*
X132303664Y-69261119D01*
X132303664Y-69261119D02*
X132446521Y-69308738D01*
X132446521Y-69308738D02*
X132494140Y-69356357D01*
X133398902Y-70261119D02*
X132922712Y-70261119D01*
X132922712Y-70261119D02*
X132922712Y-69261119D01*
X133732236Y-70261119D02*
X133732236Y-69261119D01*
X134303664Y-70261119D02*
X133875093Y-69689690D01*
X134303664Y-69261119D02*
X133732236Y-69832547D01*
%TO.C,J1*%
D11*
X113370000Y-72990000D02*
X113370000Y-74330000D01*
X113370000Y-77050000D02*
X113370000Y-78790000D01*
X113370000Y-78790000D02*
X136670000Y-78790000D01*
X114860000Y-72990000D02*
X113370000Y-72990000D01*
X114860000Y-72990000D02*
X114860000Y-71790000D01*
X135180000Y-72990000D02*
X136670000Y-72990000D01*
X136670000Y-72990000D02*
X136670000Y-74330000D01*
X136670000Y-78790000D02*
X136670000Y-77050000D01*
%TO.C,J2*%
X139200000Y-65780000D02*
X139200000Y-64440000D01*
X139200000Y-61720000D02*
X139200000Y-59980000D01*
X139200000Y-59980000D02*
X110900000Y-59980000D01*
X137710000Y-65780000D02*
X139200000Y-65780000D01*
X137710000Y-65780000D02*
X137710000Y-66980000D01*
X112390000Y-65780000D02*
X110900000Y-65780000D01*
X110900000Y-65780000D02*
X110900000Y-64440000D01*
X110900000Y-59980000D02*
X110900000Y-61720000D01*
%TO.C,J3*%
X134905000Y-70670000D02*
X134905000Y-69290000D01*
X136285000Y-70670000D02*
X134905000Y-70670000D01*
X137555000Y-67910000D02*
X140205000Y-67910000D01*
X137555000Y-70670000D02*
X137555000Y-67910000D01*
X137555000Y-70670000D02*
X140205000Y-70670000D01*
X140205000Y-70670000D02*
X140205000Y-67910000D01*
%TD*%
M02*
