%TF.GenerationSoftware,KiCad,Pcbnew,10.0.3*%
%TF.CreationDate,2026-06-11T15:40:50-04:00*%
%TF.ProjectId,Cam-connector,43616d2d-636f-46e6-9e65-63746f722e6b,rev?*%
%TF.SameCoordinates,Original*%
%TF.FileFunction,Soldermask,Top*%
%TF.FilePolarity,Negative*%
%FSLAX46Y46*%
G04 Gerber Fmt 4.6, Leading zero omitted, Abs format (unit mm)*
G04 Created by KiCad (PCBNEW 10.0.3) date 2026-06-11 15:40:50*
%MOMM*%
%LPD*%
G01*
G04 APERTURE LIST*
G04 Aperture macros list*
%AMRoundRect*
0 Rectangle with rounded corners*
0 $1 Rounding radius*
0 $2 $3 $4 $5 $6 $7 $8 $9 X,Y pos of 4 corners*
0 Add a 4 corners polygon primitive as box body*
4,1,4,$2,$3,$4,$5,$6,$7,$8,$9,$2,$3,0*
0 Add four circle primitives for the rounded corners*
1,1,$1+$1,$2,$3*
1,1,$1+$1,$4,$5*
1,1,$1+$1,$6,$7*
1,1,$1+$1,$8,$9*
0 Add four rect primitives between the rounded corners*
20,1,$1+$1,$2,$3,$4,$5,0*
20,1,$1+$1,$4,$5,$6,$7,0*
20,1,$1+$1,$6,$7,$8,$9,0*
20,1,$1+$1,$8,$9,$2,$3,0*%
%AMFreePoly0*
4,1,6,1.000000,0.000000,0.500000,-0.750000,-0.500000,-0.750000,-0.500000,0.750000,0.500000,0.750000,1.000000,0.000000,1.000000,0.000000,$1*%
%AMFreePoly1*
4,1,6,0.500000,-0.750000,-0.650000,-0.750000,-0.150000,0.000000,-0.650000,0.750000,0.500000,0.750000,0.500000,-0.750000,0.500000,-0.750000,$1*%
G04 Aperture macros list end*
%ADD10C,0.010000*%
%ADD11RoundRect,0.100000X-0.100000X0.637500X-0.100000X-0.637500X0.100000X-0.637500X0.100000X0.637500X0*%
%ADD12RoundRect,0.102000X-0.850000X-0.950000X0.850000X-0.950000X0.850000X0.950000X-0.850000X0.950000X0*%
%ADD13RoundRect,0.102000X-0.250000X-0.475000X0.250000X-0.475000X0.250000X0.475000X-0.250000X0.475000X0*%
%ADD14RoundRect,0.135000X-0.135000X-0.185000X0.135000X-0.185000X0.135000X0.185000X-0.135000X0.185000X0*%
%ADD15R,2.000000X1.300000*%
%ADD16R,0.300000X1.000000*%
%ADD17FreePoly0,180.000000*%
%ADD18FreePoly1,180.000000*%
%ADD19FreePoly0,0.000000*%
%ADD20FreePoly1,0.000000*%
G04 APERTURE END LIST*
D10*
%TO.C,J2*%
X171650000Y-66600000D02*
X172050000Y-66600000D01*
X172050000Y-67800000D01*
X171650000Y-67800000D01*
X171650000Y-66600000D01*
G36*
X172050000Y-67800000D02*
G01*
X171650000Y-67800000D01*
X171650000Y-66600000D01*
X172050000Y-66600000D01*
X172050000Y-67800000D01*
G37*
X171150000Y-66600000D02*
X171550000Y-66600000D01*
X171550000Y-67800000D01*
X171150000Y-67800000D01*
X171150000Y-66600000D01*
G36*
X171550000Y-67800000D02*
G01*
X171150000Y-67800000D01*
X171150000Y-66600000D01*
X171550000Y-66600000D01*
X171550000Y-67800000D01*
G37*
X170650000Y-66600000D02*
X171050000Y-66600000D01*
X171050000Y-67800000D01*
X170650000Y-67800000D01*
X170650000Y-66600000D01*
G36*
X171050000Y-67800000D02*
G01*
X170650000Y-67800000D01*
X170650000Y-66600000D01*
X171050000Y-66600000D01*
X171050000Y-67800000D01*
G37*
X170150000Y-66600000D02*
X170550000Y-66600000D01*
X170550000Y-67800000D01*
X170150000Y-67800000D01*
X170150000Y-66600000D01*
G36*
X170550000Y-67800000D02*
G01*
X170150000Y-67800000D01*
X170150000Y-66600000D01*
X170550000Y-66600000D01*
X170550000Y-67800000D01*
G37*
X169650000Y-66600000D02*
X170050000Y-66600000D01*
X170050000Y-67800000D01*
X169650000Y-67800000D01*
X169650000Y-66600000D01*
G36*
X170050000Y-67800000D02*
G01*
X169650000Y-67800000D01*
X169650000Y-66600000D01*
X170050000Y-66600000D01*
X170050000Y-67800000D01*
G37*
X169150000Y-66600000D02*
X169550000Y-66600000D01*
X169550000Y-67800000D01*
X169150000Y-67800000D01*
X169150000Y-66600000D01*
G36*
X169550000Y-67800000D02*
G01*
X169150000Y-67800000D01*
X169150000Y-66600000D01*
X169550000Y-66600000D01*
X169550000Y-67800000D01*
G37*
X168650000Y-66600000D02*
X169050000Y-66600000D01*
X169050000Y-67800000D01*
X168650000Y-67800000D01*
X168650000Y-66600000D01*
G36*
X169050000Y-67800000D02*
G01*
X168650000Y-67800000D01*
X168650000Y-66600000D01*
X169050000Y-66600000D01*
X169050000Y-67800000D01*
G37*
X168150000Y-66600000D02*
X168550000Y-66600000D01*
X168550000Y-67800000D01*
X168150000Y-67800000D01*
X168150000Y-66600000D01*
G36*
X168550000Y-67800000D02*
G01*
X168150000Y-67800000D01*
X168150000Y-66600000D01*
X168550000Y-66600000D01*
X168550000Y-67800000D01*
G37*
X167650000Y-66600000D02*
X168050000Y-66600000D01*
X168050000Y-67800000D01*
X167650000Y-67800000D01*
X167650000Y-66600000D01*
G36*
X168050000Y-67800000D02*
G01*
X167650000Y-67800000D01*
X167650000Y-66600000D01*
X168050000Y-66600000D01*
X168050000Y-67800000D01*
G37*
X167150000Y-66600000D02*
X167550000Y-66600000D01*
X167550000Y-67800000D01*
X167150000Y-67800000D01*
X167150000Y-66600000D01*
G36*
X167550000Y-67800000D02*
G01*
X167150000Y-67800000D01*
X167150000Y-66600000D01*
X167550000Y-66600000D01*
X167550000Y-67800000D01*
G37*
X166650000Y-66600000D02*
X167050000Y-66600000D01*
X167050000Y-67800000D01*
X166650000Y-67800000D01*
X166650000Y-66600000D01*
G36*
X167050000Y-67800000D02*
G01*
X166650000Y-67800000D01*
X166650000Y-66600000D01*
X167050000Y-66600000D01*
X167050000Y-67800000D01*
G37*
X166150000Y-66600000D02*
X166550000Y-66600000D01*
X166550000Y-67800000D01*
X166150000Y-67800000D01*
X166150000Y-66600000D01*
G36*
X166550000Y-67800000D02*
G01*
X166150000Y-67800000D01*
X166150000Y-66600000D01*
X166550000Y-66600000D01*
X166550000Y-67800000D01*
G37*
X165650000Y-66600000D02*
X166050000Y-66600000D01*
X166050000Y-67800000D01*
X165650000Y-67800000D01*
X165650000Y-66600000D01*
G36*
X166050000Y-67800000D02*
G01*
X165650000Y-67800000D01*
X165650000Y-66600000D01*
X166050000Y-66600000D01*
X166050000Y-67800000D01*
G37*
X165150000Y-66600000D02*
X165550000Y-66600000D01*
X165550000Y-67800000D01*
X165150000Y-67800000D01*
X165150000Y-66600000D01*
G36*
X165550000Y-67800000D02*
G01*
X165150000Y-67800000D01*
X165150000Y-66600000D01*
X165550000Y-66600000D01*
X165550000Y-67800000D01*
G37*
X164650000Y-66600000D02*
X165050000Y-66600000D01*
X165050000Y-67800000D01*
X164650000Y-67800000D01*
X164650000Y-66600000D01*
G36*
X165050000Y-67800000D02*
G01*
X164650000Y-67800000D01*
X164650000Y-66600000D01*
X165050000Y-66600000D01*
X165050000Y-67800000D01*
G37*
X164150000Y-66600000D02*
X164550000Y-66600000D01*
X164550000Y-67800000D01*
X164150000Y-67800000D01*
X164150000Y-66600000D01*
G36*
X164550000Y-67800000D02*
G01*
X164150000Y-67800000D01*
X164150000Y-66600000D01*
X164550000Y-66600000D01*
X164550000Y-67800000D01*
G37*
X163650000Y-66600000D02*
X164050000Y-66600000D01*
X164050000Y-67800000D01*
X163650000Y-67800000D01*
X163650000Y-66600000D01*
G36*
X164050000Y-67800000D02*
G01*
X163650000Y-67800000D01*
X163650000Y-66600000D01*
X164050000Y-66600000D01*
X164050000Y-67800000D01*
G37*
X163150000Y-66600000D02*
X163550000Y-66600000D01*
X163550000Y-67800000D01*
X163150000Y-67800000D01*
X163150000Y-66600000D01*
G36*
X163550000Y-67800000D02*
G01*
X163150000Y-67800000D01*
X163150000Y-66600000D01*
X163550000Y-66600000D01*
X163550000Y-67800000D01*
G37*
X162650000Y-66600000D02*
X163050000Y-66600000D01*
X163050000Y-67800000D01*
X162650000Y-67800000D01*
X162650000Y-66600000D01*
G36*
X163050000Y-67800000D02*
G01*
X162650000Y-67800000D01*
X162650000Y-66600000D01*
X163050000Y-66600000D01*
X163050000Y-67800000D01*
G37*
X162150000Y-66600000D02*
X162550000Y-66600000D01*
X162550000Y-67800000D01*
X162150000Y-67800000D01*
X162150000Y-66600000D01*
G36*
X162550000Y-67800000D02*
G01*
X162150000Y-67800000D01*
X162150000Y-66600000D01*
X162550000Y-66600000D01*
X162550000Y-67800000D01*
G37*
X161650000Y-66600000D02*
X162050000Y-66600000D01*
X162050000Y-67800000D01*
X161650000Y-67800000D01*
X161650000Y-66600000D01*
G36*
X162050000Y-67800000D02*
G01*
X161650000Y-67800000D01*
X161650000Y-66600000D01*
X162050000Y-66600000D01*
X162050000Y-67800000D01*
G37*
X161150000Y-66600000D02*
X161550000Y-66600000D01*
X161550000Y-67800000D01*
X161150000Y-67800000D01*
X161150000Y-66600000D01*
G36*
X161550000Y-67800000D02*
G01*
X161150000Y-67800000D01*
X161150000Y-66600000D01*
X161550000Y-66600000D01*
X161550000Y-67800000D01*
G37*
X160650000Y-66600000D02*
X161050000Y-66600000D01*
X161050000Y-67800000D01*
X160650000Y-67800000D01*
X160650000Y-66600000D01*
G36*
X161050000Y-67800000D02*
G01*
X160650000Y-67800000D01*
X160650000Y-66600000D01*
X161050000Y-66600000D01*
X161050000Y-67800000D01*
G37*
X160150000Y-66600000D02*
X160550000Y-66600000D01*
X160550000Y-67800000D01*
X160150000Y-67800000D01*
X160150000Y-66600000D01*
G36*
X160550000Y-67800000D02*
G01*
X160150000Y-67800000D01*
X160150000Y-66600000D01*
X160550000Y-66600000D01*
X160550000Y-67800000D01*
G37*
X159650000Y-66600000D02*
X160050000Y-66600000D01*
X160050000Y-67800000D01*
X159650000Y-67800000D01*
X159650000Y-66600000D01*
G36*
X160050000Y-67800000D02*
G01*
X159650000Y-67800000D01*
X159650000Y-66600000D01*
X160050000Y-66600000D01*
X160050000Y-67800000D01*
G37*
X159150000Y-66600000D02*
X159550000Y-66600000D01*
X159550000Y-67800000D01*
X159150000Y-67800000D01*
X159150000Y-66600000D01*
G36*
X159550000Y-67800000D02*
G01*
X159150000Y-67800000D01*
X159150000Y-66600000D01*
X159550000Y-66600000D01*
X159550000Y-67800000D01*
G37*
X158650000Y-66600000D02*
X159050000Y-66600000D01*
X159050000Y-67800000D01*
X158650000Y-67800000D01*
X158650000Y-66600000D01*
G36*
X159050000Y-67800000D02*
G01*
X158650000Y-67800000D01*
X158650000Y-66600000D01*
X159050000Y-66600000D01*
X159050000Y-67800000D01*
G37*
X158150000Y-66600000D02*
X158550000Y-66600000D01*
X158550000Y-67800000D01*
X158150000Y-67800000D01*
X158150000Y-66600000D01*
G36*
X158550000Y-67800000D02*
G01*
X158150000Y-67800000D01*
X158150000Y-66600000D01*
X158550000Y-66600000D01*
X158550000Y-67800000D01*
G37*
X157650000Y-66600000D02*
X158050000Y-66600000D01*
X158050000Y-67800000D01*
X157650000Y-67800000D01*
X157650000Y-66600000D01*
G36*
X158050000Y-67800000D02*
G01*
X157650000Y-67800000D01*
X157650000Y-66600000D01*
X158050000Y-66600000D01*
X158050000Y-67800000D01*
G37*
X157150000Y-66600000D02*
X157550000Y-66600000D01*
X157550000Y-67800000D01*
X157150000Y-67800000D01*
X157150000Y-66600000D01*
G36*
X157550000Y-67800000D02*
G01*
X157150000Y-67800000D01*
X157150000Y-66600000D01*
X157550000Y-66600000D01*
X157550000Y-67800000D01*
G37*
X156650000Y-66600000D02*
X157050000Y-66600000D01*
X157050000Y-67800000D01*
X156650000Y-67800000D01*
X156650000Y-66600000D01*
G36*
X157050000Y-67800000D02*
G01*
X156650000Y-67800000D01*
X156650000Y-66600000D01*
X157050000Y-66600000D01*
X157050000Y-67800000D01*
G37*
X156150000Y-66600000D02*
X156550000Y-66600000D01*
X156550000Y-67800000D01*
X156150000Y-67800000D01*
X156150000Y-66600000D01*
G36*
X156550000Y-67800000D02*
G01*
X156150000Y-67800000D01*
X156150000Y-66600000D01*
X156550000Y-66600000D01*
X156550000Y-67800000D01*
G37*
X155650000Y-66600000D02*
X156050000Y-66600000D01*
X156050000Y-67800000D01*
X155650000Y-67800000D01*
X155650000Y-66600000D01*
G36*
X156050000Y-67800000D02*
G01*
X155650000Y-67800000D01*
X155650000Y-66600000D01*
X156050000Y-66600000D01*
X156050000Y-67800000D01*
G37*
X155150000Y-66600000D02*
X155550000Y-66600000D01*
X155550000Y-67800000D01*
X155150000Y-67800000D01*
X155150000Y-66600000D01*
G36*
X155550000Y-67800000D02*
G01*
X155150000Y-67800000D01*
X155150000Y-66600000D01*
X155550000Y-66600000D01*
X155550000Y-67800000D01*
G37*
X154650000Y-66600000D02*
X155050000Y-66600000D01*
X155050000Y-67800000D01*
X154650000Y-67800000D01*
X154650000Y-66600000D01*
G36*
X155050000Y-67800000D02*
G01*
X154650000Y-67800000D01*
X154650000Y-66600000D01*
X155050000Y-66600000D01*
X155050000Y-67800000D01*
G37*
X154150000Y-66600000D02*
X154550000Y-66600000D01*
X154550000Y-67800000D01*
X154150000Y-67800000D01*
X154150000Y-66600000D01*
G36*
X154550000Y-67800000D02*
G01*
X154150000Y-67800000D01*
X154150000Y-66600000D01*
X154550000Y-66600000D01*
X154550000Y-67800000D01*
G37*
X153650000Y-66600000D02*
X154050000Y-66600000D01*
X154050000Y-67800000D01*
X153650000Y-67800000D01*
X153650000Y-66600000D01*
G36*
X154050000Y-67800000D02*
G01*
X153650000Y-67800000D01*
X153650000Y-66600000D01*
X154050000Y-66600000D01*
X154050000Y-67800000D01*
G37*
X153150000Y-66600000D02*
X153550000Y-66600000D01*
X153550000Y-67800000D01*
X153150000Y-67800000D01*
X153150000Y-66600000D01*
G36*
X153550000Y-67800000D02*
G01*
X153150000Y-67800000D01*
X153150000Y-66600000D01*
X153550000Y-66600000D01*
X153550000Y-67800000D01*
G37*
X152650000Y-66600000D02*
X153050000Y-66600000D01*
X153050000Y-67800000D01*
X152650000Y-67800000D01*
X152650000Y-66600000D01*
G36*
X153050000Y-67800000D02*
G01*
X152650000Y-67800000D01*
X152650000Y-66600000D01*
X153050000Y-66600000D01*
X153050000Y-67800000D01*
G37*
X152150000Y-66600000D02*
X152550000Y-66600000D01*
X152550000Y-67800000D01*
X152150000Y-67800000D01*
X152150000Y-66600000D01*
G36*
X152550000Y-67800000D02*
G01*
X152150000Y-67800000D01*
X152150000Y-66600000D01*
X152550000Y-66600000D01*
X152550000Y-67800000D01*
G37*
X151650000Y-66600000D02*
X152050000Y-66600000D01*
X152050000Y-67800000D01*
X151650000Y-67800000D01*
X151650000Y-66600000D01*
G36*
X152050000Y-67800000D02*
G01*
X151650000Y-67800000D01*
X151650000Y-66600000D01*
X152050000Y-66600000D01*
X152050000Y-67800000D01*
G37*
X151150000Y-66600000D02*
X151550000Y-66600000D01*
X151550000Y-67800000D01*
X151150000Y-67800000D01*
X151150000Y-66600000D01*
G36*
X151550000Y-67800000D02*
G01*
X151150000Y-67800000D01*
X151150000Y-66600000D01*
X151550000Y-66600000D01*
X151550000Y-67800000D01*
G37*
X150650000Y-66600000D02*
X151050000Y-66600000D01*
X151050000Y-67800000D01*
X150650000Y-67800000D01*
X150650000Y-66600000D01*
G36*
X151050000Y-67800000D02*
G01*
X150650000Y-67800000D01*
X150650000Y-66600000D01*
X151050000Y-66600000D01*
X151050000Y-67800000D01*
G37*
X150150000Y-66600000D02*
X150550000Y-66600000D01*
X150550000Y-67800000D01*
X150150000Y-67800000D01*
X150150000Y-66600000D01*
G36*
X150550000Y-67800000D02*
G01*
X150150000Y-67800000D01*
X150150000Y-66600000D01*
X150550000Y-66600000D01*
X150550000Y-67800000D01*
G37*
X149650000Y-66600000D02*
X150050000Y-66600000D01*
X150050000Y-67800000D01*
X149650000Y-67800000D01*
X149650000Y-66600000D01*
G36*
X150050000Y-67800000D02*
G01*
X149650000Y-67800000D01*
X149650000Y-66600000D01*
X150050000Y-66600000D01*
X150050000Y-67800000D01*
G37*
X149150000Y-66600000D02*
X149550000Y-66600000D01*
X149550000Y-67800000D01*
X149150000Y-67800000D01*
X149150000Y-66600000D01*
G36*
X149550000Y-67800000D02*
G01*
X149150000Y-67800000D01*
X149150000Y-66600000D01*
X149550000Y-66600000D01*
X149550000Y-67800000D01*
G37*
X148650000Y-66600000D02*
X149050000Y-66600000D01*
X149050000Y-67800000D01*
X148650000Y-67800000D01*
X148650000Y-66600000D01*
G36*
X149050000Y-67800000D02*
G01*
X148650000Y-67800000D01*
X148650000Y-66600000D01*
X149050000Y-66600000D01*
X149050000Y-67800000D01*
G37*
X148150000Y-66600000D02*
X148550000Y-66600000D01*
X148550000Y-67800000D01*
X148150000Y-67800000D01*
X148150000Y-66600000D01*
G36*
X148550000Y-67800000D02*
G01*
X148150000Y-67800000D01*
X148150000Y-66600000D01*
X148550000Y-66600000D01*
X148550000Y-67800000D01*
G37*
X147650000Y-66600000D02*
X148050000Y-66600000D01*
X148050000Y-67800000D01*
X147650000Y-67800000D01*
X147650000Y-66600000D01*
G36*
X148050000Y-67800000D02*
G01*
X147650000Y-67800000D01*
X147650000Y-66600000D01*
X148050000Y-66600000D01*
X148050000Y-67800000D01*
G37*
X147150000Y-66600000D02*
X147550000Y-66600000D01*
X147550000Y-67800000D01*
X147150000Y-67800000D01*
X147150000Y-66600000D01*
G36*
X147550000Y-67800000D02*
G01*
X147150000Y-67800000D01*
X147150000Y-66600000D01*
X147550000Y-66600000D01*
X147550000Y-67800000D01*
G37*
%TO.C,JP1*%
G36*
X165050000Y-78300000D02*
G01*
X167500000Y-78300000D01*
X167500000Y-79800000D01*
X165050000Y-79800000D01*
X165050000Y-78300000D01*
G37*
%TO.C,JP2*%
G36*
X165120000Y-74170000D02*
G01*
X167570000Y-74170000D01*
X167570000Y-75670000D01*
X165120000Y-75670000D01*
X165120000Y-74170000D01*
G37*
%TD*%
D11*
%TO.C,U1*%
X174875000Y-80250000D03*
X174225000Y-80250000D03*
X173575000Y-80250000D03*
X172925000Y-80250000D03*
X172275000Y-80250000D03*
X171625000Y-80250000D03*
X170975000Y-80250000D03*
X170325000Y-80250000D03*
X170325000Y-74525000D03*
X170975000Y-74525000D03*
X171625000Y-74525000D03*
X172275000Y-74525000D03*
X172925000Y-74525000D03*
X173575000Y-74525000D03*
X174225000Y-74525000D03*
X174875000Y-74525000D03*
%TD*%
D12*
%TO.C,J2*%
X144950000Y-71150000D03*
D13*
X146525000Y-67125000D03*
X172675000Y-67125000D03*
D12*
X174250000Y-71150000D03*
%TD*%
D14*
%TO.C,R2*%
X165080000Y-76700000D03*
X166100000Y-76700000D03*
%TD*%
%TO.C,R1*%
X168070000Y-77250000D03*
X167050000Y-77250000D03*
%TD*%
D15*
%TO.C,J1*%
X147100018Y-85000001D03*
X171199980Y-85000001D03*
D16*
X149400001Y-87700000D03*
X149900000Y-87700000D03*
X150399999Y-87700000D03*
X150900000Y-87700000D03*
X151399999Y-87700000D03*
X151900001Y-87700000D03*
X152400000Y-87700000D03*
X152899999Y-87700000D03*
X153400000Y-87700000D03*
X153899999Y-87700000D03*
X154400001Y-87700000D03*
X154900000Y-87700000D03*
X155399999Y-87700000D03*
X155900000Y-87700000D03*
X156399999Y-87700000D03*
X156900001Y-87700000D03*
X157400000Y-87700000D03*
X157899999Y-87700000D03*
X158400001Y-87700000D03*
X158899999Y-87700000D03*
X159400001Y-87700000D03*
X159900000Y-87700000D03*
X160399999Y-87700000D03*
X160900001Y-87700000D03*
X161400000Y-87700000D03*
X161900001Y-87700000D03*
X162400000Y-87700000D03*
X162899999Y-87700000D03*
X163400001Y-87700000D03*
X163900000Y-87700000D03*
X164400001Y-87700000D03*
X164900000Y-87700000D03*
X165399999Y-87700000D03*
X165900001Y-87700000D03*
X166400000Y-87700000D03*
X166899999Y-87700000D03*
X167400000Y-87700000D03*
X167899999Y-87700000D03*
X168400001Y-87700000D03*
X168900000Y-87700000D03*
%TD*%
D17*
%TO.C,JP1*%
X167000000Y-79050000D03*
D18*
X165550000Y-79050000D03*
%TD*%
D19*
%TO.C,JP2*%
X165620000Y-74920000D03*
D20*
X167070000Y-74920000D03*
%TD*%
M02*
